<svg width="45" height="46" viewBox="0 0 45 46" fill="none" xmlns="http://www.w3.org/2000/svg">
<g clip-path="url(#clip0_185_614)">
<path d="M22.8405 0.862183C30.1422 0.862183 37.4438 0.862183 44.7455 0.862183C44.7455 15.7697 44.7455 30.5759 44.7455 45.4834C29.8379 45.4834 15.0318 45.4834 0.124268 45.4834C0.124268 30.5759 0.124268 15.7697 0.124268 0.862183C7.42592 0.862183 14.829 0.862183 22.1306 0.862183C21.725 1.16642 21.3193 1.47065 21.0151 1.77489C17.1615 5.62854 12.4965 7.65678 7.02027 7.75819C6.10757 7.75819 5.60051 8.26525 5.60051 9.17795C5.60051 13.5387 5.60051 18.0008 5.60051 22.3615C5.60051 24.1869 5.80333 26.0123 6.31039 27.7363C8.54145 36.2549 13.8149 42.0354 22.0292 45.0777C22.3335 45.1792 22.8405 45.1792 23.2462 45.0777C32.8803 41.8326 39.5735 32.4013 39.6749 22.2601C39.6749 17.8994 39.6749 13.4373 39.6749 9.07654C39.6749 8.16384 39.1678 7.65678 38.2551 7.65678C36.3283 7.65678 34.3001 7.35254 32.4746 6.74407C29.2295 5.72995 26.4913 4.00595 24.1589 1.57207C23.5504 1.36924 23.1448 1.16642 22.8405 0.862183Z" fill="white"/>
<path d="M22.8405 0.862183C23.1447 1.16642 23.5504 1.36924 23.8546 1.67348C26.1871 4.10736 28.9252 5.83136 32.1704 6.84548C34.0972 7.45395 36.024 7.75819 37.9509 7.75819C38.8636 7.75819 39.3706 8.26525 39.3706 9.17795C39.3706 13.5387 39.3706 18.0008 39.3706 22.3615C39.3706 32.5027 32.576 41.934 22.9419 45.1792C22.6377 45.2806 22.1306 45.2806 21.725 45.1792C13.7134 42.1368 8.44003 36.3563 6.20897 27.9391C5.70191 26.2151 5.49908 24.3897 5.49908 22.5643C5.49908 18.2036 5.49908 13.7415 5.49908 9.38078C5.49908 8.46807 6.00614 7.96101 6.91885 7.96101C12.3951 7.8596 17.06 5.83136 20.9137 1.97771C21.2179 1.67348 21.725 1.36924 22.0292 1.06501C22.3335 0.862183 22.6377 0.862183 22.8405 0.862183ZM8.13579 10.3949C8.13579 10.5977 8.13579 10.6991 8.13579 10.8005C8.13579 14.5528 8.13579 18.305 8.13579 22.0573C8.13579 23.3756 8.2372 24.694 8.54144 26.0123C10.164 33.9224 14.7276 39.3987 22.1306 42.5424C22.3335 42.6439 22.6377 42.6439 22.8405 42.5424C31.3591 39.1959 36.8353 31.1843 36.8353 21.9558C36.8353 18.2036 36.8353 14.5528 36.8353 10.8005C36.8353 10.6991 36.8353 10.4963 36.8353 10.3949C31.2577 9.98925 26.4913 7.8596 22.4349 4.00595C18.4798 7.8596 13.7134 9.98925 8.13579 10.3949Z" fill="#2EA7E0"/>
<path d="M8.1358 10.3949C13.7135 9.98928 18.4798 7.85963 22.4349 4.00598C26.4913 7.85963 31.2577 9.98928 36.8354 10.3949C36.8354 10.5978 36.8354 10.6992 36.8354 10.8006C36.8354 14.5528 36.8354 18.2036 36.8354 21.9559C36.8354 31.1844 31.3591 39.1959 22.8405 42.5425C22.6377 42.6439 22.3335 42.6439 22.1306 42.5425C14.6262 39.5001 10.164 33.9225 8.54145 26.0124C8.23722 24.7954 8.1358 23.4771 8.1358 22.1587C8.1358 18.4065 8.1358 14.6542 8.1358 10.902C8.1358 10.6992 8.1358 10.5978 8.1358 10.3949ZM34.1986 23.0714C34.1986 16.581 28.9252 11.3076 22.5363 11.3076C16.0459 11.3076 10.7725 16.581 10.7725 23.0714C10.7725 29.5618 16.0459 34.8352 22.5363 34.8352C29.0266 34.7338 34.1986 29.5618 34.1986 23.0714Z" fill="white"/>
<path d="M34.1987 23.0714C34.1987 29.5617 28.9252 34.8352 22.5363 34.8352C16.0459 34.8352 10.7725 29.5617 10.7725 23.0714C10.7725 16.581 16.0459 11.3076 22.5363 11.3076C28.9252 11.3076 34.1987 16.581 34.1987 23.0714ZM31.6634 23.0714C31.6634 18.1022 27.5055 13.9443 22.5363 13.9443C17.5671 13.9443 13.4092 18.1022 13.4092 23.0714C13.4092 28.0406 17.5671 32.1985 22.5363 32.1985C27.5055 32.1985 31.6634 28.0406 31.6634 23.0714Z" fill="#2EA7E0"/>
<path d="M31.6633 23.0714C31.6633 28.0406 27.5055 32.1985 22.5363 32.1985C17.5671 32.1985 13.4092 28.0406 13.4092 23.0714C13.4092 18.1022 17.5671 13.9443 22.5363 13.9443C27.5055 13.9443 31.5619 18.0008 31.6633 23.0714ZM20.7109 25.6067C19.7982 24.694 18.9869 23.8827 18.1756 23.0714C17.6685 22.5643 16.8572 22.5643 16.3502 23.0714C15.8431 23.5785 15.8431 24.3898 16.3502 24.8968C17.4657 26.0123 18.6826 27.2293 19.7982 28.3448C20.4066 28.8519 21.1165 28.8519 21.725 28.3448C21.9278 28.142 22.0292 28.0406 22.232 27.8378C24.3617 25.7081 26.3899 23.6799 28.5196 21.5502C28.9252 21.1446 29.128 20.6375 29.0266 20.1305C28.7224 19.1163 27.5055 18.8121 26.7956 19.6234C25.173 21.246 23.449 22.8686 21.8264 24.5926C21.4207 24.8968 21.1165 25.2011 20.7109 25.6067Z" fill="white"/>
<path d="M20.7109 25.6066C21.1165 25.201 21.4208 24.8967 21.725 24.5925C23.3476 22.9699 24.9702 21.2459 26.6942 19.6233C27.5055 18.812 28.621 19.1163 28.9252 20.1304C29.1281 20.7389 28.8238 21.1445 28.4182 21.5501C26.2885 23.6798 24.2603 25.708 22.1307 27.8377C21.9278 28.0405 21.8264 28.1419 21.6236 28.3447C21.0151 28.8518 20.3052 28.8518 19.6968 28.3447C18.5812 27.2292 17.3643 26.0123 16.2488 24.8967C15.7417 24.3897 15.7417 23.5784 16.2488 23.0713C16.7558 22.5643 17.5671 22.5643 18.0742 23.0713C19.0883 23.7812 19.8996 24.6939 20.7109 25.6066Z" fill="#2EA7E0"/>
</g>
<defs>
<clipPath id="clip0_185_614">
<rect width="44.6212" height="44.6212" fill="white" transform="translate(0.124268 0.862183)"/>
</clipPath>
</defs>
</svg>
