<svg width="46" height="46" viewBox="0 0 46 46" fill="none" xmlns="http://www.w3.org/2000/svg">
<g clip-path="url(#clip0_185_622)">
<path d="M45.1058 38.4033C45.1058 40.7818 45.1058 43.0652 45.1058 45.4437C30.2638 45.4437 15.3266 45.4437 0.484589 45.4437C0.484589 30.6017 0.484589 15.6645 0.484589 0.82251C15.3266 0.82251 30.2638 0.82251 45.1058 0.82251C45.1058 12.8103 45.1058 24.7029 45.1058 36.6907C44.7252 35.8345 44.535 34.883 44.0592 34.1219C39.0168 24.6078 33.784 15.0937 28.6464 5.57957C27.4095 3.29618 25.5067 2.15449 22.9379 2.15449C20.3691 2.15449 18.3711 3.39132 17.1343 5.57957C14.3752 10.5269 11.7112 15.4743 9.04729 20.5167C6.47848 25.2738 3.90967 30.0309 1.34086 34.7879C0.57973 36.3102 0.484589 37.9276 0.960294 39.545C1.81657 42.2089 4.29024 44.2069 7.42989 44.2069C17.8003 44.2069 28.1707 44.2069 38.5411 44.2069C41.3953 44.2069 43.4884 42.8749 44.7252 40.3061C44.8204 39.6401 44.9155 38.9741 45.1058 38.4033Z" fill="white"/>
<path d="M45.1058 38.4033C44.9155 38.9741 44.8204 39.6401 44.535 40.2109C43.2981 42.7798 41.205 44.1117 38.3508 44.1117C27.9804 44.1117 17.61 44.1117 7.23962 44.1117C4.09996 44.1117 1.62629 42.2089 0.770017 39.4498C0.294311 37.8324 0.389453 36.215 1.15058 34.6927C3.71939 29.9357 6.28821 25.1786 8.85702 20.4216C11.521 15.4742 14.2801 10.4317 16.944 5.48441C18.1809 3.20102 20.1788 2.05933 22.7476 2.05933C25.3164 2.05933 27.2193 3.20102 28.4561 5.48441C33.784 15.0937 39.0168 24.6078 44.1544 34.1219C44.6301 34.9782 44.8204 35.8344 45.2009 36.6907C45.1058 37.2616 45.1058 37.8324 45.1058 38.4033ZM22.8428 41.4478C28.0755 41.4478 33.3083 41.4478 38.5411 41.4478C39.5876 41.4478 40.4439 41.1623 41.205 40.4964C42.4419 39.3547 43.0127 37.4518 41.9661 35.4539C40.0633 32.0288 38.1605 28.5086 36.3528 25.0835C33.0229 18.9945 29.7881 13.0006 26.4581 6.91153C25.697 5.57955 24.5553 4.81842 23.0331 4.72328C21.4157 4.72328 20.274 5.48441 19.5128 6.81638C15.8975 13.1908 12.4724 19.5653 9.0473 25.9398C7.23962 29.1746 5.52708 32.5045 3.71939 35.7393C3.33883 36.4053 3.14855 37.1664 3.24369 37.9275C3.52911 40.1158 5.05137 41.4478 7.33476 41.4478C12.4724 41.4478 17.7051 41.4478 22.8428 41.4478Z" fill="#2EA7E0"/>
<path d="M22.8428 41.4479C17.61 41.4479 12.4724 41.4479 7.23961 41.4479C5.05137 41.4479 3.43397 40.1159 3.14854 37.9276C3.0534 37.1665 3.24368 36.4054 3.62425 35.7394C5.43193 32.5046 7.14447 29.1746 8.95215 25.9398C12.3772 19.5654 15.8975 13.2861 19.3225 6.91161C20.0837 5.4845 21.3205 4.72337 22.8428 4.81851C24.365 4.81851 25.5067 5.57964 26.2678 7.00676C29.5978 13.0958 32.8326 19.0897 36.1625 25.1787C38.0654 28.6038 39.873 32.124 41.7759 35.5491C42.9176 37.5471 42.2516 39.4499 41.0147 40.5916C40.2536 41.2576 39.3973 41.543 38.3508 41.543C33.3083 41.4479 28.0755 41.4479 22.8428 41.4479ZM22.1768 31.0775C20.1788 31.3629 18.7517 33.1706 18.942 35.2637C19.1323 37.2616 20.8448 38.879 22.8428 38.879C24.8407 38.879 26.5533 37.3568 26.7436 35.2637C26.9338 33.1706 25.5067 31.3629 23.2233 31.0775C23.4136 30.9823 23.6039 30.9823 23.699 30.9823C25.4116 30.5066 26.6484 29.0795 26.6484 27.367C26.6484 23.7516 26.6484 20.1362 26.6484 16.616C26.6484 14.5229 24.8407 12.9055 22.7476 12.9055C20.6545 12.9055 18.8468 14.618 18.8468 16.616C18.8468 20.2314 18.8468 23.8467 18.8468 27.367C18.8468 28.5087 19.3225 29.4601 20.1788 30.1261C20.9399 30.5066 21.6059 30.792 22.1768 31.0775Z" fill="white"/>
<path d="M22.1768 31.0773C21.6059 30.7919 20.94 30.5064 20.274 30.0307C19.3226 29.3647 18.942 28.4133 18.942 27.2716C18.942 23.6563 18.942 20.0409 18.942 16.5207C18.942 14.4276 20.8448 12.715 22.8428 12.8102C24.9359 12.8102 26.7436 14.5227 26.7436 16.5207C26.7436 20.136 26.7436 23.7514 26.7436 27.2716C26.7436 28.9842 25.5067 30.4113 23.7942 30.887C23.6039 30.887 23.5088 30.9821 23.3185 30.9821C25.5067 31.3627 26.9338 33.0752 26.8387 35.1684C26.6484 37.1663 24.9359 38.7837 22.9379 38.7837C20.94 38.7837 19.2274 37.2615 19.0371 35.1684C18.7517 33.1704 20.1788 31.4578 22.1768 31.0773ZM24.1748 21.8486C24.1748 20.136 24.1748 18.5186 24.1748 16.8061C24.1748 16.045 23.7942 15.4741 23.1282 15.379C22.2719 15.1887 21.6059 15.8547 21.5108 16.8061C21.5108 18.9944 21.5108 21.2777 21.5108 23.466C21.5108 24.6077 21.5108 25.7494 21.5108 26.9862C21.5108 27.8425 22.0816 28.4133 22.9379 28.4133C23.6039 28.4133 24.1748 27.7473 24.1748 26.9862C24.1748 25.2737 24.1748 23.5611 24.1748 21.8486ZM22.8428 36.2149C23.5088 36.2149 24.1748 35.6441 24.1748 34.8829C24.1748 34.2169 23.6039 33.551 22.8428 33.551C22.1768 33.551 21.6059 34.1218 21.5108 34.7878C21.5108 35.6441 22.1768 36.2149 22.8428 36.2149Z" fill="#2EA7E0"/>
<path d="M24.1748 21.8488C24.1748 23.5613 24.1748 25.2738 24.1748 26.8912C24.1748 27.7475 23.6991 28.3183 22.9379 28.3183C22.1768 28.4135 21.5108 27.7475 21.5108 26.8912C21.5108 25.7495 21.5108 24.6078 21.5108 23.371C21.5108 21.1828 21.5108 18.8994 21.5108 16.7111C21.5108 15.7597 22.1768 15.0937 23.1282 15.284C23.7942 15.3791 24.1748 15.95 24.1748 16.7111C24.1748 18.5188 24.1748 20.2314 24.1748 21.8488Z" fill="white"/>
<path d="M22.8428 36.2151C22.1768 36.2151 21.5108 35.6442 21.5108 34.8831C21.5108 34.2171 22.0816 33.6462 22.8428 33.6462C23.5088 33.6462 24.1748 34.2171 24.1748 34.9782C24.1748 35.6442 23.5088 36.2151 22.8428 36.2151Z" fill="white"/>
</g>
<defs>
<clipPath id="clip0_185_622">
<rect width="44.6212" height="44.6212" fill="white" transform="translate(0.484589 0.82251)"/>
</clipPath>
</defs>
</svg>
