<svg width="45" height="45" viewBox="0 0 45 45" fill="none" xmlns="http://www.w3.org/2000/svg">
<g clip-path="url(#clip0_225_18)">
<path d="M44.7455 20.9322C44.7455 21.9558 44.7455 23.026 44.7455 24.0496C44.6989 24.1892 44.6989 24.3288 44.6524 24.4684C44.5128 25.3524 44.4663 26.2365 44.2337 27.1205C42.9774 32.797 39.953 37.3569 35.207 40.7069C29.9493 44.4293 24.0866 45.5925 17.8052 44.2431C11.9891 43.0334 7.42929 39.8694 4.07921 35.0304C0.636072 29.9588 -0.480621 24.3753 0.589544 18.3265C1.42706 13.8598 3.47433 9.99788 6.68483 6.78738C9.98838 3.48383 13.9899 1.39003 18.5962 0.552509C19.3407 0.412922 20.1317 0.319864 20.9227 0.226807C21.9463 0.226807 23.0165 0.226807 24.0401 0.226807C24.7846 0.319864 25.4825 0.412922 26.1804 0.50598C30.7403 1.29697 34.7418 3.34424 38.0453 6.60127C41.4419 9.90482 43.5822 13.9063 44.4198 18.6057C44.5593 19.3502 44.6524 20.1412 44.7455 20.9322ZM42.1399 22.5141C42.1399 11.7194 33.2994 2.83242 22.5047 2.83242C11.7099 2.83242 2.86946 11.6729 2.82293 22.4676C2.82293 33.2623 11.6634 42.1028 22.4581 42.1493C33.2994 42.1493 42.1399 33.3089 42.1399 22.5141Z" fill="#2EA7E0"/>
<path d="M20.9227 0.226807C20.1317 0.319864 19.3872 0.459451 18.5962 0.552509C13.9899 1.39003 9.98839 3.48383 6.68484 6.83391C3.47435 10.0444 1.42708 13.9063 0.589557 18.3265C-0.527137 24.3288 0.636085 29.9588 4.07922 34.9839C7.4293 39.8694 11.9891 43.0334 17.8052 44.2431C24.0866 45.5925 29.9493 44.4293 35.2536 40.7069C39.9995 37.3569 43.0239 32.797 44.2802 27.1205C44.4663 26.2365 44.5594 25.3524 44.699 24.4684C44.699 24.3288 44.7455 24.1892 44.792 24.0496C44.792 30.9824 44.792 37.9152 44.792 44.848C29.9028 44.848 15.06 44.848 0.170796 44.848C0.124268 29.9588 0.124268 15.1161 0.124268 0.226807C7.05707 0.226807 13.9899 0.226807 20.9227 0.226807Z" fill="white"/>
<path d="M44.7455 20.9322C44.6524 20.1412 44.5594 19.3502 44.4198 18.5592C43.5823 13.9063 41.4419 9.90482 38.0453 6.55474C34.7418 3.34424 30.7868 1.3435 26.1805 0.50598C25.4825 0.412922 24.7846 0.319864 24.0401 0.226807C30.9264 0.226807 37.8592 0.226807 44.7455 0.226807C44.7455 7.11308 44.7455 14.0459 44.7455 20.9322Z" fill="white"/>
<path d="M42.1399 22.5142C42.1399 33.3089 33.2528 42.1959 22.4581 42.1494C11.6634 42.1494 2.77641 33.2624 2.82294 22.4677C2.82294 11.6729 11.6634 2.78593 22.5047 2.83246C33.2994 2.83246 42.1399 11.7195 42.1399 22.5142ZM23.8075 18.187C23.8075 17.0703 23.8075 15.9071 23.8075 14.7904C23.8075 14.6508 23.8075 14.4647 23.7609 14.3251C23.5748 13.6737 22.9699 13.3015 22.272 13.3945C21.6206 13.4876 21.2018 14.0459 21.1553 14.6973C21.1553 17.2099 21.1553 19.7224 21.1553 22.2815C21.1553 22.8399 21.3414 23.2586 21.7137 23.6774C24.0401 25.9573 26.32 28.2838 28.6465 30.6102C28.9256 30.8894 29.1583 31.122 29.4375 31.3547C30.1354 31.9595 31.2056 31.7269 31.5313 30.8429C31.7639 30.238 31.5778 29.7262 31.1125 29.3074C28.7395 26.9344 26.4131 24.608 24.0401 22.235C23.9005 22.0954 23.7609 21.8162 23.7609 21.5836C23.7609 20.4204 23.8075 19.3037 23.8075 18.187ZM21.2018 8.13675C21.2018 8.60204 21.2018 9.0208 21.2018 9.48609C21.2018 10.184 21.7602 10.7424 22.5047 10.7424C23.2491 10.7424 23.8075 10.184 23.8075 9.48609C23.8075 8.60204 23.8075 7.67146 23.8075 6.78741C23.8075 6.04295 23.2026 5.53113 22.5047 5.53113C21.8067 5.53113 21.2484 6.08948 21.2018 6.78741C21.1553 7.2527 21.2018 7.67146 21.2018 8.13675ZM8.12723 21.2114C7.66194 21.2114 7.24318 21.2114 6.77789 21.2114C6.03343 21.2114 5.52161 21.8162 5.52161 22.5142C5.52161 23.2121 6.07996 23.817 6.77789 23.817C7.70847 23.817 8.59252 23.817 9.5231 23.817C10.221 23.817 10.7794 23.2121 10.7328 22.5142C10.7328 21.8162 10.1745 21.2579 9.47657 21.2114C9.05781 21.1648 8.59252 21.2114 8.12723 21.2114ZM36.789 23.817C37.2543 23.817 37.6731 23.817 38.1384 23.817C38.8828 23.817 39.4412 23.2586 39.4412 22.5142C39.4412 21.7697 38.8828 21.2114 38.1849 21.2114C37.3008 21.2114 36.4168 21.2114 35.5327 21.2114C34.7883 21.2114 34.2299 21.7697 34.2299 22.5142C34.2299 23.2586 34.7883 23.817 35.4862 23.817C35.9515 23.817 36.3703 23.817 36.789 23.817ZM23.8075 36.8451C23.8075 36.3798 23.8075 35.961 23.8075 35.4957C23.8075 34.7513 23.2026 34.2395 22.5047 34.2395C21.8067 34.2395 21.2484 34.7978 21.2018 35.4957C21.2018 36.3798 21.2018 37.3104 21.2018 38.1944C21.2018 38.8924 21.7602 39.4507 22.4581 39.4507C23.2026 39.4507 23.7609 38.9389 23.8075 38.1944C23.8075 37.7757 23.8075 37.3104 23.8075 36.8451ZM34.8813 11.4403C34.8813 10.7424 34.323 10.1375 33.5785 10.1375C32.8341 10.1375 32.2292 10.6958 32.2292 11.4403C32.2292 12.1382 32.8806 12.7896 33.5785 12.7431C34.2765 12.7431 34.8348 12.1382 34.8813 11.4403ZM11.4308 34.8909C12.1287 34.8909 12.7336 34.286 12.7336 33.5881C12.7336 32.8901 12.1287 32.2387 11.3843 32.2387C10.6398 32.2387 10.0814 32.8436 10.0814 33.5881C10.128 34.3325 10.6863 34.8909 11.4308 34.8909ZM34.8348 33.5881C34.8348 32.8436 34.2299 32.2387 33.532 32.2852C32.8341 32.2852 32.2292 32.8901 32.2292 33.5881C32.2292 34.3325 32.8341 34.8909 33.5785 34.8909C34.2765 34.8909 34.8348 34.286 34.8348 33.5881ZM10.128 11.4403C10.128 12.1848 10.6863 12.7431 11.4308 12.7431C12.1287 12.7431 12.7801 12.1382 12.7801 11.4403C12.7801 10.6958 12.1752 10.1375 11.4308 10.1375C10.6398 10.1375 10.0814 10.6958 10.128 11.4403Z" fill="white"/>
<path d="M23.8075 18.187C23.8075 19.3037 23.8075 20.4669 23.8075 21.5836C23.8075 21.8163 23.9005 22.0489 24.0866 22.235C26.4131 24.608 28.7861 26.9344 31.159 29.3074C31.5778 29.7262 31.8104 30.238 31.5778 30.8429C31.2521 31.6804 30.1819 31.9596 29.484 31.3547C29.2048 31.122 28.9722 30.8429 28.693 30.6102C26.3666 28.2838 24.0866 26.0039 21.7602 23.6774C21.388 23.3052 21.1553 22.8399 21.2019 22.2815C21.2019 19.769 21.2019 17.2564 21.2019 14.6973C21.2019 13.9994 21.6671 13.4876 22.3185 13.3945C22.97 13.3015 23.6214 13.6737 23.8075 14.3251C23.854 14.4647 23.854 14.6508 23.854 14.7904C23.8075 15.9071 23.8075 17.0703 23.8075 18.187Z" fill="#2EA7E0"/>
<path d="M21.2019 8.13662C21.2019 7.67134 21.2019 7.25258 21.2019 6.78729C21.2019 6.08935 21.7602 5.53101 22.5047 5.53101C23.2491 5.53101 23.8075 6.04282 23.8075 6.78729C23.8075 7.67134 23.8075 8.60191 23.8075 9.48596C23.8075 10.2304 23.2026 10.7422 22.5047 10.7422C21.8067 10.7422 21.2484 10.1839 21.2019 9.48596C21.1553 9.02067 21.2019 8.60191 21.2019 8.13662Z" fill="#2EA7E0"/>
<path d="M8.12722 21.2114C8.59251 21.2114 9.01127 21.2114 9.47656 21.2114C10.1745 21.2114 10.7328 21.8162 10.7328 22.5142C10.7328 23.2121 10.221 23.817 9.52309 23.817C8.59251 23.817 7.70846 23.817 6.77789 23.817C6.07995 23.817 5.52161 23.2121 5.52161 22.5142C5.52161 21.7697 6.07995 21.2114 6.77789 21.2114C7.24318 21.1648 7.70846 21.2114 8.12722 21.2114Z" fill="#2EA7E0"/>
<path d="M36.789 23.817C36.3703 23.817 35.905 23.817 35.4862 23.817C34.7418 23.817 34.2299 23.2122 34.2299 22.5142C34.2299 21.7698 34.7883 21.2114 35.5328 21.2114C36.4168 21.2114 37.3009 21.2114 38.1849 21.2114C38.9294 21.2114 39.4412 21.8163 39.4412 22.5142C39.4412 23.2587 38.8828 23.817 38.1384 23.817C37.7196 23.817 37.2543 23.817 36.789 23.817Z" fill="#2EA7E0"/>
<path d="M23.8075 36.8451C23.8075 37.3104 23.8075 37.7292 23.8075 38.1945C23.8075 38.9389 23.2026 39.4507 22.4581 39.4507C21.7602 39.4507 21.2018 38.8924 21.2018 38.1945C21.2018 37.3104 21.2018 36.3798 21.2018 35.4958C21.2018 34.7979 21.7602 34.2395 22.5047 34.2395C23.2491 34.2395 23.8075 34.7979 23.8075 35.4958C23.8075 35.9611 23.8075 36.4264 23.8075 36.8451Z" fill="#2EA7E0"/>
<path d="M34.8814 11.4403C34.8814 12.1382 34.2765 12.7431 33.5786 12.7431C32.8806 12.7431 32.2292 12.1382 32.2292 11.4403C32.2292 10.6958 32.8341 10.1375 33.5786 10.1375C34.323 10.1375 34.8814 10.6958 34.8814 11.4403Z" fill="#2EA7E0"/>
<path d="M11.4308 34.8908C10.7329 34.8908 10.128 34.3324 10.128 33.6345C10.128 32.89 10.6863 32.2852 11.4308 32.2852C12.1287 32.2852 12.7801 32.89 12.7801 33.6345C12.7336 34.2859 12.1287 34.8908 11.4308 34.8908Z" fill="#2EA7E0"/>
<path d="M34.8348 33.588C34.8348 34.3325 34.2765 34.8908 33.532 34.8908C32.7876 34.8908 32.1827 34.286 32.1827 33.588C32.1827 32.8901 32.7876 32.2852 33.4855 32.2852C34.2765 32.2387 34.8814 32.8436 34.8348 33.588Z" fill="#2EA7E0"/>
<path d="M10.128 11.4403C10.128 10.6958 10.6863 10.1375 11.3843 10.1375C12.1287 10.1375 12.7336 10.6958 12.7336 11.4403C12.7336 12.1382 12.1287 12.7896 11.3843 12.7431C10.6863 12.7431 10.128 12.1382 10.128 11.4403Z" fill="#2EA7E0"/>
</g>
<defs>
<clipPath id="clip0_225_18">
<rect width="44.6212" height="44.6212" fill="white" transform="translate(0.124268 0.226807)"/>
</clipPath>
</defs>
</svg>
