<svg width="45" height="46" viewBox="0 0 45 46" fill="none" xmlns="http://www.w3.org/2000/svg">
<g clip-path="url(#clip0_185_642)">
<path d="M0.0498047 14.1855C0.0498047 9.72341 0.0498047 5.15987 0.0498047 0.697754C14.9573 0.697754 29.7635 0.697754 44.671 0.697754C44.671 15.6053 44.671 30.4114 44.671 45.319C29.7635 45.319 14.9573 45.319 0.0498047 45.319C0.0498047 35.7863 0.0498047 26.1521 0.0498047 16.6194C0.0498047 16.7208 0.151217 16.7208 0.151217 16.8222C0.455452 19.5604 1.57098 21.9942 3.59922 23.9211C3.59922 24.0225 3.70063 24.0225 3.80204 24.1239C2.28087 25.4422 1.67239 27.0648 2.38228 28.9917C2.99075 30.9185 4.51193 31.8312 6.43875 32.034C6.54016 33.251 6.94581 34.2651 7.7571 35.0764C8.5684 35.8877 9.68393 36.2933 10.7995 36.3947C11.0023 38.423 12.0164 39.8427 13.9432 40.4512C15.8701 41.0597 17.4926 40.3498 18.811 38.8286C18.9124 38.93 19.0138 39.0314 19.1152 39.1328C19.9265 39.9441 20.7378 40.7554 21.5491 41.5667C23.983 43.7978 27.8367 42.5808 28.6479 39.4371C28.7494 39.1328 28.7494 38.8286 28.8508 38.5244C29.9663 38.423 30.9804 38.0173 31.7917 37.3074C32.603 36.4961 33.0087 35.5834 33.1101 34.3665C34.7327 34.2651 35.8482 33.5552 36.6595 32.2368C37.3694 30.9185 37.3694 29.4987 36.5581 28.079C36.6595 27.9775 36.7609 27.8761 36.8623 27.7747C38.1807 26.5578 39.499 25.2394 40.9188 24.0225C44.0625 21.0815 45.1781 17.5321 44.5696 13.3742C43.6569 7.28952 37.6736 2.72599 30.879 4.04434C28.5465 4.44999 26.6197 5.56552 24.9971 7.18811C24.3886 7.79658 23.6788 8.40505 23.0703 9.11494C22.3604 8.40505 21.6505 7.69517 21.0421 7.0867C17.9997 4.04434 14.3489 2.8274 10.0896 3.6387C5.1204 4.44999 1.97663 7.28952 0.455452 12.0559C0.252628 12.7658 0.151217 13.4756 0.0498047 14.1855Z" fill="white"/>
<path d="M0.0497761 14.1855C0.151188 13.4756 0.2526 12.7657 0.455423 12.0559C1.9766 7.28951 5.12037 4.44998 9.88673 3.53727C14.0446 2.72598 17.7968 3.94292 20.8392 6.98527C21.5491 7.69516 22.1576 8.30363 22.8674 9.01351C23.5773 8.40504 24.1858 7.79657 24.7943 7.08669C26.4169 5.36269 28.4451 4.34857 30.6762 3.94292C37.4707 2.62457 43.3526 7.1881 44.3668 13.2728C44.9752 17.4307 43.8597 20.9801 40.7159 23.9211C39.3976 25.138 38.0792 26.4563 36.6594 27.6733C36.558 27.7747 36.4566 27.8761 36.3552 27.9775C37.1665 29.3973 37.2679 30.7156 36.4566 32.1354C35.7467 33.4538 34.5298 34.2651 32.9072 34.2651C32.8058 35.3806 32.4002 36.3947 31.5889 37.206C30.7776 38.0173 29.8649 38.4229 28.6479 38.4229C28.5465 38.7272 28.5465 39.0314 28.4451 39.3357C27.6338 42.5808 23.7801 43.6964 21.3463 41.4653C20.535 40.654 19.7237 39.8427 18.9124 39.0314C18.811 38.93 18.7096 38.8286 18.6081 38.7272C17.2898 40.2484 15.6672 40.9582 13.7404 40.3498C11.8135 39.7413 10.7994 38.3215 10.5966 36.2933C9.37967 36.2933 8.36555 35.8876 7.55425 34.9749C6.74296 34.1636 6.33731 33.1495 6.2359 31.9326C4.20766 31.7298 2.7879 30.8171 2.17942 28.8902C1.57095 26.9634 2.17942 25.3408 3.59919 24.0225C3.7006 24.0225 3.59919 24.0225 3.49778 23.9211C1.46954 21.9942 0.455423 19.5603 0.0497761 16.8222C0.0497761 16.7208 -0.0516357 16.7208 -0.0516357 16.6194C0.0497761 15.8081 0.0497761 14.9968 0.0497761 14.1855ZM18.3039 30.6142C20.6364 31.6284 21.7519 34.2651 20.6364 36.6989C20.6364 36.8004 20.6364 37.0032 20.7378 37.0032C21.6505 37.9159 22.4618 38.8286 23.3745 39.6399C24.0844 40.3498 25.3013 40.1469 25.8084 39.2342C26.214 38.5244 26.1126 37.7131 25.5042 37.1046C24.6929 36.2933 23.8816 35.5834 23.1717 34.7721C22.4618 34.0622 22.6646 32.9467 23.5773 32.6425C24.1858 32.4396 24.6929 32.5411 25.0985 33.0481C25.9098 33.8594 26.6197 34.5693 27.431 35.3806C28.1409 36.0905 29.155 36.0905 29.7634 35.482C30.4733 34.7721 30.4733 33.8594 29.7634 33.0481C28.9522 32.2368 28.1409 31.4255 27.431 30.7156C26.9239 30.2086 26.9239 29.4987 27.3296 28.9916C27.8366 28.3832 28.7493 28.2818 29.3578 28.8902C30.1691 29.7015 30.9804 30.5128 31.8931 31.4255C32.2987 31.8312 32.7044 32.034 33.3129 31.8312C33.9213 31.7298 34.2256 31.3241 34.4284 30.8171C34.6312 30.2086 34.4284 29.7015 34.0227 29.2959C31.0818 26.3549 28.2423 23.5154 25.3013 20.5745C25.1999 20.473 25.0985 20.473 24.9971 20.2702C24.49 20.7773 23.983 21.2843 23.5773 21.69C22.6646 22.6027 21.5491 23.1098 20.2307 23.1098C18.3039 23.1098 16.5799 21.8928 15.87 20.1688C15.1601 18.3434 15.5658 16.3152 16.9856 14.9968C18.3039 13.7799 19.5209 12.4615 20.8392 11.2446C20.9406 11.1432 21.1434 11.0417 21.1434 11.0417C20.1293 10.0276 19.318 9.01351 18.4053 8.20222C16.0728 6.17398 13.2333 5.4641 10.191 6.17398C4.91755 7.39092 1.77378 12.3601 3.09213 17.6335C3.49778 19.4589 4.41049 20.9801 5.83025 22.2985C7.04719 21.1829 8.36555 20.6759 9.98814 21.0815C11.6107 21.4872 12.6248 22.5013 13.2333 24.0225C15.2616 23.414 17.087 23.8196 18.3039 25.3408C19.1152 26.6592 19.5209 28.6874 18.3039 30.6142ZM34.6312 26.0507C35.1383 25.5436 35.6453 25.138 36.051 24.6309C37.2679 23.414 38.5863 22.2985 39.7018 20.9801C42.5413 17.7349 42.6427 13.4756 40.3103 10.129C38.6877 7.89798 36.558 6.57963 33.8199 6.27539C31.1832 5.97116 28.8507 6.88386 26.9239 8.70928C24.0844 11.346 21.3463 14.0841 18.6081 16.8222C17.7968 17.6335 17.7969 18.9519 18.5067 19.7632C19.318 20.5745 20.6364 20.5745 21.4477 19.7632C21.8533 19.3575 22.3604 18.9519 22.766 18.4448C24.0844 17.2279 25.6056 17.2279 26.9239 18.4448C28.4451 19.966 29.8649 21.3858 31.386 22.9069C32.5016 24.0225 33.5157 25.0366 34.6312 26.0507ZM16.4785 28.0789C16.4785 27.3691 16.0728 26.7606 15.4644 26.4563C14.7545 26.1521 14.146 26.2535 13.5376 26.7606C12.2192 28.0789 10.9008 29.3973 9.58249 30.7156C8.87261 31.4255 8.97402 32.4396 9.6839 33.1495C10.3938 33.8594 11.4079 33.8594 12.1178 33.1495C13.4361 31.8312 14.7545 30.5128 16.0728 29.2959C16.2757 28.9916 16.4785 28.586 16.4785 28.0789ZM4.71472 27.6733C4.71472 28.3832 5.12037 28.9916 5.72884 29.2959C6.43872 29.6001 7.04719 29.4987 7.65566 28.9916C8.46696 28.1803 9.27825 27.3691 10.0895 26.5578C10.7994 25.8479 10.7994 24.8338 10.0895 24.1239C9.37967 23.414 8.36555 23.414 7.55425 24.1239C6.74296 24.9352 5.93166 25.7465 5.22178 26.4563C4.91754 26.7606 4.71472 27.1662 4.71472 27.6733ZM15.4644 38.0173C15.6672 37.9159 16.0728 37.8145 16.3771 37.5102C16.9856 37.0032 17.4926 36.4961 17.9997 35.8876C18.7096 35.1778 18.6081 34.1636 17.9997 33.4538C17.2898 32.7439 16.2757 32.7439 15.5658 33.3524C14.9573 33.8594 14.4503 34.4679 13.9432 34.9749C13.4361 35.482 13.3347 36.1919 13.639 36.9018C13.9432 37.6117 14.4503 38.0173 15.4644 38.0173Z" fill="#2EA7E0"/>
<path d="M18.304 30.6143C19.5209 28.6875 19.1153 26.6593 18.1011 25.3409C16.8842 23.9211 15.0588 23.4141 13.0305 24.0225C12.4221 22.5014 11.408 21.3858 9.78537 21.0816C8.16278 20.676 6.74301 21.183 5.62748 22.2985C4.20771 20.9802 3.29501 19.459 2.88936 17.6336C1.67242 12.3602 4.81618 7.391 9.98819 6.17406C13.0305 5.46418 15.7687 6.17406 18.2025 8.2023C19.1153 9.01359 19.9265 10.0277 20.9407 11.0418C20.8393 11.0418 20.7378 11.1432 20.6364 11.2447C19.3181 12.4616 18.1011 13.6785 16.7828 14.9969C15.363 16.3152 14.9574 18.3435 15.6673 20.1689C16.3771 21.8929 18.1011 23.1098 20.028 23.1098C21.3463 23.1098 22.4618 22.6028 23.3746 21.6901C23.8816 21.183 24.2873 20.7774 24.7943 20.2703C24.8957 20.3717 24.9971 20.4731 25.0986 20.5745C28.0395 23.5155 30.879 26.355 33.82 29.296C34.2256 29.7016 34.4284 30.2087 34.2256 30.8171C34.0228 31.4256 33.7186 31.7298 33.1101 31.8313C32.603 31.9327 32.096 31.7298 31.6903 31.4256C30.879 30.6143 30.0677 29.803 29.155 28.8903C28.5466 28.2818 27.6339 28.2818 27.1268 28.9917C26.7211 29.4988 26.8226 30.2087 27.2282 30.7157C28.0395 31.527 28.8508 32.3383 29.5607 33.0482C30.2706 33.8595 30.2706 34.7722 29.5607 35.4821C28.8508 36.192 27.9381 36.0906 27.2282 35.3807C26.4169 34.6708 25.707 33.8595 24.8957 33.0482C24.4901 32.6426 23.983 32.4397 23.3746 32.6426C22.4618 32.9468 22.259 34.0623 22.9689 34.7722C23.7802 35.5835 24.5915 36.3948 25.3014 37.1047C25.9098 37.7131 26.0113 38.5244 25.6056 39.2343C25.0986 40.0456 23.8816 40.2484 23.1717 39.64C22.259 38.8287 21.3463 37.916 20.535 37.0033C20.4336 36.9018 20.4336 36.8004 20.4336 36.699C21.8534 34.2651 20.6364 31.6284 18.304 30.6143Z" fill="white"/>
<path d="M34.6313 26.0506C33.5157 25.0365 32.5016 24.0224 31.4875 22.9068C29.9663 21.3857 28.5466 19.9659 27.0254 18.4447C25.707 17.2278 24.1858 17.2278 22.8675 18.4447C22.4618 18.8504 22.0562 19.3574 21.5491 19.7631C20.6364 20.5744 19.4195 20.5744 18.6082 19.7631C17.7969 18.9518 17.7969 17.6334 18.7096 16.8221C21.4477 14.084 24.1858 11.3459 27.0254 8.70918C28.9522 6.88377 31.2847 6.07247 33.9214 6.2753C36.6595 6.57953 38.7892 7.89789 40.4117 10.1289C42.8456 13.4755 42.6428 17.8362 39.8033 20.98C38.6877 22.2984 37.3694 23.4139 36.1524 24.6308C35.6454 25.1379 35.1383 25.645 34.6313 26.0506Z" fill="white"/>
<path d="M16.4785 28.0789C16.4785 28.5859 16.2757 28.9916 15.9715 29.2958C14.6531 30.6142 13.3348 31.9325 12.0164 33.1495C11.3065 33.8594 10.2924 33.8594 9.58253 33.1495C8.87265 32.4396 8.77123 31.4255 9.48112 30.7156C10.7995 29.3972 12.1178 28.0789 13.4362 26.7605C13.9432 26.2535 14.6531 26.1521 15.363 26.4563C16.0729 26.8619 16.3771 27.369 16.4785 28.0789Z" fill="white"/>
<path d="M4.71472 27.6734C4.71472 27.1663 4.91755 26.7607 5.22178 26.4564C6.03308 25.6451 6.74296 24.8338 7.55425 24.124C8.26414 23.4141 9.37967 23.4141 10.0895 24.124C10.7994 24.8338 10.7994 25.848 10.0895 26.5578C9.27825 27.3691 8.46696 28.1804 7.65567 28.9917C7.14861 29.4988 6.43872 29.6002 5.72884 29.296C5.12037 28.9917 4.71472 28.3833 4.71472 27.6734Z" fill="white"/>
<path d="M15.4643 38.0173C14.4502 38.0173 13.9431 37.6116 13.6389 36.9017C13.3347 36.1919 13.4361 35.5834 13.9431 34.9749C14.4502 34.3665 15.0587 33.8594 15.5657 33.3523C16.2756 32.6425 17.2897 32.7439 17.9996 33.4537C18.7095 34.1636 18.7095 35.1777 17.9996 35.8876C17.4926 36.3947 16.9855 37.0032 16.377 37.5102C16.0728 37.8145 15.6671 37.9159 15.4643 38.0173Z" fill="white"/>
</g>
<defs>
<clipPath id="clip0_185_642">
<rect width="44.6212" height="44.6212" fill="white" transform="translate(0.0498047 0.697754)"/>
</clipPath>
</defs>
</svg>
