<svg width="46" height="45" viewBox="0 0 46 45" fill="none" xmlns="http://www.w3.org/2000/svg">
<g clip-path="url(#clip0_185_630)">
<path d="M45.1441 1.09532C45.1441 15.293 45.1441 29.4906 45.1441 43.6883C44.8399 44.2968 44.4342 44.601 43.8257 44.601C34.1916 44.601 24.5575 44.601 14.822 44.601C14.0107 44.601 13.098 44.4996 12.2867 44.2968C11.5768 44.1954 11.1711 43.6883 11.1711 42.877C11.1711 42.2685 11.1711 41.6601 11.1711 41.0516C11.1711 40.9502 11.0697 40.7474 10.9683 40.6459C10.8669 40.6459 10.6641 40.6459 10.5627 40.7474C10.157 41.153 9.75137 41.5586 9.24431 42.0657C8.63584 42.7756 8.02736 42.7756 7.41889 42.3699C5.59348 41.153 4.17371 39.6318 2.95677 37.9078C2.55113 37.2994 2.55113 36.6909 3.05818 36.0824C3.56524 35.6768 3.97089 35.2711 4.37654 34.7641C4.47795 34.6626 4.57936 34.4598 4.47795 34.3584C4.37654 34.257 4.27513 34.1556 4.0723 34.1556C3.46383 34.1556 2.95677 34.1556 2.3483 34.1556C1.43559 34.1556 1.02995 33.7499 0.827124 32.8372C0.421476 30.809 0.421476 28.7808 0.827124 26.7525C1.02995 25.9412 1.53701 25.5356 2.3483 25.5356C2.95677 25.5356 3.56524 25.5356 4.17371 25.5356C4.27513 25.5356 4.47795 25.4342 4.57936 25.3328C4.57936 25.2313 4.57936 25.0285 4.47795 24.9271C3.97089 24.5215 3.56524 24.1158 3.1596 23.6088C2.55112 23.1017 2.44971 22.4932 2.95677 21.7833C4.17371 20.0593 5.59348 18.5382 7.41889 17.3212C8.12878 16.9156 8.63584 16.9156 9.24431 17.524C9.64995 17.9297 10.0556 18.3353 10.5627 18.741C10.6641 18.8424 10.8669 18.9438 10.9683 18.8424C11.0697 18.8424 11.1711 18.6396 11.1711 18.4367C11.1711 17.8283 11.1711 17.2198 11.1711 16.6113C11.1711 16.0029 11.5768 15.3944 12.1853 15.293C13.5036 15.0902 14.9234 15.0902 16.2417 14.9887C16.546 14.9887 16.8502 14.9887 17.1544 15.0902C17.1544 14.8873 17.1544 14.6845 17.1544 14.4817C17.1544 10.2224 17.1544 6.0645 17.1544 1.80521C17.1544 0.993912 17.3573 0.486853 18.1685 0.182617C26.89 0.182617 35.6114 0.182617 44.2314 0.182617C44.637 0.385441 44.9413 0.689676 45.1441 1.09532ZM42.5074 42.0657C42.5074 28.9836 42.5074 15.9015 42.5074 2.81932C34.9015 2.81932 27.2956 2.81932 19.7911 2.81932C19.7911 15.9015 19.7911 28.9836 19.7911 42.0657C27.397 42.0657 34.9015 42.0657 42.5074 42.0657ZM5.69489 22.3918C5.7963 22.4932 5.7963 22.4932 5.7963 22.5946C6.20195 23.0003 6.6076 23.4059 7.01325 23.8116C7.52031 24.3186 7.62172 24.8257 7.31748 25.5356C7.11466 26.0426 6.91183 26.4483 6.70901 26.9553C6.40478 27.868 5.99913 28.1723 5.08642 28.1723C4.47795 28.1723 3.97089 28.1723 3.26101 28.1723C3.26101 29.2878 3.26101 30.4033 3.26101 31.5189C3.97089 31.5189 4.57936 31.5189 5.18783 31.5189C5.99913 31.5189 6.40478 31.8231 6.70901 32.6344C6.91183 33.1415 7.11466 33.6485 7.31748 34.0542C7.62172 34.8655 7.62172 35.3725 6.91183 35.981C6.50619 36.3866 6.10054 36.7923 5.59348 37.2994C6.40478 38.1106 7.21607 38.9219 8.02736 39.7332C8.43301 39.2262 8.83866 38.8205 9.24431 38.4149C9.95419 37.705 10.3598 37.6036 11.2725 38.1106C11.6782 38.3135 12.0838 38.5163 12.4895 38.6177C13.5036 39.0234 13.7064 39.2262 13.7064 40.3417C13.7064 40.8488 13.7064 41.4572 13.7064 42.0657C14.822 42.0657 15.9375 42.0657 17.053 42.0657C17.053 39.9361 17.053 37.705 17.053 35.4739C14.2135 36.0824 11.881 35.2711 10.3598 32.7358C9.14289 30.7076 9.24431 28.5779 10.5627 26.5497C12.0838 24.2172 14.3149 23.6088 17.053 24.1158C17.053 21.9862 17.053 19.7551 17.053 17.524C16.0389 17.524 15.0248 17.524 14.0107 17.524C13.9093 17.524 13.8078 17.7269 13.7064 17.8283C13.7064 18.3353 13.7064 18.9438 13.7064 19.4509C13.7064 20.1607 13.4022 20.5664 12.6923 20.8706C12.1853 21.0735 11.6782 21.2763 11.1711 21.4791C10.4612 21.7833 9.95419 21.7833 9.44713 21.1749C9.04148 20.7692 8.63584 20.2622 8.12878 19.7551C7.21607 20.8706 6.40478 21.5805 5.69489 22.3918ZM17.1544 29.8963C17.1544 29.085 17.1544 28.2737 17.1544 27.4624C17.1544 27.2596 17.053 27.0568 16.8502 27.0568C16.3431 26.7525 15.7347 26.6511 15.1262 26.7525C13.8078 26.9553 12.8951 27.6652 12.4895 28.9836C12.0838 30.3019 12.3881 31.4175 13.4022 32.3302C14.4163 33.2429 15.6333 33.3443 16.8502 32.8372C17.053 32.7358 17.1544 32.6344 17.1544 32.3302C17.1544 31.4175 17.1544 30.7076 17.1544 29.8963Z" fill="#2EA7E0"/>
<path d="M18.0671 0.182617C17.3572 0.486853 17.053 1.09532 17.053 1.80521C17.053 6.0645 17.053 10.2224 17.053 14.4817C17.053 14.6845 17.053 14.7859 17.053 15.0902C16.7488 15.0902 16.4445 14.9887 16.1403 14.9887C14.8219 15.0902 13.4022 15.1916 12.0838 15.293C11.4753 15.3944 11.0697 15.9015 11.0697 16.6113C11.0697 17.2198 11.0697 17.8283 11.0697 18.4367C11.0697 18.5382 10.9683 18.741 10.8669 18.8424C10.7655 18.8424 10.5626 18.8424 10.4612 18.741C10.0556 18.3353 9.64993 17.9297 9.14287 17.524C8.5344 16.9156 7.92592 16.9156 7.31745 17.3212C5.59345 18.5382 4.07227 19.9579 2.85533 21.7833C2.44968 22.4932 2.5511 23.1017 3.15957 23.6088C3.56521 24.1158 3.97086 24.5215 4.37651 24.9271C4.47792 25.0285 4.47792 25.2313 4.47792 25.3328C4.47792 25.4342 4.2751 25.5356 4.07227 25.5356C3.4638 25.5356 2.85533 25.5356 2.24686 25.5356C1.43557 25.5356 0.928507 25.9412 0.725683 26.8539C0.320036 28.8822 0.320036 30.9104 0.725683 32.9386C0.928507 33.8513 1.33415 34.257 2.24686 34.257C2.85533 34.257 3.36239 34.257 3.97086 34.257C4.07227 34.257 4.2751 34.3584 4.37651 34.4598C4.37651 34.5612 4.37651 34.7641 4.2751 34.8655C3.97086 35.2711 3.56521 35.6768 3.05816 36.0824C2.5511 36.6909 2.5511 37.2994 2.95674 37.9078C4.17369 39.7332 5.69486 41.153 7.41887 42.3699C8.02734 42.7756 8.63581 42.7756 9.24428 42.2685C9.64993 41.8629 10.0556 41.3558 10.5626 40.9502C10.664 40.8488 10.8669 40.7474 10.9683 40.8488C11.0697 40.8488 11.1711 41.153 11.1711 41.2544C11.1711 41.8629 11.1711 42.4714 11.1711 43.0798C11.1711 43.7897 11.5768 44.3982 12.2866 44.4996C13.0979 44.601 14.0106 44.8038 14.8219 44.8038C24.4561 44.8038 34.0902 44.8038 43.8257 44.8038C44.5356 44.8038 44.9412 44.3982 45.1441 43.8911C45.1441 44.1954 45.1441 44.601 45.1441 44.9052C30.2365 44.9052 15.4304 44.9052 0.52286 44.9052C0.52286 29.8963 0.52286 15.0902 0.52286 0.182617C6.40475 0.182617 12.2866 0.182617 18.0671 0.182617Z" fill="white"/>
<path d="M45.1441 1.09532C44.9413 0.689676 44.637 0.284029 44.2314 0.182617C44.5356 0.182617 44.8399 0.182617 45.1441 0.182617C45.1441 0.486853 45.1441 0.791088 45.1441 1.09532Z" fill="white"/>
<path d="M42.5074 42.0657C34.9015 42.0657 27.397 42.0657 19.7911 42.0657C19.7911 28.9836 19.7911 15.9015 19.7911 2.81934C27.397 2.81934 34.9015 2.81934 42.5074 2.81934C42.5074 15.9015 42.5074 28.9836 42.5074 42.0657ZM25.8758 28.7808C25.8758 31.5189 25.8758 34.257 25.8758 36.9951C25.8758 37.6036 26.0787 38.0092 26.5857 38.2121C27.4984 38.7191 28.5126 38.0092 28.5126 36.9951C28.5126 31.5189 28.5126 26.0426 28.5126 20.465C28.5126 20.1608 28.614 20.0593 28.9182 19.8565C30.5408 19.0452 31.3521 17.8283 31.3521 16.0029C31.3521 14.2789 30.4394 13.0619 28.9182 12.352C28.7154 12.2506 28.614 12.1492 28.614 11.845C28.614 10.5266 28.614 9.20828 28.614 7.88993C28.614 7.07863 28.1069 6.47016 27.2956 6.47016C26.5857 6.47016 25.9773 7.07863 25.9773 7.88993C25.9773 9.20828 25.9773 10.5266 25.9773 11.845C25.9773 12.1492 25.8758 12.2506 25.5716 12.4535C24.0504 13.1633 23.1377 14.3803 23.1377 16.2057C23.1377 17.9297 23.949 19.2481 25.5716 19.9579C25.8758 20.0593 25.9773 20.2622 25.9773 20.5664C25.8758 23.2031 25.8758 26.0426 25.8758 28.7808ZM36.8283 16.1043C36.8283 13.3662 36.8283 10.628 36.8283 7.88993C36.8283 7.38287 36.6255 6.97722 36.1184 6.67299C35.2057 6.16593 34.1916 6.7744 34.1916 7.88993C34.1916 13.3662 34.1916 18.9438 34.1916 24.4201C34.1916 24.7243 34.0902 24.8257 33.8874 24.9271C32.3662 25.637 31.4535 26.8539 31.4535 28.4765C31.3521 30.3019 32.2648 31.5189 33.786 32.3302C34.0902 32.4316 34.0902 32.6344 34.0902 32.8372C34.0902 34.1556 34.0902 35.5754 34.0902 36.8937C34.0902 37.705 34.5973 38.3135 35.4086 38.3135C36.1184 38.3135 36.7269 37.705 36.7269 36.8937C36.7269 35.5754 36.7269 34.3584 36.7269 33.0401C36.7269 32.7358 36.8283 32.533 37.1326 32.3302C38.7552 31.6203 39.5664 30.4034 39.5664 28.5779C39.5664 26.8539 38.7552 25.5356 37.1326 24.8257C36.8283 24.7243 36.7269 24.5215 36.7269 24.2172C36.8283 21.6819 36.8283 18.9438 36.8283 16.1043Z" fill="white"/>
<path d="M5.69487 22.3918C6.40475 21.6819 7.21605 20.8706 8.12876 19.9579C8.63581 20.4649 9.04146 20.972 9.44711 21.3776C10.0556 21.9861 10.4612 21.9861 11.1711 21.6819C11.6782 21.479 12.1852 21.2762 12.6923 21.0734C13.4022 20.7692 13.7064 20.4649 13.7064 19.6536C13.7064 19.1466 13.7064 18.5381 13.7064 18.031C13.7064 17.9296 13.9092 17.7268 14.0106 17.7268C15.0248 17.7268 16.0389 17.7268 17.053 17.7268C17.053 19.9579 17.053 22.0875 17.053 24.3186C14.4163 23.7101 12.0838 24.42 10.5626 26.7525C9.24429 28.6793 9.14287 30.8089 10.3598 32.9386C11.881 35.4739 14.2135 36.1838 17.053 35.6767C17.053 37.9078 17.053 40.0374 17.053 42.2685C15.9375 42.2685 14.8219 42.2685 13.7064 42.2685C13.7064 41.66 13.7064 41.1529 13.7064 40.5445C13.7064 39.4289 13.5036 39.1247 12.4895 38.8205C12.0838 38.7191 11.6782 38.5162 11.2725 38.3134C10.3598 37.9078 9.95417 37.9078 9.24429 38.6176C8.83864 39.0233 8.5344 39.4289 8.02734 39.936C7.21605 39.1247 6.40475 38.3134 5.59346 37.5021C6.10052 36.9951 6.50617 36.5894 6.91181 36.1838C7.6217 35.3725 7.6217 34.8654 7.31746 34.0541C7.01322 33.6485 6.91181 33.1414 6.70899 32.6343C6.40475 31.8231 6.10052 31.5188 5.18781 31.5188C4.57934 31.5188 3.97087 31.5188 3.26099 31.5188C3.26099 30.4033 3.26099 29.2878 3.26099 28.1722C3.86946 28.1722 4.47793 28.1722 5.0864 28.1722C5.99911 28.1722 6.40475 27.868 6.70899 26.9553C6.91181 26.4482 7.11464 25.9412 7.31746 25.5355C7.6217 24.8256 7.52028 24.3186 7.01322 23.8115C6.60758 23.4059 6.20193 23.0002 5.79628 22.5946C5.79628 22.4932 5.79628 22.4932 5.69487 22.3918Z" fill="white"/>
<path d="M17.1544 29.8964C17.1544 30.7077 17.1544 31.519 17.1544 32.3303C17.1544 32.6345 17.053 32.7359 16.8502 32.8373C15.6332 33.3444 14.4163 33.243 13.4022 32.3303C12.388 31.4176 12.0838 30.302 12.4895 28.9837C12.8951 27.6653 13.8078 26.9555 15.1262 26.7526C15.7346 26.6512 16.3431 26.7526 16.8502 27.0569C16.9516 27.1583 17.1544 27.3611 17.1544 27.4625C17.1544 28.2738 17.1544 29.0851 17.1544 29.8964Z" fill="white"/>
<path d="M25.8758 28.7808C25.8758 26.0427 25.8758 23.3046 25.8758 20.5665C25.8758 20.2622 25.7744 20.1608 25.4702 19.958C23.949 19.2481 23.0363 17.9298 23.0363 16.2058C23.0363 14.4818 23.949 13.2648 25.4702 12.4535C25.7744 12.3521 25.8758 12.1493 25.8758 11.845C25.8758 10.5267 25.8758 9.20833 25.8758 7.88998C25.8758 7.07869 26.3829 6.47021 27.1942 6.47021C28.0055 6.47021 28.5126 7.07869 28.5126 7.88998C28.5126 9.20833 28.5126 10.5267 28.5126 11.845C28.5126 12.1493 28.614 12.2507 28.8168 12.3521C30.338 13.062 31.2507 14.2789 31.2507 16.0029C31.2507 17.8283 30.4394 19.0453 28.8168 19.8566C28.5126 19.958 28.4111 20.1608 28.4111 20.465C28.4111 25.9413 28.4111 31.4175 28.4111 36.9952C28.4111 38.1107 27.397 38.7192 26.4843 38.2121C25.9773 37.9079 25.7744 37.5022 25.7744 36.9952C25.8758 34.2571 25.8758 31.5189 25.8758 28.7808ZM28.614 16.2058C28.614 15.3945 27.9041 14.786 27.0928 14.786C26.2815 14.786 25.5716 15.4959 25.5716 16.3072C25.5716 17.1185 26.2815 17.7269 27.0928 17.7269C28.0055 17.6255 28.614 16.9156 28.614 16.2058Z" fill="#2EA7E0"/>
<path d="M36.8283 16.1042C36.8283 18.8423 36.8283 21.5804 36.8283 24.3186C36.8283 24.6228 36.9297 24.7242 37.2339 24.927C38.7551 25.6369 39.6678 26.9553 39.6678 28.6793C39.6678 30.4033 38.7551 31.7216 37.2339 32.4315C36.9297 32.6343 36.8283 32.7357 36.8283 33.1414C36.8283 34.4597 36.8283 35.6767 36.8283 36.995C36.8283 37.8063 36.3212 38.4148 35.5099 38.4148C34.6986 38.4148 34.1916 37.8063 34.1916 36.995C34.1916 35.6767 34.1916 34.2569 34.1916 32.9386C34.1916 32.6343 34.0902 32.5329 33.8873 32.4315C32.2647 31.6202 31.4534 30.4033 31.5549 28.5779C31.6563 26.8539 32.4676 25.7383 33.9887 25.0284C34.293 24.927 34.293 24.7242 34.293 24.5214C34.293 19.0451 34.293 13.4675 34.293 7.99125C34.293 6.97713 35.3071 6.26725 36.2198 6.77431C36.7269 7.07854 36.9297 7.48419 36.9297 7.99125C36.8283 10.628 36.8283 13.3661 36.8283 16.1042ZM36.9297 28.6793C36.9297 27.868 36.2198 27.2595 35.4085 27.2595C34.5972 27.2595 33.8873 27.9694 33.8873 28.7807C33.8873 29.592 34.5972 30.2004 35.4085 30.2004C36.3212 30.2004 36.9297 29.4906 36.9297 28.6793Z" fill="#2EA7E0"/>
<path d="M28.6139 16.2056C28.6139 17.0169 27.904 17.7268 27.1942 17.7268C26.3829 17.7268 25.673 17.1183 25.673 16.307C25.673 15.4957 26.3829 14.7858 27.1942 14.7858C27.904 14.6844 28.6139 15.3943 28.6139 16.2056Z" fill="white"/>
<path d="M36.9297 28.6793C36.9297 29.4906 36.2198 30.2005 35.5099 30.2005C34.6987 30.2005 33.9888 29.592 33.9888 28.7807C33.9888 27.9694 34.6987 27.2595 35.5099 27.2595C36.3212 27.2595 36.9297 27.868 36.9297 28.6793Z" fill="white"/>
</g>
<defs>
<clipPath id="clip0_185_630">
<rect width="44.6212" height="44.6212" fill="white" transform="translate(0.522888 0.182617)"/>
</clipPath>
</defs>
</svg>
