<svg width="46" height="46" viewBox="0 0 46 46" fill="none" xmlns="http://www.w3.org/2000/svg">
<g clip-path="url(#clip0_185_651)">
<path d="M45.3857 4.61445C45.3857 17.8994 45.3857 31.1844 45.3857 44.4693C45.0815 45.1792 44.473 45.4834 43.7631 45.4834C29.9711 45.4834 16.1791 45.4834 2.4885 45.4834C1.57579 45.4834 0.865906 44.875 0.865906 43.8608C0.865906 30.0688 0.865906 16.2768 0.865906 2.58621C0.865906 1.77492 1.06873 1.26786 1.88002 0.963623C6.74779 0.963623 11.717 0.963623 16.5847 0.963623C16.889 1.26786 17.2946 1.57209 17.4974 1.87633C17.9031 2.38339 18.2073 2.89045 18.613 3.39751C18.8158 3.70174 19.0186 3.80315 19.3229 3.80315C27.4358 3.80315 35.6502 3.80315 43.7631 3.80315C44.473 3.60033 45.0815 3.90457 45.3857 4.61445ZM3.50261 3.49892C3.50261 16.581 3.50261 29.6632 3.50261 42.7453C4.51673 42.7453 5.42944 42.7453 6.44356 42.7453C5.83509 36.9648 7.76191 32.4013 13.1367 29.7646C10.2972 26.8236 11.0071 22.8686 13.2382 20.8403C15.4692 18.7107 19.0186 18.5079 21.4525 20.4347C22.7709 21.4488 23.4807 22.8686 23.6836 24.4912C23.9878 26.5194 23.2779 28.2434 21.8582 29.7646C21.9596 29.866 22.061 29.866 22.1624 29.9674C25.7118 31.6914 27.8415 34.4295 28.4499 38.2832C28.6528 39.6015 28.5513 40.9199 28.6528 42.3397C28.6528 42.5425 28.6528 42.6439 28.6528 42.8467C33.3177 42.8467 37.9826 42.8467 42.6476 42.8467C42.6476 33.0098 42.6476 23.2742 42.6476 13.3359C42.4448 13.3359 42.2419 13.3359 42.0391 13.3359C35.7516 13.3359 29.5655 13.3359 23.2779 13.3359C22.568 13.3359 22.1624 13.133 21.7567 12.5246C19.7285 9.58363 17.5989 6.7441 15.5706 3.80315C15.3678 3.60033 15.2664 3.39751 14.8607 3.39751C11.2099 3.39751 7.45768 3.39751 3.80685 3.39751C3.80685 3.49892 3.70544 3.49892 3.50261 3.49892ZM9.08026 42.7453C14.7593 42.7453 20.4384 42.7453 26.016 42.7453C26.016 41.4269 26.1175 40.21 26.016 38.9931C25.509 34.4295 21.2497 31.1844 16.889 31.59C12.6297 31.9956 9.28309 35.3422 9.08026 39.7029C9.08026 40.6157 9.08026 41.7312 9.08026 42.7453ZM42.749 6.33845C35.3459 6.33845 28.0443 6.33845 20.7426 6.33845C20.844 6.54127 20.9454 6.64269 21.0469 6.7441C21.8582 7.96104 22.7709 9.07657 23.5822 10.2935C23.785 10.5977 23.9878 10.6992 24.292 10.6992C30.2753 10.6992 36.3601 10.6992 42.3433 10.6992C42.5462 10.6992 42.6476 10.6992 42.8504 10.6992C42.8504 10.5977 42.8504 10.4963 42.8504 10.3949C42.749 8.97516 42.749 7.65681 42.749 6.33845ZM21.2497 25.2011C21.2497 23.2742 19.6271 21.6516 17.5989 21.6516C15.672 21.6516 13.948 23.2742 13.948 25.3025C13.948 27.2293 15.5706 28.8519 17.5989 28.8519C19.5257 28.8519 21.2497 27.2293 21.2497 25.2011Z" fill="#2EA7E0"/>
<path d="M45.3857 4.61439C45.0815 3.90451 44.473 3.60027 43.6617 3.60027C35.5488 3.60027 27.3344 3.60027 19.2215 3.60027C18.9172 3.60027 18.7144 3.49886 18.5116 3.19463C18.2073 2.68757 17.8017 2.18051 17.396 1.67345C17.0918 1.36921 16.7876 1.06498 16.4833 0.760742C26.1175 0.862154 35.7516 0.862154 45.3857 0.862154C45.3857 2.0791 45.3857 3.39745 45.3857 4.61439Z" fill="white"/>
<path d="M1.77862 0.862183C1.06873 1.16642 0.764498 1.77489 0.764498 2.48477C0.764498 16.2768 0.764498 30.0688 0.764498 43.7594C0.764498 44.6721 1.37297 45.382 2.38709 45.382C16.1791 45.382 29.9711 45.382 43.6617 45.382C44.473 45.382 44.9801 45.1792 45.2843 44.3679C45.2843 44.6721 45.2843 45.0777 45.2843 45.382C30.3768 45.382 15.5706 45.382 0.663086 45.382C0.764498 30.5759 0.764498 15.7697 0.764498 0.862183C1.06873 0.862183 1.47438 0.862183 1.77862 0.862183Z" fill="white"/>
<path d="M3.50262 3.4989C3.70545 3.4989 3.80686 3.4989 3.90827 3.4989C7.5591 3.4989 11.3113 3.4989 14.9622 3.4989C15.2664 3.4989 15.4692 3.60031 15.672 3.90455C17.7003 6.84549 19.8299 9.68502 21.8582 12.626C22.2638 13.133 22.7709 13.4373 23.3793 13.4373C29.6669 13.4373 35.853 13.4373 42.1405 13.4373C42.3434 13.4373 42.5462 13.4373 42.749 13.4373C42.749 23.2742 42.749 33.1112 42.749 42.9481C38.0841 42.9481 33.5205 42.9481 28.7542 42.9481C28.7542 42.7453 28.7542 42.6439 28.7542 42.4411C28.6528 41.1227 28.7542 39.7029 28.5513 38.3846C27.9429 34.5309 25.7118 31.7928 22.2638 30.0688C22.1624 30.0688 22.061 29.9674 21.9596 29.866C23.3793 28.3448 24.0892 26.6208 23.785 24.5926C23.5822 22.97 22.7709 21.5502 21.5539 20.5361C19.12 18.5079 15.5706 18.7107 13.3396 20.9417C11.2099 23.0714 10.5 27.0264 13.2382 29.866C7.76192 32.5027 5.93651 37.0662 6.54498 42.8467C5.53086 42.8467 4.51674 42.8467 3.60404 42.8467C3.50262 29.6632 3.50262 16.581 3.50262 3.4989ZM11.9198 10.5977C11.9198 10.0907 11.9198 9.68502 11.9198 9.27938C11.9198 8.46808 11.3113 7.85961 10.6015 7.85961C9.89157 7.85961 9.2831 8.46808 9.2831 9.38079C9.2831 9.78644 9.2831 10.1921 9.2831 10.6991C8.77604 10.6991 8.37039 10.6991 7.96475 10.6991C7.15345 10.6991 6.54498 11.3076 6.54498 12.0175C6.54498 12.8288 7.15345 13.3359 7.96475 13.3359C8.37039 13.3359 8.77604 13.3359 9.2831 13.3359C9.2831 13.8429 9.2831 14.1471 9.2831 14.5528C9.2831 15.4655 9.79016 16.074 10.6015 16.074C11.4127 16.074 11.9198 15.4655 11.9198 14.5528C11.9198 14.1471 11.9198 13.7415 11.9198 13.3359C12.4269 13.3359 12.8325 13.3359 13.2382 13.3359C14.0495 13.3359 14.6579 12.7274 14.6579 12.0175C14.6579 11.3076 14.0495 10.6991 13.2382 10.6991C12.8325 10.5977 12.3255 10.5977 11.9198 10.5977ZM33.6219 19.522C35.2445 19.522 36.7657 19.522 38.3883 19.522C39.1996 19.522 39.8081 18.9135 39.8081 18.2036C39.8081 17.4937 39.1996 16.8853 38.3883 16.8853C35.2445 16.8853 31.9994 16.8853 28.8556 16.8853C27.9429 16.8853 27.4358 17.4937 27.4358 18.2036C27.4358 18.9135 28.0443 19.522 28.8556 19.522C30.3768 19.522 31.9994 19.522 33.6219 19.522ZM33.6219 22.5643C31.9994 22.5643 30.3768 22.5643 28.7542 22.5643C27.9429 22.5643 27.3344 23.0714 27.3344 23.8827C27.3344 24.5926 27.9429 25.201 28.6528 25.201C31.8979 25.201 35.1431 25.201 38.3883 25.201C39.1996 25.201 39.8081 24.5926 39.8081 23.8827C39.8081 23.1728 39.1996 22.5643 38.3883 22.5643C36.7657 22.5643 35.2445 22.5643 33.6219 22.5643Z" fill="white"/>
<path d="M9.08026 42.7453C9.08026 41.7312 9.08026 40.6156 9.08026 39.6015C9.28308 35.3422 12.6297 31.8942 16.889 31.4886C21.2497 31.0829 25.509 34.3281 26.016 38.8916C26.1175 40.1086 26.016 41.4269 26.016 42.6439C20.4384 42.7453 14.7593 42.7453 9.08026 42.7453Z" fill="white"/>
<path d="M42.749 6.33835C42.749 7.6567 42.749 8.97506 42.749 10.2934C42.749 10.3948 42.749 10.4962 42.749 10.5976C42.5462 10.5976 42.4448 10.5976 42.242 10.5976C36.2587 10.5976 30.1739 10.5976 24.1906 10.5976C23.8864 10.5976 23.6836 10.4962 23.4808 10.192C22.6695 8.97506 21.7568 7.85953 20.9455 6.64259C20.8441 6.54117 20.7426 6.43976 20.6412 6.23694C28.1457 6.33835 35.4474 6.33835 42.749 6.33835Z" fill="white"/>
<path d="M21.2497 25.201C21.2497 27.1279 19.6271 28.8519 17.5989 28.8519C15.6721 28.8519 14.0495 27.2293 13.9481 25.3024C13.9481 23.3756 15.5706 21.6516 17.5989 21.6516C19.5257 21.6516 21.1483 23.2742 21.2497 25.201Z" fill="white"/>
<path d="M11.9198 10.5977C12.4269 10.5977 12.8325 10.5977 13.2382 10.5977C14.0495 10.5977 14.6579 11.2062 14.6579 11.9161C14.6579 12.6259 14.0495 13.2344 13.2382 13.2344C12.8325 13.2344 12.4269 13.2344 11.9198 13.2344C11.9198 13.6401 11.9198 14.0457 11.9198 14.4514C11.9198 15.3641 11.3113 15.9725 10.6015 15.9725C9.79016 15.9725 9.2831 15.3641 9.2831 14.4514C9.2831 14.0457 9.2831 13.6401 9.2831 13.2344C8.77604 13.2344 8.3704 13.2344 7.96475 13.2344C7.15345 13.2344 6.54498 12.6259 6.54498 11.9161C6.54498 11.1048 7.15345 10.5977 7.96475 10.5977C8.3704 10.5977 8.77604 10.5977 9.2831 10.5977C9.2831 10.1921 9.2831 9.685 9.2831 9.27936C9.2831 8.46806 9.89157 7.75818 10.6015 7.75818C11.4128 7.75818 11.9198 8.36665 11.9198 9.17794C11.9198 9.685 11.9198 10.0907 11.9198 10.5977Z" fill="#2EA7E0"/>
<path d="M33.6219 19.522C31.9993 19.522 30.4781 19.522 28.8556 19.522C28.0443 19.522 27.4358 19.0149 27.4358 18.2036C27.4358 17.3923 28.0443 16.8853 28.8556 16.8853C31.9993 16.8853 35.2445 16.8853 38.3883 16.8853C39.1996 16.8853 39.808 17.3923 39.808 18.2036C39.808 19.0149 39.1996 19.522 38.3883 19.522C36.7657 19.522 35.1431 19.522 33.6219 19.522Z" fill="#2EA7E0"/>
<path d="M33.6219 22.5643C35.2445 22.5643 36.8671 22.5643 38.4897 22.5643C39.301 22.5643 39.9095 23.0714 39.9095 23.8827C39.9095 24.5926 39.301 25.201 38.4897 25.201C35.2445 25.201 31.9993 25.201 28.7542 25.201C27.9429 25.201 27.3344 24.5926 27.4358 23.8827C27.4358 23.1728 28.0443 22.5643 28.8556 22.5643C30.3767 22.5643 31.9993 22.5643 33.6219 22.5643Z" fill="#2EA7E0"/>
</g>
<defs>
<clipPath id="clip0_185_651">
<rect width="44.6212" height="44.6212" fill="white" transform="translate(0.764526 0.862183)"/>
</clipPath>
</defs>
</svg>
