<svg width="46" height="46" viewBox="0 0 46 46" fill="none" xmlns="http://www.w3.org/2000/svg">
<g clip-path="url(#clip0_185_605)">
<path d="M21.4078 0.430786C22.422 0.430786 23.3347 0.430786 24.3488 0.430786C24.8558 0.532198 25.3629 0.532198 25.9714 0.63361C30.3321 1.24208 34.1857 2.96608 37.5323 5.90703C43.4142 11.1804 45.9495 17.8736 45.0368 25.7837C44.3269 31.6656 41.386 36.5334 36.721 40.2856C31.6504 44.0379 26.0728 45.5591 19.8867 44.7478C15.5259 44.1393 11.6723 42.4153 8.42712 39.5758C4.26923 36.0263 1.83535 31.4628 0.922644 26.088C0.821232 25.3781 0.71982 24.7696 0.618408 24.1612C0.618408 23.147 0.618408 22.2343 0.618408 21.2202C0.71982 20.7132 0.71982 20.2061 0.821232 19.5976C1.4297 15.2369 3.1537 11.3833 6.09465 8.03667C9.64406 3.9802 14.2076 1.4449 19.5824 0.63361C20.1909 0.63361 20.7994 0.532198 21.4078 0.430786ZM22.929 3.87879C12.585 3.87879 4.16782 12.296 4.16782 22.64C4.16782 32.984 12.585 41.4012 22.929 41.5026C33.273 41.5026 41.7916 33.0854 41.7916 22.7414C41.6902 12.3974 33.273 3.87879 22.929 3.87879Z" fill="#2EA7E0"/>
<path d="M0.618408 24.1612C0.71982 24.7696 0.821232 25.3781 0.922644 25.9866C1.73394 31.3614 4.26923 35.9249 8.42712 39.4743C11.7737 42.3139 15.6274 44.1393 19.8867 44.6463C26.0728 45.4576 31.7518 43.9365 36.6196 40.0828C41.2846 36.432 44.2255 31.5642 44.9354 25.5809C45.9495 17.6708 43.4142 11.079 37.4309 5.7042C34.1857 2.96608 30.3321 1.24208 25.9714 0.63361C25.4643 0.532198 24.9573 0.532198 24.3488 0.430786C31.3462 0.430786 38.2422 0.430786 45.2396 0.430786C45.2396 15.3383 45.2396 30.1445 45.2396 45.052C30.3321 45.052 15.5259 45.052 0.618408 45.052C0.618408 38.0546 0.618408 31.1586 0.618408 24.1612Z" fill="white"/>
<path d="M21.4078 0.430786C20.7994 0.532198 20.1909 0.63361 19.5824 0.735022C14.2076 1.54632 9.64406 3.9802 6.09465 8.13809C3.1537 11.4847 1.4297 15.3383 0.821232 19.699C0.71982 20.2061 0.71982 20.7132 0.618408 21.3216C0.618408 14.3242 0.618408 7.32679 0.618408 0.430786C7.51441 0.430786 14.5118 0.430786 21.4078 0.430786Z" fill="white"/>
<path d="M22.929 3.87878C33.273 3.87878 41.6902 12.3974 41.6902 22.64C41.6902 32.984 33.1716 41.5026 22.8276 41.4012C12.4836 41.4012 4.06641 32.8826 4.06641 22.5386C4.16782 12.3974 12.585 3.87878 22.929 3.87878ZM14.4104 19.0906C14.4104 18.9891 14.5118 18.8877 14.5118 18.7863C16.5401 13.9186 22.5234 11.7889 27.1883 14.2228C29.2165 15.2369 30.7377 16.8595 31.6504 18.9891C32.0561 20.0033 33.0702 20.4089 33.9829 20.0033C34.8956 19.5976 35.3013 18.5835 34.7942 17.5694C34.2871 16.5553 33.7801 15.5411 33.0702 14.7299C29.2165 9.55785 21.6107 8.23949 16.1344 11.7889C13.8019 13.3101 12.0779 15.3383 11.0638 17.975C10.9624 18.2793 10.861 18.3807 10.5568 18.2793C10.2525 18.1779 9.94829 18.1779 9.54265 18.0764C9.137 17.975 8.73135 17.975 8.42712 18.3807C8.12288 18.7863 8.22429 19.192 8.42712 19.5976C9.23841 20.8146 9.94829 22.0315 10.6582 23.2484C11.0638 23.9583 11.5709 24.0597 12.1794 23.5527C13.3963 22.8428 14.6132 22.0315 15.8302 21.3216C16.2358 21.1188 16.4387 20.8146 16.4387 20.3075C16.3372 19.8004 16.033 19.5976 15.5259 19.4962C15.2217 19.2934 14.8161 19.192 14.4104 19.0906ZM31.4476 26.8993C29.9264 30.3473 25.87 32.8826 21.4078 31.9699C18.2641 31.3614 16.033 29.536 14.6132 26.595C14.5118 26.2908 14.309 25.9866 14.0048 25.7837C13.3963 25.2767 12.4836 25.2767 11.8751 25.6823C11.1652 26.1894 10.9624 27.1021 11.3681 27.9134C13.4977 32.7812 18.4669 35.9249 23.8417 35.5193C27.6954 35.3165 30.8391 33.5925 33.273 30.5501C33.9829 29.6374 34.49 28.7247 35.0984 27.7106C35.5041 27.812 35.9097 27.9134 36.4168 28.0148C36.8224 28.1162 37.1267 28.0148 37.4309 27.7106C37.7351 27.3049 37.6337 27.0007 37.4309 26.595C36.6196 25.2767 35.9097 24.0597 35.0984 22.7414C34.7942 22.1329 34.2871 22.0315 33.6787 22.3357C32.3603 23.0456 31.1434 23.8569 29.825 24.6682C29.4194 24.871 29.2165 25.1753 29.318 25.6823C29.4194 26.088 29.7236 26.2908 30.1293 26.3922C30.4335 26.595 30.9405 26.7979 31.4476 26.8993Z" fill="white"/>
<path d="M14.4105 19.0905C14.8161 19.1919 15.2218 19.2933 15.7288 19.3947C16.1345 19.4962 16.5401 19.699 16.6415 20.206C16.7429 20.7131 16.4387 21.0173 16.0331 21.2202C14.8161 21.93 13.5992 22.7413 12.3822 23.4512C11.6724 23.8569 11.2667 23.7555 10.8611 23.147C10.0498 21.93 9.33988 20.7131 8.63 19.4962C8.42718 19.0905 8.32577 18.6849 8.63 18.2792C8.93424 17.8736 9.33988 17.8736 9.74553 17.975C10.0498 18.0764 10.354 18.0764 10.7596 18.1778C11.0639 18.2792 11.1653 18.1778 11.2667 17.8736C12.2808 15.2369 14.0048 13.2086 16.3373 11.6874C21.6107 8.23944 29.2166 9.5578 33.0703 14.7298C33.7801 15.6425 34.2872 16.6566 34.7943 17.5693C35.3013 18.5835 34.8957 19.5976 33.983 20.0032C33.0703 20.4089 32.0561 20.0032 31.6505 18.9891C30.7378 16.8594 29.318 15.2369 27.1884 14.2227C22.5234 11.8903 16.5401 14.0199 14.5119 18.7863C14.4105 18.8877 14.4105 18.9891 14.4105 19.0905Z" fill="#2EA7E0"/>
<path d="M31.4476 26.8992C30.9406 26.7978 30.5349 26.6964 30.0279 26.4936C29.6222 26.3922 29.318 26.1894 29.2166 25.7837C29.1152 25.2767 29.318 24.9724 29.7236 24.7696C31.042 23.9583 32.2589 23.2484 33.5773 22.4371C34.1858 22.1329 34.5914 22.2343 34.9971 22.8428C35.8084 24.1611 36.5182 25.3781 37.3295 26.6964C37.5324 27.1021 37.6338 27.4063 37.3295 27.812C37.0253 28.1162 36.7211 28.2176 36.3154 28.1162C35.8084 28.0148 35.4027 27.9134 34.9971 27.812C34.3886 28.8261 33.8815 29.7388 33.1716 30.6515C30.8392 33.6938 27.6954 35.4178 23.7403 35.6207C18.3655 35.9249 13.3963 32.8825 11.2667 28.0148C10.861 27.2035 11.0639 26.2908 11.7737 25.7837C12.3822 25.2767 13.2949 25.2767 13.9034 25.8851C14.1062 26.088 14.309 26.3922 14.5119 26.6964C15.9316 29.6374 18.1627 31.4628 21.3065 32.0713C25.87 32.7811 29.8251 30.3472 31.4476 26.8992Z" fill="#2EA7E0"/>
</g>
<defs>
<clipPath id="clip0_185_605">
<rect width="44.6212" height="44.6212" fill="white" transform="translate(0.618408 0.430786)"/>
</clipPath>
</defs>
</svg>
