<svg width="16" height="18" viewBox="0 0 16 18" fill="none" xmlns="http://www.w3.org/2000/svg">
<path d="M14.5443 10.6796L14.174 11.3276C13.7137 12.1331 13.1277 12.8599 12.4381 13.4806L8.05034 17.4295L3.66256 13.4806C2.973 12.8599 2.38699 12.1331 1.92671 11.3276L1.5564 10.6796C0.835364 9.41775 0.555471 7.95159 0.761011 6.51288C0.909082 5.47634 1.30405 4.49055 1.91265 3.63853L2.15361 3.30116C3.15462 1.89975 4.62202 0.900658 6.2928 0.482962C7.44674 0.194481 8.65394 0.194481 9.80787 0.482962C11.4787 0.900658 12.9461 1.89975 13.947 3.30116L14.1881 3.63853C14.7966 4.49055 15.1916 5.47634 15.3397 6.51288C15.5452 7.95159 15.2654 9.41775 14.5443 10.6796ZM8.05034 11.7074C10.2907 11.7074 12.1069 9.89117 12.1069 7.65075C12.1069 5.41035 10.2907 3.59415 8.05034 3.59415C5.80994 3.59415 3.99372 5.41035 3.99372 7.65075C3.99372 9.89117 5.80994 11.7074 8.05034 11.7074Z" fill="#2EA7E0"/>
</svg>
