<svg width="18" height="18" viewBox="0 0 18 18" fill="none" xmlns="http://www.w3.org/2000/svg">
<path d="M14.9878 14.0383L12.6906 12.2307C12.2199 11.8541 11.542 11.9294 11.1466 12.3813C10.7324 12.852 10.4687 13.1721 10.3746 13.2475C9.6779 13.9441 8.22803 12.9273 6.684 11.3833C5.13997 9.8393 4.14201 8.40825 4.8387 7.71155C4.91402 7.63623 5.23412 7.35379 5.70486 6.93954C6.15677 6.54412 6.23209 5.86625 5.8555 5.39551L4.04786 3.0983C3.72776 2.70288 3.1817 2.57108 2.72979 2.75937C2.10841 3.02299 0.997466 3.94564 0.696192 4.24691C-0.960811 5.92274 1.11044 9.72632 4.72572 13.3604C8.341 16.9945 12.1634 19.0658 13.8204 17.39C14.1217 17.0887 15.0443 15.9777 15.3079 15.3564C15.5151 14.8856 15.3833 14.3584 14.9878 14.0383Z" fill="#2EA7E0"/>
<path d="M9.33883 5.96057C8.84926 5.84759 8.37852 6.22418 8.41618 6.73258C8.43501 7.05269 8.67979 7.3163 8.98107 7.41045C9.37649 7.5046 9.75308 7.71172 10.0544 8.013C10.3556 8.31427 10.5628 8.69086 10.6569 9.08628C10.7322 9.40638 10.9958 9.63234 11.3348 9.65117C11.8432 9.68883 12.2198 9.21809 12.1068 8.72852C11.975 8.08831 11.636 7.46694 11.1276 6.95854C10.6192 6.45014 9.99787 6.11121 9.33883 5.96057Z" fill="#2EA7E0"/>
<path d="M14.3091 9.87735C14.761 9.91501 15.1376 9.51959 15.0999 9.06768C14.9681 7.56131 14.3279 6.07378 13.1793 4.92517C12.0307 3.77657 10.5431 3.13636 9.03677 3.00455C8.58486 2.96689 8.18944 3.34349 8.2271 3.7954C8.24593 4.15316 8.52837 4.45443 8.90496 4.49209C10.0912 4.58624 11.2398 5.09464 12.1248 5.99846C13.0286 6.90228 13.5182 8.05088 13.6312 9.21832C13.6312 9.57608 13.9325 9.85852 14.3091 9.87735Z" fill="#2EA7E0"/>
<path d="M15.2145 2.87242C13.4256 1.10244 11.1096 0.160956 8.75591 0.0856381C8.32283 0.0668085 7.96507 0.4434 8.00273 0.87648C8.02156 1.25307 8.34166 1.55435 8.71825 1.57317C10.6954 1.64849 12.6536 2.43934 14.1412 3.9457C15.6475 5.45207 16.4384 7.41035 16.4949 9.36862C16.5137 9.74521 16.7961 10.0653 17.1916 10.0841C17.6246 10.1218 18.0012 9.76404 17.9824 9.33096C17.9259 6.97726 16.9844 4.66123 15.2145 2.87242Z" fill="#2EA7E0"/>
</svg>
