<svg width="65" height="66" viewBox="0 0 65 66" fill="none" xmlns="http://www.w3.org/2000/svg">
<g clip-path="url(#clip0_298_1450)">
<path d="M0 6.39203C0 4.53005 0 2.66807 0 0.806091C8.29427 0.806091 16.5885 0.806091 24.8828 0.806091C24.6289 0.8738 24.3581 0.941508 24.1042 1.00922C20.9219 1.75401 18.1289 3.32823 15.4714 5.1225C12.4245 7.17067 10.9857 11.03 11.8828 14.6017C12.0182 15.1603 12.0013 15.5665 11.4258 15.9558C11.3073 15.8035 11.1888 15.6173 11.0365 15.4649C10.3594 14.7709 9.66537 14.0769 8.97135 13.3998C8.36198 12.7905 7.83724 12.7058 7.38021 13.1629C6.92318 13.603 7.00781 14.1785 7.63411 14.8048C7.6849 14.8556 7.71875 14.8894 7.76953 14.9402C10.3932 17.5639 13 20.1876 15.6237 22.7944C16.8932 24.0639 17.7904 25.5366 17.9258 27.3308C18.1966 30.767 18.3659 34.2032 18.5352 37.6563C18.5859 38.8074 17.7904 39.8569 16.7409 40.1446C16.0807 40.3308 15.9453 40.2631 15.9115 39.5691C15.8099 37.8595 15.7253 36.1498 15.6237 34.4402C15.5221 32.629 15.4206 30.8009 15.2852 28.9897C15.2344 28.3465 14.7773 27.9741 14.2526 28.0248C13.7109 28.0756 13.3385 28.5157 13.3555 29.142C13.3724 29.6837 13.4401 30.2423 13.457 30.784C13.6263 33.8816 13.7956 36.9962 13.9987 40.0939C14.0326 40.5509 14.2188 41.0756 14.5234 41.4142C15.8099 42.7853 17.1471 44.1056 18.5013 45.4259C19.0768 45.9845 20.0247 45.6798 20.0924 44.9181C20.1263 44.5965 19.9063 44.1902 19.6862 43.9363C19.0599 43.2423 18.349 42.5991 17.6549 41.905C19.5508 40.9402 20.5156 39.4845 20.431 37.4363C20.3464 35.5743 20.2617 33.7123 20.1602 31.8673C20.0755 30.2931 19.9401 28.7019 19.8555 27.1277C19.8385 26.9246 19.9401 26.6707 20.0586 26.5014C20.8711 25.4011 21.6667 24.267 22.5469 23.2175C25.1029 20.1707 28.1497 17.784 31.9076 16.379C32.263 16.2436 32.7539 16.2267 33.1094 16.3621C34.2096 16.7853 35.3099 17.2254 36.3424 17.8009C40.0664 19.9168 42.707 23.116 45.043 26.6199C45.1276 26.7553 45.1445 26.9754 45.1445 27.1446C45.0938 28.3465 44.9922 29.5483 44.9583 30.7501C44.9414 31.3425 45.3307 31.7488 45.8555 31.7657C46.3633 31.7996 46.8034 31.3764 46.8542 30.8178C46.9049 30.1407 46.9727 29.4636 46.9727 28.7866C46.9727 26.3321 47.8867 24.3009 49.6471 22.5743C54.4883 17.784 59.2956 12.9428 64.1029 8.13552C64.4076 7.83083 64.7122 7.49229 65.0169 7.1876C65.0169 12.435 65.0169 17.6824 65.0169 22.9298C64.2891 22.2358 63.849 22.2019 63.2396 22.7944C61.3438 24.6733 59.4648 26.5522 57.5859 28.448C56.9089 29.1251 56.4857 29.9376 56.3672 30.9024C56.0286 33.4077 55.6563 35.9129 55.3854 38.435C55.2162 39.9415 54.7422 41.211 53.5911 42.2774C51.9492 43.8009 50.4089 45.4259 48.8177 47.017C47.599 48.2358 46.3971 49.4376 45.1784 50.6563C44.7552 51.0795 44.2812 51.3673 43.6549 51.1811C42.5547 50.8425 42.3346 49.6407 43.2148 48.7605C45.5169 46.4415 47.819 44.1394 50.1211 41.8543C50.7305 41.2618 51.0013 40.5678 51.0521 39.7045C51.2044 36.5392 51.4076 33.3738 51.5938 30.2084C51.6107 29.8022 51.6784 29.4129 51.6615 29.0066C51.6445 28.4819 51.2214 28.0418 50.7305 28.0587C50.2227 28.0756 49.8503 28.3295 49.7487 28.8712C49.7148 29.0405 49.6979 29.2097 49.681 29.379C49.5794 31.1225 49.4779 32.8829 49.3932 34.6433C49.3086 36.3191 49.207 37.978 49.1055 39.6537C49.0716 40.297 48.9362 40.3816 48.3099 40.2123C47.1927 39.9077 46.431 38.7735 46.4818 37.4702C46.5156 36.7592 46.5664 36.0313 46.5833 35.3204C46.6003 34.728 46.2109 34.3217 45.6862 34.3048C45.1784 34.2709 44.7383 34.6772 44.7044 35.2527C44.6536 36.116 44.5859 36.9793 44.5859 37.8425C44.5859 39.3491 45.2461 40.517 46.431 41.4142C46.7018 41.6173 46.9896 41.7696 47.3281 41.9728C44.4336 44.7149 41.8776 47.7787 38.6276 50.0808C37.4427 50.9272 36.1732 51.655 34.8867 52.3321C33.3125 53.1616 31.6706 53.1616 30.0794 52.3152C28.9961 51.7397 27.8958 51.1811 26.9141 50.4701C25.5768 49.5053 24.3411 48.405 23.0885 47.3556C22.3945 46.78 21.4635 46.9832 21.3958 47.7957C21.362 48.1342 21.6159 48.5405 21.8529 48.8282C22.4453 49.5561 22.513 50.284 21.9375 50.8764C21.362 51.4688 20.5495 51.435 19.8724 50.7579C16.8594 47.7618 13.8294 44.7657 10.8841 41.7188C10.3594 41.1772 9.95313 40.3647 9.81771 39.6199C9.41146 37.267 9.1237 34.8972 8.88672 32.5274C8.70052 30.6147 8.10807 29.0066 6.63542 27.6863C4.99349 26.2136 3.50391 24.5886 1.94661 23.0483C1.15104 22.2527 0.778646 22.2527 0 22.9975C0 17.7501 0 12.5027 0 7.25531C1.37109 8.54177 2.74219 9.94672 4.14714 11.3178C4.6888 11.8595 5.41667 11.741 5.73828 11.1147C5.99219 10.6238 5.78906 10.2175 5.43359 9.86208C4.2487 8.67719 3.08073 7.50922 1.89583 6.32432C1.15104 5.61338 0.69401 5.63031 0 6.39203ZM34.4805 46.7293C35.2083 46.5261 35.8854 46.3738 36.5286 46.1199C37.1042 45.8998 37.2904 45.392 37.0703 44.8842C36.8503 44.3595 36.3424 44.1225 35.7669 44.3764C34.9036 44.7488 34.0742 44.6303 33.1771 44.4272C32.5677 44.2918 31.8737 44.2918 31.2643 44.4272C30.3672 44.6303 29.5378 44.7319 28.6745 44.3764C28.099 44.1394 27.5911 44.3764 27.3711 44.9011C27.168 45.392 27.3372 45.9168 27.9297 46.1199C28.5729 46.3569 29.2839 46.6446 29.9271 46.5769C31.4844 46.4076 33.0078 46.0353 34.4805 46.7293ZM26.0339 26.823C26.0169 26.7722 26 26.7045 25.9831 26.6537C24.612 26.9754 23.2409 27.2801 21.8867 27.6524C21.3958 27.7879 21.1758 28.228 21.2773 28.7527C21.3958 29.2605 21.819 29.5652 22.3607 29.4806C22.6146 29.4467 22.8516 29.3452 23.0885 29.2774C24.9844 28.685 26.8633 28.448 28.7422 29.379C29.3177 29.6668 29.8255 29.4298 30.0625 28.905C30.2826 28.4142 30.0964 27.9064 29.5378 27.6524C28.4544 27.1108 27.2865 26.8061 26.0339 26.823ZM43.7396 28.2957C43.5534 28.1433 43.2995 27.7371 42.944 27.6186C41.9622 27.297 40.9635 27.0261 39.9479 26.8907C38.3906 26.6707 36.8841 26.9415 35.4622 27.6355C34.8867 27.9233 34.6836 28.4142 34.9206 28.9389C35.1576 29.4467 35.6484 29.616 36.2578 29.379C36.3086 29.3621 36.3763 29.3282 36.4271 29.3113C37.5443 28.8204 38.7122 28.5665 39.931 28.8373C40.7435 29.0235 41.556 29.2267 42.3854 29.4298C43.1302 29.6329 43.7396 29.2097 43.7396 28.2957ZM24.9844 35.4389C25.8307 35.3373 26.3893 35.3035 26.9479 35.2019C27.3372 35.1342 27.7266 34.9988 28.099 34.8634C28.6914 34.6433 28.9622 34.1524 28.776 33.6277C28.6068 33.1199 28.082 32.8491 27.4896 33.0522C26 33.5769 24.5273 33.5769 23.0378 33.0522C22.4453 32.8491 21.9206 33.103 21.7513 33.6108C21.5651 34.1355 21.819 34.6772 22.4115 34.8465C23.3424 35.1004 24.2904 35.2696 24.9844 35.4389ZM39.7109 35.4897C40.6758 35.2696 41.6237 35.1004 42.5547 34.8465C43.1979 34.6603 43.4518 34.1186 43.2318 33.5769C43.0456 33.0691 42.5208 32.8491 41.9284 33.0522C40.4557 33.56 39 33.56 37.5273 33.0522C36.9349 32.8491 36.4271 33.0691 36.224 33.5938C36.0208 34.1355 36.2747 34.6772 36.918 34.8634C37.832 35.1004 38.763 35.2696 39.7109 35.4897ZM32.3138 41.5665C33.1432 41.3803 33.9557 41.2618 34.7344 41.0248C35.3607 40.8386 35.6146 40.3647 35.4453 39.823C35.276 39.2475 34.7852 38.9936 34.125 39.2136C32.9063 39.6368 31.6875 39.6199 30.4688 39.2136C29.8255 38.9936 29.3346 39.2644 29.1654 39.8399C29.013 40.3647 29.2669 40.8556 29.8932 41.0248C30.6888 41.2449 31.4844 41.3972 32.3138 41.5665Z" fill="white"/>
<path d="M65 23.6577C65 37.7071 65 51.7566 65 65.8061C62.1224 65.8061 59.2448 65.8061 56.3672 65.8061C57.0104 65.0613 57.0443 64.8412 56.5703 63.961C55.2331 61.4897 53.2018 59.9324 50.4088 59.4584C47.5482 58.9675 44.6706 58.5274 41.793 58.0535C40.388 57.8334 39.4909 56.8178 39.474 55.4129C39.474 54.3634 39.457 53.297 39.474 52.2475C39.474 52.0613 39.5417 51.8074 39.6602 51.6889C40.0156 51.3673 40.4049 51.0965 40.8112 50.7918C40.8958 50.961 40.9466 51.0795 40.9974 51.1811C42.013 53.297 44.6198 53.8217 46.2956 52.1798C49.4271 49.0991 52.5247 45.9675 55.6224 42.853C56.4349 42.0405 56.9258 41.0248 57.0781 39.8907C57.4167 37.5379 57.7552 35.1681 57.9753 32.7983C58.1276 31.1564 58.5846 29.7514 59.9388 28.7358C60.2604 28.4988 60.5143 28.1772 60.8021 27.8894C62.224 26.4845 63.612 25.0795 65 23.6577Z" fill="white"/>
<path d="M8.63281 65.8061C5.75521 65.8061 2.8776 65.8061 0 65.8061C0 51.7566 0 37.7071 0 23.6577C0.203125 23.8946 0.40625 24.1316 0.643229 24.3517C2.36979 26.0952 4.11328 27.8217 5.83984 29.5483C6.34766 30.0561 6.6862 30.6316 6.77083 31.3595C7.07552 33.8478 7.46484 36.336 7.73568 38.8243C7.92188 40.6186 8.53125 42.159 9.88542 43.4116C10.918 44.3764 11.8997 45.409 12.8984 46.4077C14.8112 48.3204 16.707 50.2501 18.6536 52.1459C20.3633 53.8048 22.9701 53.3308 24.0026 51.1811C24.0534 51.0626 24.1211 50.9441 24.2057 50.7918C24.4766 50.9949 24.6966 51.2149 24.9505 51.3504C25.4245 51.6212 25.5768 51.9936 25.543 52.5522C25.4922 53.5001 25.543 54.448 25.526 55.4129C25.5091 56.767 24.6628 57.8165 23.3255 58.0366C20.6172 58.4936 17.9089 58.9337 15.2005 59.323C12.1706 59.7631 9.88542 61.2358 8.42969 63.9441C7.95573 64.8412 7.98958 65.0613 8.63281 65.8061Z" fill="white"/>
<path d="M40.1172 0.806091C48.4115 0.806091 56.7057 0.806091 65 0.806091C65 2.66807 65 4.53005 65 6.39203C64.306 5.61338 63.849 5.61338 63.1042 6.34125C60.0573 9.3712 57.0274 12.4181 53.9974 15.448C53.8451 15.6004 53.6758 15.7527 53.5065 15.9051C53.0495 15.5496 52.9818 15.1603 53.1172 14.6186C53.5065 13.1967 53.4557 11.741 53.1003 10.3022C52.3216 7.17067 50.1888 5.24099 47.4466 3.83604C46.9557 3.58213 46.5326 3.73448 46.2279 4.17458C45.9232 4.59776 46.0248 5.13942 46.4649 5.46104C46.9727 5.83344 47.5313 6.13812 48.0729 6.47666C49.6641 7.47536 50.7136 8.88031 51.2044 10.7084C51.4583 11.6733 51.4583 12.6381 51.3399 13.7553C50.9167 13.4337 50.5951 13.2136 50.2735 12.9767C48.9193 11.961 47.582 10.9285 46.2279 9.92979C45.7539 9.57432 45.2123 9.65896 44.8737 10.0821C44.5352 10.5053 44.6029 11.0301 45.0599 11.4363C45.1784 11.5548 45.3307 11.6394 45.4662 11.741C47.0235 12.909 48.5977 14.06 50.1042 15.2787C50.849 15.8712 51.4753 16.616 52.1185 17.2592C49.9857 19.7475 47.3451 21.5079 45.8724 24.4024C42.7409 19.9676 39.0508 16.3113 33.8373 14.517C33.9388 14.2462 34.0235 14.0769 34.0742 13.9077C34.3112 13.0782 34.582 12.2488 34.7513 11.4024C35.056 9.79437 34.5651 8.35557 33.6511 7.03526C33.0078 6.10427 32.7539 5.10557 33.0586 3.97146C33.1602 3.59906 33.3125 3.41286 33.7188 3.32823C36.6979 2.73578 39.6771 2.27875 42.6055 3.58213C42.7748 3.64984 42.9779 3.6837 43.1641 3.66677C43.638 3.61599 43.9427 3.3113 44.0104 2.85427C44.0781 2.34646 43.8242 1.97406 43.3503 1.82172C42.3008 1.44932 41.2005 1.12771 40.1172 0.806091Z" fill="white"/>
<path d="M40.1172 0.806112C41.2005 1.12773 42.3008 1.44934 43.3672 1.78788C43.8412 1.94023 44.0951 2.31262 44.0274 2.82043C43.9596 3.27747 43.655 3.58215 43.181 3.63293C42.9948 3.64986 42.7917 3.63293 42.6224 3.5483C39.694 2.24491 36.7149 2.70194 33.7357 3.29439C33.3294 3.37903 33.1771 3.56523 33.0755 3.93762C32.7708 5.07174 33.0248 6.07043 33.668 7.00142C34.5651 8.32174 35.0729 9.76054 34.7682 11.3686C34.6159 12.215 34.3281 13.0444 34.0912 13.8738C34.0404 14.06 33.9557 14.2293 33.8542 14.4832C39.0677 16.2775 42.7578 19.9337 45.8893 24.3686C47.3451 21.4741 50.0026 19.7137 52.1354 17.2254C51.4753 16.5652 50.849 15.8374 50.1211 15.2449C48.6146 14.0262 47.0235 12.8751 45.4831 11.7072C45.3477 11.6056 45.2122 11.504 45.0768 11.4025C44.6367 10.9962 44.569 10.4715 44.8906 10.0483C45.2292 9.62512 45.7708 9.54049 46.2448 9.89596C47.599 10.8947 48.9531 11.9272 50.2904 12.9428C50.612 13.1798 50.9336 13.4168 51.3568 13.7215C51.4753 12.6212 51.4922 11.6394 51.2214 10.6746C50.7305 8.8634 49.681 7.45846 48.0899 6.44283C47.5482 6.10429 46.9896 5.7996 46.4818 5.42721C46.0248 5.10559 45.9401 4.56392 46.2448 4.14075C46.5495 3.70064 46.9896 3.5483 47.4636 3.80221C50.1888 5.20715 52.3386 7.13684 53.1172 10.2684C53.4727 11.7072 53.5065 13.1629 53.1341 14.5848C52.9818 15.1434 53.0495 15.5157 53.5234 15.8712C53.6758 15.7189 53.8451 15.5665 54.0143 15.4142C57.0443 12.3842 60.0912 9.33736 63.1211 6.30741C63.8659 5.57955 64.3229 5.57955 65.0169 6.35819C65.0169 6.6121 65.0169 6.86601 65.0169 7.11991C64.7123 7.44153 64.4076 7.76314 64.1029 8.06783C59.2787 12.892 54.4883 17.7163 49.6471 22.5066C47.9037 24.2332 46.9896 26.2644 46.9727 28.7189C46.9727 29.396 46.905 30.073 46.8542 30.7501C46.8034 31.3087 46.3633 31.715 45.8555 31.698C45.3307 31.6642 44.9414 31.2579 44.9583 30.6824C45.0091 29.4806 45.0938 28.2788 45.1445 27.0769C45.1445 26.9077 45.1445 26.6876 45.043 26.5522C42.707 23.0483 40.0664 19.8491 36.3425 17.7332C35.3268 17.1577 34.2096 16.7176 33.1094 16.2944C32.7539 16.159 32.263 16.1759 31.9076 16.3113C28.1498 17.7163 25.1029 20.1199 22.5469 23.1499C21.6667 24.1993 20.8711 25.3335 20.0586 26.4337C19.9401 26.603 19.8386 26.8569 19.8555 27.06C19.9401 28.6512 20.0586 30.2254 20.1602 31.7996C20.2617 33.6616 20.3633 35.5236 20.431 37.3686C20.5156 39.4337 19.5508 40.8725 17.655 41.8374C18.3659 42.5314 19.0599 43.1577 19.6862 43.8686C19.9232 44.1225 20.1263 44.5457 20.0925 44.8504C20.0248 45.629 19.0768 45.9168 18.5013 45.3582C17.1471 44.0548 15.8099 42.7176 14.5234 41.3465C14.2188 41.0249 14.0156 40.4832 13.9987 40.0262C13.7787 36.9285 13.6263 33.8139 13.457 30.7163C13.4232 30.1746 13.3555 29.616 13.3555 29.0743C13.3386 28.448 13.7109 28.0079 14.2526 27.9571C14.7774 27.9064 15.2344 28.2957 15.2852 28.922C15.4206 30.7332 15.5221 32.5444 15.6237 34.3725C15.7253 36.0822 15.8099 37.7918 15.9115 39.5014C15.9453 40.1954 16.0807 40.2631 16.7409 40.0769C17.7904 39.7723 18.5859 38.7228 18.5352 37.5887C18.3659 34.1525 18.1797 30.6993 17.9258 27.2631C17.7904 25.4689 16.8932 23.9962 15.6237 22.7267C13 20.1199 10.3932 17.4962 7.76954 14.8725C7.71876 14.8217 7.68491 14.7879 7.63412 14.7371C7.00782 14.1108 6.92319 13.5353 7.38022 13.0952C7.83725 12.6551 8.34506 12.7228 8.97136 13.3322C9.66537 14.0262 10.3594 14.7032 11.0365 15.3973C11.1888 15.5496 11.3073 15.7358 11.4258 15.8881C12.0013 15.4988 12.0352 15.0926 11.8828 14.534C10.9857 10.9793 12.4245 7.10299 15.4714 5.05481C18.1458 3.26054 20.9219 1.66939 24.1042 0.941528C24.375 0.87382 24.6289 0.806112 24.8828 0.738403C25.9492 0.738403 26.9987 0.738403 28.0651 0.738403C29.03 0.907674 30.0117 1.02616 30.9596 1.22929C31.9414 1.44934 32.8724 1.51705 33.8542 1.26314C34.8529 0.99231 35.9024 0.907674 36.9349 0.738403C38.0013 0.806112 39.0677 0.806112 40.1172 0.806112ZM19.0938 24.3855C19.1784 24.3178 19.2123 24.3009 19.2292 24.267C22.4284 19.8491 26.3216 16.2944 31.5521 14.3986C31.6706 14.3478 31.8229 14.2462 31.8737 14.1277C32.8555 12.0795 33.4987 10.0652 31.9922 7.91549C31.4675 7.17069 31.2136 6.18892 31.0274 5.29179C30.8919 4.68241 31.0951 4.00533 31.1628 3.32825C30.638 3.22668 30.0964 3.09127 29.5716 3.02356C27.8789 2.82043 26.1693 2.51575 24.4766 2.922C21.4297 3.66679 18.7721 5.20715 16.2331 6.96757C14.9297 7.88163 14.1511 9.2358 13.7617 10.7762C13.5248 11.7241 13.5248 12.672 13.6602 13.7384C14.2526 13.2983 14.7266 12.9428 15.2175 12.5704C16.3854 11.6902 17.5534 10.81 18.7044 9.92981C19.0768 9.64205 19.5169 9.54049 19.8555 9.8621C20.0925 10.0991 20.2787 10.5053 20.2617 10.8269C20.2448 11.0978 19.9232 11.4025 19.6693 11.5887C18.0951 12.8243 16.4531 14.0092 14.8958 15.2618C14.1511 15.8543 13.5248 16.5991 12.8815 17.2423C14.9974 19.7306 17.6719 21.491 19.0938 24.3855Z" fill="#2EA7E0"/>
<path d="M8.63281 65.8061C7.98958 65.0613 7.95573 64.8413 8.42969 63.9611C9.88542 61.2527 12.1875 59.7801 15.2005 59.34C17.9089 58.9506 20.6172 58.4936 23.3255 58.0535C24.6628 57.8335 25.5091 56.784 25.526 55.4298C25.526 54.4819 25.4922 53.5171 25.543 52.5691C25.5768 52.0275 25.4245 51.6382 24.9505 51.3673C24.6966 51.2319 24.4766 51.0118 24.2057 50.8087C24.138 50.9611 24.0703 51.0796 24.0026 51.198C22.9701 53.3309 20.3633 53.8217 18.6536 52.1629C16.724 50.2671 14.8281 48.3374 12.8984 46.4246C11.8997 45.4259 10.9349 44.3934 9.88542 43.4285C8.53125 42.1759 7.9388 40.6355 7.73568 38.8413C7.46484 36.353 7.09245 33.8647 6.77083 31.3764C6.6862 30.6486 6.34766 30.073 5.83984 29.5652C4.09635 27.8217 2.36979 26.0952 0.643229 24.3517C0.423177 24.1316 0.220052 23.8947 0 23.6577C0 23.4038 0 23.1499 0 22.896C0.778646 22.1512 1.16797 22.1512 1.94661 22.9467C3.50391 24.504 4.99349 26.129 6.63542 27.5848C8.10807 28.9051 8.70052 30.5301 8.88672 32.4259C9.10677 34.7957 9.41146 37.1655 9.81771 39.5184C9.9362 40.2632 10.3594 41.0757 10.8841 41.6173C13.8464 44.6642 16.8763 47.6603 19.8724 50.6564C20.5495 51.3335 21.362 51.3673 21.9375 50.7749C22.4961 50.1994 22.4453 49.4546 21.8529 48.7267C21.6159 48.4389 21.362 48.0327 21.3958 47.6941C21.4635 46.8816 22.3945 46.6616 23.0885 47.254C24.3581 48.3035 25.5938 49.4038 26.9141 50.3686C27.8958 51.0796 28.9961 51.6551 30.0794 52.2137C31.6706 53.0431 33.3125 53.06 34.8867 52.2306C36.1732 51.5535 37.4427 50.8257 38.6276 49.9793C41.8776 47.6772 44.4167 44.6134 47.3281 41.8712C46.9896 41.6681 46.7018 41.5158 46.431 41.3126C45.2461 40.4324 44.569 39.2475 44.5859 37.741C44.5859 36.8777 44.6536 36.0145 44.7044 35.1512C44.7383 34.5757 45.1784 34.1863 45.6862 34.2033C46.2279 34.2371 46.6003 34.6264 46.5833 35.2189C46.5664 35.9298 46.5156 36.6577 46.4818 37.3686C46.431 38.672 47.1758 39.8061 48.3099 40.1108C48.9362 40.2801 49.0716 40.1954 49.1055 39.5522C49.207 37.8934 49.2917 36.2176 49.3932 34.5418C49.4948 32.7814 49.5794 31.0379 49.681 29.2775C49.6979 29.1082 49.7148 28.9389 49.7487 28.7697C49.8333 28.228 50.2057 27.9741 50.7305 27.9572C51.2214 27.9402 51.6445 28.3803 51.6615 28.9051C51.6784 29.3113 51.6107 29.7007 51.5938 30.1069C51.4076 33.2723 51.2214 36.4376 51.0521 39.603C51.0182 40.4494 50.7305 41.1434 50.1211 41.7527C47.8021 44.0379 45.5 46.3569 43.2148 48.659C42.3346 49.5561 42.5547 50.741 43.6549 51.0796C44.2812 51.2827 44.7552 50.9949 45.1784 50.5548C46.3971 49.3361 47.599 48.1342 48.8177 46.9155C50.4089 45.3244 51.9492 43.6994 53.5911 42.1759C54.7422 41.1095 55.2162 39.84 55.3854 38.3335C55.6563 35.8113 56.0286 33.3061 56.3672 30.8009C56.4857 29.8361 56.9258 29.0236 57.5859 28.3465C59.4648 26.4507 61.3438 24.5717 63.2396 22.6928C63.849 22.0835 64.2891 22.1342 65.0169 22.8283C65.0169 23.0822 65.0169 23.3361 65.0169 23.59C63.6289 25.0119 62.2409 26.4168 60.8359 27.8387C60.5482 28.1264 60.2943 28.448 59.9727 28.685C58.6185 29.7176 58.1615 31.1225 58.0091 32.7475C57.7891 35.1173 57.4505 37.4871 57.112 39.84C56.9596 40.9741 56.4688 41.9897 55.6562 42.8022C52.5586 45.9168 49.4609 49.0483 46.3294 52.129C44.6537 53.771 42.0469 53.2462 41.0312 51.1303C40.9805 51.0118 40.9297 50.9103 40.8451 50.741C40.4388 51.0457 40.0495 51.3165 39.694 51.6382C39.5755 51.7566 39.5078 51.9936 39.5078 52.1967C39.4909 53.2462 39.4909 54.3126 39.5078 55.3621C39.5247 56.7671 40.4219 57.7827 41.8268 58.0027C44.7044 58.4598 47.582 58.9168 50.4427 59.4077C53.2357 59.8816 55.2669 61.422 56.6042 63.9103C57.0781 64.7905 57.0443 65.0105 56.401 65.7553C56.1471 65.7553 55.8932 65.7553 55.6393 65.7553C55.3854 65.4507 55.0977 65.1798 54.9115 64.8244C53.8958 62.9116 52.3385 61.7098 50.2057 61.3204C47.8021 60.8803 45.3815 60.5418 42.9609 60.1525C42.1654 60.0171 41.3698 59.9155 40.6081 59.6785C38.8477 59.1199 37.6628 57.5288 37.612 55.7006C37.5781 54.8543 37.612 54.0079 37.612 53.06C35.9193 53.9572 34.362 54.7527 32.5508 54.7527C30.7227 54.7527 29.1484 53.9402 27.4896 53.077C27.4896 53.9741 27.5065 54.7697 27.4896 55.5652C27.4219 57.7658 25.9154 59.5262 23.7487 59.8986C21.0404 60.3556 18.332 60.7957 15.6237 61.185C13.0846 61.5574 11.1549 62.7592 10.0378 65.129C9.91927 65.3829 9.64844 65.5522 9.44531 65.7723C9.14062 65.8061 8.88672 65.8061 8.63281 65.8061Z" fill="#2EA7E0"/>
<path d="M9.39453 65.8061C9.59766 65.603 9.86849 65.4168 9.98698 65.1629C11.1042 62.7931 13.0339 61.5913 15.5729 61.2189C18.2812 60.8295 20.9896 60.3894 23.6979 59.9324C25.8646 59.56 27.3711 57.7996 27.4388 55.5991C27.4727 54.8035 27.4388 54.0079 27.4388 53.1108C29.0977 53.9741 30.6719 54.7866 32.5 54.7866C34.3281 54.7866 35.8854 53.991 37.5612 53.0939C37.5612 54.0418 37.5273 54.8881 37.5612 55.7345C37.6289 57.5626 38.7969 59.1538 40.5573 59.7124C41.319 59.9493 42.1146 60.0678 42.9102 60.1863C45.3307 60.5756 47.7513 60.9311 50.1549 61.3543C52.2708 61.7436 53.8451 62.9454 54.8607 64.8582C55.0469 65.1967 55.3516 65.4845 55.5885 65.7892C40.2018 65.8061 24.7982 65.8061 9.39453 65.8061Z" fill="white"/>
<path d="M0 6.39207C0.69401 5.63035 1.15104 5.61343 1.89583 6.34129C3.08073 7.52619 4.2487 8.69416 5.43359 9.87905C5.78906 10.2345 5.99219 10.6238 5.73828 11.1317C5.41667 11.758 4.6888 11.8764 4.14714 11.3348C2.74219 9.94676 1.37109 8.54181 0 7.15379C0 6.89989 0 6.64598 0 6.39207Z" fill="#2EA7E0"/>
<path d="M36.9518 0.806091C35.9193 0.975362 34.8698 1.06 33.8711 1.33083C32.8724 1.60166 31.9414 1.51703 30.9766 1.29698C30.0286 1.07692 29.0469 0.958435 28.082 0.806091C31.0273 0.806091 33.9896 0.806091 36.9518 0.806091Z" fill="white"/>
<path d="M34.4805 46.7293C33.0078 46.0353 31.4844 46.4077 29.944 46.577C29.3008 46.6447 28.5898 46.3569 27.9466 46.1199C27.3711 45.9168 27.1849 45.3921 27.388 44.9012C27.6081 44.3764 28.1159 44.1395 28.6914 44.3764C29.5547 44.7488 30.401 44.6473 31.2812 44.4272C31.8906 44.2918 32.5846 44.2918 33.194 44.4272C34.0911 44.6303 34.9206 44.7488 35.7838 44.3764C36.3594 44.1395 36.8672 44.3595 37.0872 44.8842C37.2904 45.3751 37.1211 45.8999 36.5456 46.1199C35.9023 46.3738 35.2083 46.5092 34.4805 46.7293Z" fill="#2EA7E0"/>
<path d="M26.0339 26.823C27.2865 26.8061 28.4545 27.1108 29.5716 27.6524C30.1133 27.9233 30.2995 28.4142 30.0964 28.9051C29.8763 29.4298 29.3516 29.6668 28.7761 29.379C26.8972 28.448 25.0183 28.685 23.1224 29.2774C22.8854 29.3452 22.6485 29.4467 22.3946 29.4806C21.8529 29.5652 21.4128 29.2605 21.3112 28.7527C21.1927 28.211 21.4128 27.7879 21.9206 27.6524C23.2748 27.2801 24.6459 26.9923 26.017 26.6537C26 26.7215 26.017 26.7722 26.0339 26.823Z" fill="#2EA7E0"/>
<path d="M43.7396 28.2957C43.7396 29.2267 43.1302 29.6329 42.4024 29.4467C41.5899 29.2436 40.7774 29.0235 39.9479 28.8543C38.7292 28.5834 37.5612 28.8204 36.444 29.3282C36.3933 29.3621 36.3255 29.379 36.2748 29.3959C35.6654 29.6329 35.1745 29.4636 34.9375 28.9558C34.7005 28.448 34.9037 27.9402 35.4792 27.6524C36.9011 26.9584 38.4076 26.6876 39.9649 26.9076C40.9805 27.06 41.9792 27.3308 42.961 27.6355C43.2995 27.7371 43.5534 28.1264 43.7396 28.2957Z" fill="#2EA7E0"/>
<path d="M24.9844 35.4389C24.2904 35.2866 23.3425 35.1004 22.4115 34.8295C21.8021 34.6603 21.5651 34.1186 21.7513 33.5939C21.9206 33.0861 22.4453 32.8321 23.0378 33.0353C24.5274 33.56 26 33.5431 27.4896 33.0353C28.0651 32.8321 28.5899 33.0861 28.7761 33.6108C28.9453 34.1355 28.6914 34.6264 28.099 34.8465C27.7266 34.9819 27.3373 35.1173 26.9479 35.185C26.3893 35.2866 25.8308 35.3374 24.9844 35.4389Z" fill="#2EA7E0"/>
<path d="M39.7109 35.4897C38.763 35.2696 37.832 35.1004 36.9349 34.8465C36.2917 34.6603 36.0378 34.1186 36.2409 33.5769C36.4271 33.0691 36.9349 32.8321 37.5443 33.0353C39.0169 33.5431 40.4727 33.5431 41.9453 33.0353C42.5547 32.8321 43.0625 33.0522 43.2487 33.56C43.4518 34.1017 43.2149 34.6603 42.5716 34.8295C41.6237 35.1004 40.6758 35.2696 39.7109 35.4897Z" fill="#2EA7E0"/>
<path d="M32.3138 41.5665C31.5013 41.3972 30.6888 41.2449 29.9102 41.0418C29.2839 40.8725 29.0131 40.3816 29.1823 39.8569C29.3516 39.2813 29.8425 39.0105 30.4857 39.2306C31.7045 39.6537 32.9232 39.6537 34.142 39.2306C34.7852 39.0105 35.2761 39.2644 35.4623 39.8399C35.6315 40.3816 35.3776 40.8725 34.7513 41.0418C33.9388 41.2618 33.1263 41.3972 32.3138 41.5665Z" fill="#2EA7E0"/>
<path d="M19.0937 24.3855C17.6719 21.491 14.9974 19.7306 12.8646 17.2254C13.5247 16.5822 14.151 15.8374 14.8789 15.2449C16.4362 13.9923 18.0781 12.8243 19.6692 11.5887C19.9232 11.3855 20.2278 11.0978 20.2617 10.8269C20.2786 10.5053 20.0924 10.0822 19.8554 9.8621C19.5169 9.54049 19.0768 9.64205 18.7044 9.92981C17.5364 10.81 16.3854 11.6902 15.2174 12.5704C14.7265 12.9428 14.2357 13.2983 13.6601 13.7384C13.5078 12.672 13.5078 11.7241 13.7617 10.7762C14.1679 9.2358 14.9297 7.89856 16.2331 6.96757C18.7721 5.19023 21.4297 3.64987 24.4765 2.922C26.1862 2.49882 27.8789 2.80351 29.5716 3.02356C30.1133 3.09127 30.638 3.22669 31.1627 3.32825C31.095 4.02226 30.8919 4.69934 31.0273 5.29179C31.2135 6.20586 31.4844 7.1707 31.9922 7.91549C33.4818 10.0652 32.8385 12.0796 31.8737 14.1277C31.8229 14.2462 31.6706 14.3478 31.5521 14.3986C26.3216 16.2944 22.4453 19.866 19.2291 24.2671C19.2122 24.3009 19.1784 24.3178 19.0937 24.3855Z" fill="white"/>
</g>
<defs>
<clipPath id="clip0_298_1450">
<rect width="65" height="65" fill="white" transform="translate(0 0.806091)"/>
</clipPath>
</defs>
</svg>
