<svg width="66" height="66" viewBox="0 0 66 66" fill="none" xmlns="http://www.w3.org/2000/svg">
<g clip-path="url(#clip0_228_157)">
<path d="M32.9085 65.8061C22.2875 65.8061 11.5958 65.8061 0.974915 65.8061C0.974915 44.1394 0.974915 22.4728 0.974915 0.806091C22.6416 0.806091 44.3082 0.806091 65.9749 0.806091C65.9749 22.4728 65.9749 44.1394 65.9749 65.8061C55.354 65.8061 44.7331 65.8061 34.183 65.8061C36.6612 64.39 39.281 63.1863 41.6884 61.6285C50.8932 55.61 57.4782 47.4673 60.9477 36.9172C61.3725 35.7135 61.6557 34.5098 61.939 33.2353C62.0806 32.8104 61.939 32.3148 61.4433 32.1732C61.0893 32.1024 60.6645 32.1732 60.3812 32.3856C60.1688 32.5272 60.098 32.8813 60.0272 33.1645C58.8235 38.2625 56.6993 42.9357 53.7255 47.3257C48.6982 54.6895 41.9008 60 33.8997 63.8235C33.6873 63.9651 33.3333 63.9651 33.0501 63.8235C29.2974 61.9118 25.6154 59.8584 22.3584 57.1677C15.7026 51.7865 10.8878 45.1307 8.05552 36.988C7.55988 35.6427 7.27666 34.2266 6.85182 32.8104C6.71021 32.244 6.21457 31.9608 5.78973 32.1024C5.22328 32.244 5.01086 32.6688 5.08167 33.2353C5.15247 33.5893 5.22328 33.8725 5.29409 34.2266C8.26794 45.4139 14.7113 54.1939 24.1285 60.708C26.8899 62.6198 30.0054 64.1067 32.9085 65.8061ZM33.5457 5.19607C32.1296 5.19607 30.7843 5.19607 29.3682 5.19607C26.9608 5.19607 24.6242 5.19607 22.2167 5.19607C20.8006 5.19607 19.8093 5.76252 19.2429 7.03703C19.1013 7.24945 19.0305 7.46186 18.8889 7.67428C16.9771 11.0022 14.2865 13.4096 10.7462 14.8257C9.40084 15.3921 8.62197 16.3126 8.62197 17.7996C8.62197 20.3486 8.62197 22.9684 8.69278 25.5174C8.9052 29.9782 9.89648 34.2974 11.6666 38.4041C15.8442 48.1046 22.854 55.1852 32.1296 60.1416C33.1209 60.6372 34.0414 60.6372 35.0326 60.1416C43.8126 55.3976 50.61 48.7418 54.9292 39.6786C56.9117 35.5011 58.1154 31.0403 58.3987 26.4379C58.6111 23.8181 58.4695 21.1274 58.5403 18.5076C58.6111 16.6667 57.8322 15.463 56.0621 14.7549C52.451 13.268 49.7603 10.7189 47.9902 7.24945C47.2821 5.83332 46.22 5.19607 44.5915 5.19607C40.9096 5.19607 37.2276 5.19607 33.5457 5.19607ZM33.5457 0.947704C28.4477 0.947704 23.3496 0.947704 18.1808 0.947704C16.9063 0.947704 15.915 1.79738 15.6318 3.07189C15.561 3.42592 15.4902 3.77995 15.4194 4.13398C14.4281 8.02831 10.8878 10.9314 6.5686 11.427C4.79844 11.6394 4.01958 12.5599 4.01958 14.2592C4.01958 17.2331 4.01958 20.207 4.01958 23.1808C4.01958 24.8094 4.16119 26.3671 4.232 27.9956C4.232 28.6329 4.72764 29.0577 5.22328 28.9869C5.78973 28.9161 6.14376 28.4913 6.07295 27.854C6.07295 27.3584 5.93134 26.8627 5.93134 26.4379C6.00215 23.5348 6.00215 20.561 5.93134 17.5871C5.93134 16.4542 5.93134 15.3213 5.93134 14.2592C5.93134 13.7636 6.14376 13.4096 6.71021 13.4096C7.13505 13.4096 7.63069 13.268 8.05552 13.1972C13.012 11.9226 16.4106 8.94879 17.4727 3.77995C17.6143 3.14269 17.8976 2.85947 18.5348 2.85947C28.5185 2.85947 38.4313 2.85947 48.415 2.85947C49.4063 2.85947 49.4771 2.85947 49.6187 3.85075C49.9019 5.47929 50.5392 6.96622 51.5305 8.31154C53.6547 11.2146 56.6285 12.7723 60.1688 13.3388C61.0893 13.4804 61.1601 13.5512 61.1601 14.5425C61.0893 19.0033 61.0185 23.464 60.9477 27.9248C60.9477 28.6329 61.3017 29.0577 61.8682 29.0577C62.4346 29.0577 62.8594 28.7037 62.8594 28.0664C62.9303 23.3932 63.0011 18.72 63.0719 14.0468C63.0719 12.5599 62.1514 11.7102 60.6645 11.4978C59.8856 11.3562 59.1067 11.2146 58.3987 11.0022C54.7167 9.72766 52.3093 7.24945 51.4597 3.35511C51.1056 1.72657 50.3268 0.947704 48.6274 0.947704C43.6002 0.947704 38.573 0.947704 33.5457 0.947704Z" fill="white"/>
<path d="M32.9085 65.8061C30.0054 64.1067 26.8899 62.6198 24.1285 60.708C14.7113 54.1939 8.26794 45.4139 5.36489 34.2266C5.29409 33.8725 5.22328 33.5893 5.15248 33.2353C5.08167 32.6688 5.29409 32.244 5.86054 32.1024C6.35618 31.9608 6.78102 32.244 6.92263 32.8104C7.34747 34.2266 7.63069 35.6427 8.12633 36.988C10.8878 45.0599 15.7734 51.7157 22.4292 57.1677C25.6862 59.8584 29.3682 61.9117 33.1209 63.8235C33.3333 63.9651 33.6873 63.9651 33.9706 63.8235C41.9716 60 48.769 54.6895 53.7963 47.3257C56.7701 43.0065 58.8943 38.3333 60.098 33.1645C60.1688 32.8812 60.2396 32.5272 60.452 32.3856C60.7353 32.244 61.2309 32.1024 61.5141 32.1732C62.0098 32.3148 62.0806 32.7396 62.0098 33.2353C61.7265 34.439 61.3725 35.7135 61.0185 36.9172C57.549 47.4673 50.964 55.61 41.7592 61.6285C39.3518 63.1863 36.8028 64.4608 34.2538 65.8061C33.7581 65.8061 33.3333 65.8061 32.9085 65.8061Z" fill="#2EA7E0"/>
<path d="M33.5457 5.19604C37.2276 5.19604 40.9096 5.19604 44.5915 5.19604C46.22 5.19604 47.2821 5.8333 47.9902 7.24942C49.7603 10.7189 52.5218 13.2679 56.0621 14.7549C57.8322 15.4629 58.6111 16.5958 58.5403 18.5076C58.4695 21.1274 58.5403 23.818 58.3987 26.4379C58.1154 31.0403 56.9117 35.5011 54.9292 39.6786C50.6808 48.8126 43.8834 55.4684 35.0326 60.1416C34.0414 60.6372 33.1209 60.6372 32.1296 60.1416C22.9248 55.1852 15.915 48.1753 11.7374 38.4749C9.96729 34.3682 8.9052 30.1198 8.76359 25.5882C8.69278 23.0392 8.69278 20.4194 8.69278 17.8703C8.69278 16.3834 9.47165 15.4629 10.817 14.8965C14.3573 13.4096 17.1187 11.073 18.9597 7.74506C19.1013 7.53265 19.1721 7.32023 19.3137 7.10781C19.8801 5.76249 20.8714 5.19604 22.2167 5.19604C24.6242 5.19604 26.9608 5.19604 29.3682 5.19604C30.7843 5.19604 32.2004 5.19604 33.5457 5.19604ZM33.5457 7.10781C29.793 7.10781 26.0403 7.10781 22.3584 7.10781C21.7211 7.10781 21.2963 7.24942 21.013 7.88668C18.9597 12.0642 15.7026 14.8965 11.4542 16.6666C10.817 16.9499 10.5337 17.3747 10.5337 18.0119C10.5337 19.7821 10.5337 21.6231 10.5337 23.3932C10.6045 28.8453 11.7374 34.0141 14.0032 38.9706C18.0392 47.6089 24.4825 53.9106 32.8377 58.3714C33.3333 58.6547 33.7581 58.5838 34.2538 58.3714C41.7592 54.3355 47.7777 48.7418 51.9553 41.2363C54.6459 36.3507 56.2037 31.1111 56.4869 25.5174C56.6285 23.11 56.5577 20.7026 56.6285 18.2952C56.6285 17.0915 56.5577 16.9499 55.4248 16.4542C51.3889 14.6841 48.2734 11.9226 46.2908 7.95748C45.9368 7.24942 45.4411 6.9662 44.7331 6.9662C40.9804 7.10781 37.2276 7.10781 33.5457 7.10781Z" fill="#2EA7E0"/>
<path d="M33.5457 0.947693C38.573 0.947693 43.6002 0.947693 48.6274 0.947693C50.3268 0.947693 51.1056 1.65575 51.4597 3.3551C52.2385 7.24944 54.7167 9.65684 58.3987 11.0022C59.1067 11.2854 59.8856 11.427 60.6645 11.4978C62.1514 11.7102 63.0719 12.5599 63.0719 14.0468C63.0719 18.72 62.9302 23.3932 62.8594 28.0664C62.8594 28.7037 62.4346 29.1285 61.8682 29.0577C61.3017 29.0577 60.9477 28.5621 60.9477 27.9248C61.0185 23.464 61.0893 19.0032 61.1601 14.5425C61.1601 13.622 61.0893 13.5512 60.1688 13.3388C56.6285 12.7723 53.7255 11.2146 51.5305 8.31153C50.5392 6.96621 49.9019 5.47928 49.6187 3.85074C49.4771 2.85946 49.4063 2.85946 48.415 2.85946C38.4313 2.85946 28.5185 2.85946 18.5348 2.85946C17.8268 2.85946 17.5435 3.07188 17.4727 3.77994C16.4106 8.87798 13.012 11.781 8.05553 13.0555C7.63069 13.1971 7.13505 13.268 6.71021 13.268C6.14376 13.3388 5.93134 13.6928 5.93134 14.1884C5.93134 15.3213 5.93134 16.4542 5.93134 17.5163C5.93134 20.4902 6.00215 23.464 6.00215 26.4379C6.00215 26.9335 6.07296 27.4292 6.14376 27.854C6.14376 28.4913 5.78973 28.9161 5.29409 28.9869C4.79845 29.0577 4.3028 28.6329 4.3028 27.9956C4.232 26.3671 4.09039 24.8093 4.09039 23.1808C4.09039 20.207 4.09039 17.2331 4.09039 14.2592C4.09039 12.4891 4.86925 11.6394 6.6394 11.427C10.8878 10.9314 14.4281 8.0283 15.4902 4.13397C15.561 3.77994 15.6318 3.42591 15.7026 3.07188C15.915 1.79737 16.9063 0.947693 18.2516 0.947693C23.3496 0.947693 28.4477 0.947693 33.5457 0.947693Z" fill="#2EA7E0"/>
<path d="M33.5457 7.10785C37.2984 7.10785 40.9804 7.10785 44.7331 7.10785C45.5119 7.10785 45.9368 7.32027 46.2908 8.09913C48.2734 12.0643 51.3889 14.8257 55.4248 16.5959C56.5577 17.0915 56.6993 17.2331 56.6285 18.4368C56.6285 20.8442 56.6285 23.2516 56.4869 25.659C56.2037 31.1819 54.6459 36.3508 51.9553 41.2364C47.8485 48.7418 41.83 54.3355 34.2538 58.3715C33.7581 58.6547 33.3333 58.6547 32.8377 58.3715C24.4825 53.9107 18.0392 47.6089 14.0032 38.9706C11.6666 34.085 10.5337 28.8453 10.5337 23.3933C10.5337 21.6231 10.5337 19.7821 10.5337 18.012C10.5337 17.3039 10.817 16.9499 11.4542 16.6667C15.7026 14.8965 18.9597 11.9935 21.013 7.88672C21.2963 7.24946 21.7919 7.10785 22.3584 7.10785C26.0403 7.10785 29.793 7.10785 33.5457 7.10785ZM42.6797 23.9597C42.6797 22.6144 42.6797 21.3399 42.6797 20.0654C42.6797 19.3573 42.6089 18.6492 42.5381 17.9412C41.7592 13.5512 37.7941 10.2941 33.1917 10.5065C29.0849 10.719 25.2614 13.976 24.7658 18.0828C24.5533 19.7821 24.6242 21.4815 24.6242 23.1808C24.6242 23.3933 24.6242 23.6765 24.6242 23.9597C24.1285 23.9597 23.7745 23.9597 23.4204 23.9597C21.5087 23.8181 20.1634 25.3758 20.1634 27.2168C20.2342 31.3943 20.2342 35.6427 20.1634 39.8203C20.1634 41.732 21.5087 43.1482 23.4913 43.1482C26.0403 43.0773 28.5893 43.1482 31.1383 43.1482C35.4575 43.1482 39.7058 43.1482 44.025 43.1482C45.7952 43.1482 47.1405 41.9444 47.2113 40.1743C47.2113 35.7135 47.2113 31.3235 47.2113 26.8628C47.2113 25.2342 45.9368 24.0305 44.3082 23.9597C43.671 23.9597 43.2462 23.9597 42.6797 23.9597Z" fill="white"/>
<path d="M42.6797 23.9597C43.2462 23.9597 43.7418 23.9597 44.1666 23.9597C45.7952 24.0305 47.0697 25.1634 47.0697 26.8627C47.1405 31.3235 47.0697 35.7135 47.0697 40.1743C47.0697 41.8736 45.7244 43.0773 43.8834 43.1481C39.5642 43.1481 35.3159 43.1481 30.9967 43.1481C28.4477 43.1481 25.8987 43.0773 23.3496 43.1481C21.3671 43.2189 20.0218 41.8028 20.0218 39.8202C20.0926 35.6427 20.0926 31.3943 20.0218 27.2168C20.0218 25.3758 21.3671 23.8181 23.2788 23.9597C23.6329 23.9597 24.0577 23.9597 24.4825 23.9597C24.4825 23.6765 24.4825 23.464 24.4825 23.1808C24.5533 21.4815 24.4117 19.7821 24.6242 18.0828C25.1198 13.976 28.9433 10.7189 33.0501 10.5065C37.6525 10.2941 41.6176 13.5512 42.3965 17.9412C42.5381 18.6492 42.5381 19.3573 42.5381 20.0653C42.6797 21.4107 42.6797 22.6144 42.6797 23.9597ZM33.6165 25.8714C30.2178 25.8714 26.8899 25.8714 23.4913 25.8714C22.2876 25.8714 22.0043 26.1547 22.0043 27.2876C22.0043 31.4651 22.0043 35.6427 22.0043 39.7494C22.0043 40.8823 22.3584 41.2364 23.4913 41.2364C30.2178 41.2364 36.9444 41.2364 43.671 41.2364C44.8039 41.2364 45.2287 40.8823 45.2287 39.7494C45.2287 35.6427 45.2287 31.4651 45.2287 27.3584C45.2287 26.2255 44.8747 25.9423 43.7418 25.9423C40.3431 25.8714 36.9444 25.8714 33.6165 25.8714ZM40.7679 23.9597C40.7679 23.7473 40.7679 23.5348 40.7679 23.3224C40.7679 21.7647 40.8388 20.207 40.6263 18.6492C40.2723 15.3921 37.5109 12.6307 34.3246 12.4183C30.6427 12.1351 27.3856 14.2592 26.6775 17.6579C26.2527 19.6405 26.3943 21.7647 26.2527 23.8889C31.2091 23.9597 35.9531 23.9597 40.7679 23.9597Z" fill="#2EA7E0"/>
<path d="M33.6165 25.8715C37.0152 25.8715 40.3431 25.8715 43.7418 25.8715C44.8747 25.8715 45.2287 26.2255 45.2287 27.2876C45.2287 31.3943 45.2287 35.5719 45.2287 39.6787C45.2287 40.8116 44.8747 41.1656 43.671 41.1656C36.9444 41.1656 30.2178 41.1656 23.4913 41.1656C22.3584 41.1656 22.0043 40.8116 22.0043 39.6787C22.0043 35.5011 22.0043 31.3235 22.0043 27.2168C22.0043 26.0839 22.2875 25.8007 23.4913 25.8007C26.8191 25.8715 30.2178 25.8715 33.6165 25.8715ZM32.696 35.9967C32.696 36.3508 32.696 36.7048 32.696 36.988C32.696 37.6253 33.0501 38.0501 33.6165 38.0501C34.183 38.0501 34.537 37.6253 34.6078 36.988C34.6078 36.4216 34.6078 35.9259 34.6078 35.3595C34.6078 34.8638 34.6786 34.439 35.1035 34.085C36.0239 33.3061 36.0239 31.8192 35.1743 30.9695C34.3246 30.1198 32.9085 30.1198 32.0588 31.0403C31.1383 31.9608 31.2091 33.3769 32.1296 34.1558C32.5544 34.5098 32.696 34.8638 32.6252 35.3595C32.6252 35.5719 32.696 35.7843 32.696 35.9967Z" fill="white"/>
<path d="M40.7679 23.9597C35.9531 23.9597 31.2799 23.9597 26.3235 23.9597C26.4651 21.8355 26.3235 19.7113 26.7483 17.7287C27.4564 14.3301 30.7135 12.2059 34.3954 12.4891C37.5109 12.7015 40.3431 15.4629 40.6971 18.72C40.8388 20.2778 40.7679 21.8355 40.8388 23.3932C40.7679 23.5348 40.7679 23.7473 40.7679 23.9597Z" fill="white"/>
<path d="M32.696 35.9967C32.696 35.7843 32.696 35.5719 32.696 35.3595C32.7669 34.8638 32.6252 34.5098 32.2004 34.1558C31.2091 33.3769 31.2091 31.9608 32.0588 31.0403C32.9085 30.1198 34.3246 30.1198 35.1743 30.9695C36.0239 31.8192 36.0947 33.3061 35.1035 34.085C34.6078 34.439 34.537 34.8638 34.6078 35.3595C34.6078 35.9259 34.6078 36.4216 34.6078 36.988C34.6078 37.6253 34.183 38.0501 33.6165 38.0501C33.0501 38.0501 32.696 37.6253 32.696 36.988C32.6252 36.634 32.696 36.3508 32.696 35.9967Z" fill="#2EA7E0"/>
</g>
<defs>
<clipPath id="clip0_228_157">
<rect width="65" height="65" fill="white" transform="translate(0.974915 0.806091)"/>
</clipPath>
</defs>
</svg>
