<svg width="36" height="36" viewBox="0 0 36 36" fill="none" xmlns="http://www.w3.org/2000/svg">
<g clip-path="url(#clip0_173_296)">
<path d="M35.1113 4.07684C35.1113 13.6223 35.1113 23.1677 35.1113 32.7132C35.1113 32.8356 35.1113 32.8356 34.9889 32.958C34.6218 34.6712 33.1532 35.7726 31.4399 35.895C22.2616 35.895 12.9609 35.895 3.7826 35.895C1.82455 35.895 0.111267 34.3041 0.111267 32.2237C0.111267 23.0454 0.111267 13.7447 0.111267 4.56635C0.111267 2.97544 1.21267 1.50691 2.6812 1.13977C2.92595 1.0174 3.04833 0.89502 3.29309 0.89502C12.8385 0.89502 22.5064 0.89502 32.0518 0.89502C32.0518 0.89502 32.1742 0.89502 32.1742 1.0174C33.5204 1.38453 34.377 2.1188 34.8665 3.46495C34.9889 3.58733 34.9889 3.83208 35.1113 4.07684ZM17.6113 33.6922C22.1392 33.6922 26.6672 33.6922 31.1952 33.6922C32.419 33.6922 33.0308 33.0803 33.0308 31.8566C33.0308 22.8006 33.0308 13.7447 33.0308 4.8111C33.0308 3.58733 32.419 2.97544 31.1952 2.97544C22.1392 2.97544 13.0833 2.97544 4.14973 2.97544C2.92595 2.97544 2.31406 3.58733 2.31406 4.8111C2.31406 13.867 2.31406 22.8006 2.31406 31.8566C2.31406 33.0803 2.92595 33.6922 4.14973 33.6922C8.55532 33.6922 13.0833 33.6922 17.6113 33.6922Z" fill="#2EA7E0"/>
<path d="M8.06582 21.4544C7.0868 21.2097 6.35253 20.7202 5.61827 19.9859C4.27211 18.5174 3.7826 16.6817 4.39449 14.7237C5.25113 12.888 6.59729 11.7866 8.67771 11.4195C8.92246 11.4195 9.16722 11.4195 9.41197 11.2971C12.7162 11.2971 16.1427 11.2971 19.4469 11.2971C20.3036 11.2971 20.6707 11.6642 20.6707 12.5209C20.6707 15.2132 20.6707 17.7831 20.6707 20.4754C20.6707 21.2097 20.3036 21.6992 19.4469 21.6992C17.856 21.6992 16.2651 21.6992 14.5518 21.6992C14.3071 21.6992 14.1847 21.8216 14.0623 22.0663C13.4504 24.3915 12.9609 26.7167 12.349 29.0418C12.2267 29.7761 11.8595 30.0209 11.1253 30.0209C9.90148 30.0209 8.67771 30.0209 7.33155 30.0209C6.47491 30.0209 5.86302 29.409 6.10778 28.5523C6.71967 26.3495 7.20918 24.1467 7.82107 21.9439C8.06582 21.6992 8.06582 21.5768 8.06582 21.4544ZM18.5903 13.4999C15.4085 13.4999 12.349 13.3775 9.2896 13.4999C7.20918 13.4999 5.86302 15.4579 6.35253 17.2936C6.59729 18.395 7.69869 19.6188 9.41197 19.6188C12.349 19.6188 15.2861 19.6188 18.2232 19.6188C18.3455 19.6188 18.4679 19.6188 18.5903 19.6188C18.5903 17.5383 18.5903 15.4579 18.5903 13.4999ZM12.2267 21.6992C11.4924 21.6992 10.8805 21.6992 10.2686 21.6992C9.77911 23.7796 9.2896 25.7376 8.80009 27.8181C9.53435 27.8181 10.1462 27.8181 10.7581 27.8181C11.1253 25.7376 11.7371 23.7796 12.2267 21.6992Z" fill="#2EA7E0"/>
<path d="M30.9504 15.7027C30.8281 19.6188 29.7267 22.6782 27.2791 25.1258C26.7896 25.6153 26.1777 25.6153 25.8106 25.2481C25.3211 24.881 25.3211 24.2691 25.8106 23.7796C27.2791 22.1887 28.3805 20.4754 28.7476 18.2726C29.3595 14.7237 28.5029 11.6642 26.1777 8.97191C26.0553 8.84954 25.9329 8.72716 25.8106 8.60478C25.4434 8.11527 25.4434 7.62576 25.8106 7.13625C26.1777 6.76912 26.7896 6.76912 27.2791 7.13625C28.9924 8.84954 30.0938 10.93 30.7057 13.2551C30.8281 14.1118 30.9504 15.2132 30.9504 15.7027Z" fill="#2EA7E0"/>
<path d="M26.3001 16.1922C26.3001 18.395 25.5658 20.2307 23.9749 21.8216C23.4854 22.3111 22.8735 22.3111 22.384 21.944C22.0169 21.5768 22.0169 20.9649 22.384 20.4754C24.7092 17.9055 24.7092 14.6013 22.384 12.0314C22.0169 11.5419 21.8945 10.93 22.384 10.5628C22.7511 10.1957 23.4854 10.1957 23.8525 10.6852C25.5658 12.0314 26.3001 13.9894 26.3001 16.1922Z" fill="#2EA7E0"/>
</g>
<defs>
<clipPath id="clip0_173_296">
<rect width="35" height="35" fill="white" transform="translate(0.111267 0.89502)"/>
</clipPath>
</defs>
</svg>
