<svg width="66" height="66" viewBox="0 0 66 66" fill="none" xmlns="http://www.w3.org/2000/svg">
<g clip-path="url(#clip0_228_168)">
<path d="M0.974915 11.3562C0.974915 7.81589 0.974915 4.3464 0.974915 0.806091C22.6416 0.806091 44.3083 0.806091 65.9749 0.806091C65.9749 22.4728 65.9749 44.1394 65.9749 65.8061C44.3083 65.8061 22.6416 65.8061 0.974915 65.8061C0.974915 63.5403 0.974915 61.2745 0.974915 58.9379C1.54136 60.2124 2.60345 60.5664 3.94877 60.5664C10.7462 60.5664 17.5435 60.5664 24.3409 60.5664C25.403 60.5664 25.8987 60.2124 25.8279 59.5752C25.8279 58.9379 25.3322 58.6547 24.3409 58.6547C17.4727 58.6547 10.6045 58.6547 3.73635 58.6547C2.81587 58.6547 2.81587 58.6547 2.81587 57.805C2.81587 45.4139 2.81587 33.0229 2.81587 20.7026C2.81587 20.4902 2.81587 20.2778 2.81587 20.0653C3.52393 20.0653 4.09038 20.0653 4.72764 20.0653C4.72764 20.3486 4.72764 20.561 4.72764 20.7734C4.72764 24.7386 4.72764 28.7037 4.72764 32.6688C4.72764 32.8813 4.72764 33.1645 4.79844 33.3769C5.01086 33.8725 5.4357 34.0142 5.93134 33.8725C6.42698 33.7309 6.6394 33.3061 6.6394 32.8104C6.6394 28.7745 6.6394 24.6677 6.6394 20.6318C6.6394 20.4194 6.6394 20.207 6.6394 19.9237C6.99343 19.9237 7.27666 19.9237 7.55988 19.9237C20.8714 19.9237 34.2538 19.9237 47.5653 19.9237C47.8486 19.9237 48.1318 19.9237 48.415 19.8529C48.9106 19.7821 49.1231 19.4281 49.1231 18.9325C49.1231 18.4368 48.8398 18.0828 48.3442 18.012C48.1318 17.9412 47.8486 17.9412 47.5653 17.9412C32.9085 17.9412 18.2516 17.9412 3.66555 17.9412C3.38232 17.9412 3.0991 17.9412 2.81587 17.9412C2.81587 15.9586 2.81587 14.0468 2.81587 12.1351C2.81587 11.781 3.02829 11.7102 3.38232 11.7102C4.232 11.7102 5.08167 11.7102 6.00215 11.7102C6.5686 11.7102 7.13505 11.7102 7.70149 11.7102C7.91391 14.2592 8.76359 15.463 10.5337 15.463C11.1002 15.463 11.8082 15.2505 12.3039 14.8965C13.4368 14.1884 13.5784 12.9847 13.5784 11.7102C15.4902 11.7102 17.3311 11.7102 18.9597 11.7102C19.2429 12.6307 19.3845 13.4804 19.7385 14.1884C20.1634 15.0381 21.013 15.463 21.9335 15.3921C22.5 15.3921 23.208 15.1797 23.7037 14.8257C24.8366 14.1176 24.9782 12.8431 24.9782 11.6394C26.8899 11.6394 28.7309 11.6394 30.5719 11.6394C30.5719 11.9226 30.5719 12.2059 30.5719 12.4183C30.6427 14.1176 31.8464 15.3921 33.4041 15.3921C34.9618 15.3921 36.2364 14.1176 36.3072 12.4183C36.3072 12.1351 36.3072 11.9226 36.3072 11.6394C38.2189 11.6394 40.0599 11.6394 41.9008 11.6394C42.1841 14.2592 43.1045 15.463 44.8039 15.3213C45.4412 15.3213 46.1492 15.0381 46.6449 14.6133C47.6361 13.9052 47.7069 12.7723 47.7069 11.5686C49.6187 11.5686 51.4597 11.5686 53.3006 11.5686C53.513 14.1176 54.4335 15.3213 56.1329 15.2505C56.7701 15.2505 57.4074 14.9673 57.9738 14.6133C59.0359 13.9052 59.1775 12.7015 59.1067 11.4978C60.5228 11.4978 61.939 11.4978 63.2843 11.4978C63.8507 11.4978 63.9923 11.7102 63.9923 12.2059C63.9923 13.9052 63.9923 15.6046 63.9923 17.3039C63.9923 17.4455 63.9923 17.6579 63.9215 17.7996C63.6383 17.7996 63.3551 17.7996 63.1427 17.7996C59.8148 17.7996 56.4869 17.7996 53.159 17.7996C52.8758 17.7996 52.5926 17.7287 52.451 17.8704C52.1677 18.0828 51.8137 18.4368 51.8137 18.7908C51.8137 19.0741 52.1677 19.4281 52.451 19.6405C52.6634 19.7821 52.9466 19.7821 53.2298 19.7821C55.354 19.7821 57.4782 19.7821 59.6024 19.7821C59.8148 19.7821 60.0272 19.7821 60.2396 19.7821C60.2396 27.4292 60.2396 34.9346 60.2396 42.5109C58.257 42.5109 56.2745 42.5109 54.2919 42.5109C52.805 42.5109 51.9553 43.4314 51.9553 44.8475C51.9553 46.6176 51.9553 48.3878 51.9553 50.1579C51.9553 50.3704 51.9553 50.5828 51.9553 50.7952C51.8137 50.7952 51.7429 50.7952 51.6721 50.7952C36.9444 50.7952 22.2167 50.7952 7.41827 50.7952C6.85182 50.7952 6.78101 50.512 6.78101 50.0871C6.78101 47.6797 6.78101 45.3431 6.78101 42.9357C6.78101 41.024 6.78101 39.1122 6.78101 37.2004C6.78101 36.4924 6.21457 35.9967 5.57731 36.2091C5.01086 36.3508 4.86925 36.7756 4.86925 37.342C4.86925 41.5904 4.94006 45.9096 4.86925 50.1579C4.86925 51.5741 5.71892 52.7778 7.41827 52.7778C22.3584 52.7778 37.2276 52.7778 52.1677 52.7778C53.0174 52.7778 53.6547 52.4945 54.2919 51.9281C56.6285 49.5915 58.9651 47.2549 61.3017 44.9183C61.939 44.3518 62.2222 43.6438 62.2222 42.7941C62.2222 35.3595 62.2222 27.9956 62.2222 20.561C62.2222 20.3486 62.2222 20.0653 62.2222 19.8529C62.9303 19.8529 63.4967 19.8529 64.134 19.8529C64.134 20.1362 64.134 20.3486 64.134 20.561C64.134 25.0926 64.134 29.5534 64.134 34.085C64.134 38.6874 64.134 43.2189 64.134 47.8213C64.134 48.0338 64.134 48.317 64.2048 48.5294C64.4172 49.025 64.7712 49.2375 65.2669 49.0958C65.9041 48.9542 66.0457 48.4586 66.0457 47.8921C66.0457 35.9259 66.0457 23.9597 66.0457 11.9935C66.0457 10.5773 65.1252 9.65685 63.7091 9.58605C62.5054 9.58605 61.2309 9.58605 60.0272 9.58605C59.8148 9.58605 59.6024 9.58605 59.3899 9.58605C59.1775 6.96622 58.2571 5.76252 56.5577 5.83332C55.9205 5.83332 55.2124 6.11655 54.7167 6.47058C53.6547 7.17864 53.5839 8.38234 53.5839 9.51524C51.6721 9.51524 49.8311 9.51524 47.9902 9.51524C47.7069 6.96622 46.8573 5.76252 45.1579 5.83332C44.5207 5.83332 43.8126 6.11655 43.317 6.47058C42.2549 7.17864 42.1841 8.38234 42.1841 9.51524C40.2723 9.51524 38.4313 9.51524 36.5904 9.51524C36.5904 9.16121 36.5904 8.94879 36.5904 8.66557C36.5196 7.03703 35.2451 5.76252 33.7581 5.76252C32.2004 5.76252 30.9259 7.03703 30.8551 8.66557C30.8551 8.94879 30.8551 9.23202 30.8551 9.51524C28.9433 9.51524 27.1024 9.51524 25.1906 9.51524C25.1906 9.23202 25.1906 8.94879 25.1906 8.66557C25.1198 7.03703 23.9161 5.76252 22.3584 5.76252C20.8006 5.76252 19.5261 7.03703 19.4553 8.66557C19.4553 8.94879 19.4553 9.23202 19.4553 9.51524C17.5435 9.51524 15.7026 9.51524 13.7908 9.51524C13.7908 9.23202 13.7908 8.94879 13.7908 8.66557C13.72 7.03703 12.5163 5.76252 10.9586 5.76252C9.40084 5.76252 8.12633 7.03703 8.05552 8.66557C8.05552 8.94879 8.05552 9.23202 8.05552 9.58605C6.71021 9.58605 5.50651 9.65685 4.3028 9.58605C2.60345 9.65685 1.54136 10.0817 0.974915 11.3562ZM43.2462 33.0937C44.9455 33.0937 46.0784 32.1732 46.3616 30.7571C46.6449 29.4118 45.866 28.0664 44.5915 27.5708C43.317 27.0752 41.83 27.5708 41.122 28.7745C40.9804 29.0577 40.8388 29.2701 40.4139 29.2701C32.4128 29.2701 24.3409 29.2701 16.3398 29.2701C15.9858 29.2701 15.8442 29.1993 15.7026 28.8453C15.0653 27.6416 13.72 27.0752 12.5163 27.4292C11.2418 27.7832 10.3213 28.9161 10.3213 30.1906C10.3213 31.4651 11.2418 32.598 12.5163 32.9521C13.72 33.3061 15.0653 32.7396 15.7026 31.5359C15.8442 31.2527 15.9858 31.1111 16.3398 31.1111C24.4117 31.1111 32.4128 31.1111 40.4847 31.1111C40.7679 31.1111 40.9804 31.1819 41.122 31.4651C41.5468 32.598 42.4673 33.0937 43.2462 33.0937ZM46.5032 60.6372C50.4684 60.6372 54.4335 60.6372 58.3279 60.6372C60.0272 60.6372 61.7266 60.6372 63.4259 60.6372C64.9836 60.6372 65.8333 59.7168 65.8333 58.159C65.8333 56.4597 65.8333 54.7603 65.8333 53.061C65.8333 52.2113 65.5501 51.7865 64.9128 51.7865C64.2756 51.7865 63.9215 52.2113 63.9215 53.061C63.9215 54.6187 63.9215 56.1765 63.9215 57.7342C63.9215 58.7255 63.9215 58.7255 62.9303 58.7255C51.8845 58.7255 40.8388 58.7255 29.793 58.7255C28.8017 58.7255 28.3061 59.0087 28.3061 59.646C28.3061 60.354 28.8017 60.6372 29.793 60.6372C35.4575 60.6372 40.9804 60.6372 46.5032 60.6372ZM33.3333 42.6525C33.1917 42.6525 32.9085 42.7233 32.696 42.7233C31.4215 43.0773 30.5719 44.2102 30.5719 45.4847C30.5719 46.7592 31.4215 47.8921 32.7669 48.2462C33.9706 48.6002 35.3159 48.0338 35.9531 46.9009C36.1656 46.476 36.378 46.4052 36.8028 46.476C38.0065 46.476 39.1394 46.476 40.3431 46.476C40.6971 46.476 40.9804 46.5468 41.1928 46.9717C41.83 48.1046 43.1754 48.671 44.3791 48.317C45.6536 47.963 46.574 46.8301 46.574 45.5555C46.574 44.281 45.6536 43.1481 44.3791 42.7941C43.1754 42.5109 41.83 43.0065 41.1928 44.2102C40.9804 44.5643 40.7679 44.6351 40.4139 44.6351C39.2102 44.6351 38.0065 44.6351 36.8028 44.6351C36.4488 44.6351 36.2364 44.5643 36.0239 44.2102C35.3867 43.1481 34.537 42.6525 33.3333 42.6525ZM53.7255 40.7407C54.2211 40.7407 54.6459 40.7407 55.1416 40.7407C56.0621 40.7407 56.5577 40.2451 56.6285 39.3246C56.6993 38.3333 56.6285 37.4128 56.6285 36.4216C56.6285 35.5011 56.0621 35.0054 55.1416 35.0054C54.2211 35.0054 53.2298 35.0054 52.3093 35.0054C51.4597 35.0054 50.8932 35.5011 50.8932 36.3508C50.8224 37.342 50.8224 38.3333 50.8932 39.3246C50.8932 40.1743 51.4597 40.6699 52.3801 40.6699C52.805 40.7407 53.2298 40.7407 53.7255 40.7407ZM13.1536 48.317C13.6492 48.317 14.074 48.317 14.5697 48.317C15.4902 48.317 15.9858 47.8213 16.0566 46.9717C16.1274 45.9804 16.1274 44.9891 16.0566 43.9978C15.9858 43.1481 15.4902 42.6525 14.6405 42.6525C13.72 42.6525 12.7287 42.6525 11.8082 42.6525C10.8878 42.6525 10.3921 43.1481 10.3213 44.0686C10.3213 45.0599 10.3213 45.9804 10.3213 46.9717C10.3213 47.8921 10.8878 48.317 11.8082 48.3878C12.2331 48.317 12.6579 48.317 13.1536 48.317ZM53.7255 33.0937C54.2211 33.0937 54.6459 33.0937 55.1416 33.0937C56.0621 33.0937 56.6285 32.598 56.6285 31.7484C56.6993 30.7571 56.6993 29.7658 56.6285 28.7745C56.5577 27.9248 56.0621 27.4292 55.2124 27.4292C54.2919 27.4292 53.3006 27.4292 52.3801 27.4292C51.5305 27.4292 50.964 27.9248 50.8932 28.7745C50.8224 29.7658 50.8224 30.8279 50.8932 31.8192C50.964 32.6688 51.4597 33.1645 52.3801 33.1645C52.7342 33.1645 53.2298 33.0937 53.7255 33.0937ZM23.2788 42.6525C22.7832 42.6525 22.2876 42.6525 21.7919 42.6525C20.9422 42.6525 20.3758 43.1481 20.3758 43.9978C20.305 44.9891 20.305 45.9804 20.3758 46.9717C20.4466 47.8213 20.9422 48.317 21.8627 48.317C22.7832 48.317 23.7037 48.317 24.6242 48.317C25.4738 48.317 26.0403 47.8213 26.1111 46.9717C26.1819 45.9804 26.1819 44.9183 26.1111 43.927C26.0403 43.0773 25.5446 42.5817 24.6242 42.5817C24.1993 42.6525 23.7745 42.6525 23.2788 42.6525ZM13.1536 35.0054C12.6579 35.0054 12.1623 35.0054 11.6666 35.0054C10.7462 35.0054 10.2505 35.5011 10.1797 36.4216C10.1797 37.4128 10.1797 38.3333 10.1797 39.3246C10.1797 40.2451 10.7462 40.7407 11.6666 40.7407C12.5871 40.7407 13.5076 40.7407 14.4281 40.7407C15.3486 40.7407 15.915 40.2451 15.915 39.3954C15.9858 38.4041 15.9858 37.4128 15.915 36.4216C15.915 35.5719 15.3486 35.0762 14.4989 35.0762C14.1448 35.0054 13.6492 35.0054 13.1536 35.0054ZM23.2788 40.7407C23.7745 40.7407 24.1993 40.7407 24.695 40.7407C25.6154 40.7407 26.1819 40.2451 26.1819 39.3246C26.1819 38.3333 26.1819 37.4128 26.1819 36.4216C26.1819 35.5719 25.6154 35.0762 24.7658 35.0762C23.7745 35.0762 22.854 35.0762 21.8627 35.0762C21.013 35.0762 20.5174 35.5719 20.4466 36.4216C20.3758 37.4128 20.3758 38.4749 20.4466 39.4662C20.5174 40.3159 21.013 40.8115 21.8627 40.8115C22.3584 40.7407 22.7832 40.7407 23.2788 40.7407ZM33.4041 40.7407C33.8998 40.7407 34.3954 40.7407 34.891 40.7407C35.7407 40.7407 36.3072 40.2451 36.3072 39.3954C36.378 38.4041 36.378 37.4128 36.3072 36.4216C36.3072 35.5011 35.7407 35.0762 34.8202 35.0762C33.8998 35.0762 32.9085 35.0762 31.988 35.0762C31.1383 35.0762 30.6427 35.5719 30.5719 36.4216C30.5011 37.4837 30.5011 38.4749 30.5719 39.537C30.6427 40.3867 31.2091 40.8115 31.988 40.8115C32.4836 40.7407 32.9085 40.7407 33.4041 40.7407ZM43.5294 40.7407C44.025 40.7407 44.4499 40.7407 44.9455 40.7407C45.866 40.7407 46.4324 40.2451 46.4324 39.3954C46.5032 38.4041 46.5032 37.4128 46.4324 36.4216C46.3616 35.5719 45.866 35.0762 45.0163 35.0762C44.0958 35.0762 43.1045 35.0762 42.1841 35.0762C41.3344 35.0762 40.7679 35.5719 40.6971 36.4216C40.6263 37.4128 40.6263 38.4749 40.6971 39.4662C40.7679 40.3159 41.2636 40.8115 42.1841 40.8115C42.6089 40.7407 43.1045 40.7407 43.5294 40.7407ZM10.817 54.8311C9.25923 54.8311 7.7723 54.8311 6.21457 54.8311C6.00215 54.8311 5.78973 54.8311 5.57731 54.902C5.15247 54.9728 4.86925 55.256 4.79844 55.7516C4.79844 56.2473 5.01086 56.6013 5.50651 56.7429C5.71892 56.8137 6.00215 56.8137 6.28537 56.8137C9.33004 56.8137 12.3747 56.8137 15.4194 56.8137C15.7026 56.8137 16.0566 56.8845 16.1982 56.7429C16.4815 56.5305 16.8355 56.1765 16.8355 55.8932C16.8355 55.61 16.4815 55.256 16.1982 55.0436C16.0566 54.902 15.7734 54.9728 15.561 54.9728C13.9324 54.8311 12.3747 54.8311 10.817 54.8311ZM55.9913 54.8311C54.4335 54.8311 52.805 54.8311 51.2472 54.8311C51.0348 54.8311 50.7516 54.8311 50.61 54.902C50.3268 55.1144 49.9727 55.4684 49.9727 55.7516C49.9727 56.0348 50.3268 56.3889 50.5392 56.6721C50.6808 56.8137 50.964 56.8137 51.1764 56.8137C54.3627 56.8137 57.549 56.8137 60.7353 56.8137C60.9477 56.8137 61.2309 56.8137 61.3725 56.7429C61.6557 56.4597 62.0098 56.1765 62.0098 55.8224C62.0098 55.5392 61.6557 55.1852 61.3725 54.9728C61.2309 54.8311 60.9477 54.902 60.7353 54.902C59.0359 54.8311 57.4782 54.8311 55.9913 54.8311ZM13.1536 23.0392C12.5163 23.0392 11.9499 23.0392 11.3126 23.0392C10.6754 23.0392 10.2505 23.464 10.2505 23.9597C10.2505 24.5261 10.6754 24.951 11.3126 24.951C12.5163 24.951 13.72 24.951 14.9237 24.951C15.561 24.951 15.9858 24.4553 15.9858 23.9597C15.9858 23.3932 15.4902 23.0392 14.8529 23.0392C14.2865 23.0392 13.72 23.0392 13.1536 23.0392ZM23.2788 23.0392C22.6416 23.0392 22.0751 23.0392 21.4379 23.0392C20.8006 23.0392 20.3758 23.464 20.3758 24.0305C20.3758 24.5261 20.8006 25.0218 21.4379 25.0218C22.6416 25.0218 23.8453 25.0218 25.1198 25.0218C25.757 25.0218 26.1819 24.5969 26.1819 24.0305C26.1819 23.464 25.757 23.0392 25.1198 23.0392C24.4825 23.0392 23.8453 23.0392 23.2788 23.0392ZM33.4749 23.0392C32.8377 23.0392 32.2004 23.0392 31.5632 23.0392C30.9259 23.0392 30.5011 23.5348 30.5719 24.0305C30.5719 24.5261 30.9967 24.951 31.5632 24.951C32.8377 24.951 34.0414 24.951 35.3159 24.951C35.9531 24.951 36.378 24.4553 36.3072 23.9597C36.3072 23.464 35.8823 23.0392 35.2451 22.9684C34.6786 23.0392 34.0414 23.0392 33.4749 23.0392ZM43.5294 25.0218C44.0958 25.0218 44.7331 25.0218 45.2995 25.0218C46.0076 25.0218 46.4324 24.5969 46.4324 24.0305C46.4324 23.464 45.9368 23.11 45.2995 23.11C44.1666 23.11 42.9629 23.11 41.83 23.11C41.1928 23.11 40.6971 23.5348 40.6971 24.0305C40.6971 24.5969 41.122 25.0218 41.83 25.0218C42.3965 25.0218 42.9629 25.0218 43.5294 25.0218ZM53.7255 23.0392C53.0882 23.0392 52.5218 23.0392 51.8845 23.0392C51.2472 23.0392 50.8224 23.464 50.8224 24.0305C50.8224 24.5261 51.2472 25.0218 51.8845 25.0218C53.0882 25.0218 54.2919 25.0218 55.5664 25.0218C56.2037 25.0218 56.6285 24.5969 56.6285 24.0305C56.6285 23.464 56.2037 23.0392 55.5664 23.0392C54.8584 23.0392 54.2919 23.0392 53.7255 23.0392Z" fill="white"/>
<path d="M0.974915 11.3562C1.54136 10.0817 2.60345 9.65684 3.94877 9.72764C5.15247 9.79845 6.42698 9.72764 7.70149 9.72764C7.70149 9.37361 7.70149 9.09039 7.70149 8.80716C7.7723 7.17862 9.04681 5.90411 10.6045 5.90411C12.1623 5.90411 13.366 7.17862 13.4368 8.80716C13.4368 9.09039 13.4368 9.37361 13.4368 9.65684C15.3486 9.65684 17.1187 9.65684 19.1013 9.65684C19.1013 9.37361 19.1013 9.09039 19.1013 8.80716C19.1721 7.17862 20.4466 5.90411 22.0043 5.90411C23.5621 5.90411 24.7658 7.17862 24.8366 8.80716C24.8366 9.09039 24.8366 9.37361 24.8366 9.65684C26.6775 9.65684 28.5185 9.65684 30.5011 9.65684C30.5011 9.37361 30.5011 9.09039 30.5011 8.80716C30.5719 7.17862 31.8464 5.90411 33.4041 5.90411C34.9618 5.90411 36.1655 7.17862 36.2364 8.80716C36.2364 9.09039 36.2364 9.37361 36.2364 9.65684C38.1481 9.65684 39.9891 9.65684 41.83 9.65684C41.83 8.45313 41.9008 7.32024 42.9629 6.61217C43.4586 6.25814 44.1666 5.97492 44.8039 5.97492C46.574 5.97492 47.4237 7.10782 47.6361 9.65684C49.4771 9.65684 51.3181 9.65684 53.2298 9.65684C53.2298 8.45313 53.3006 7.32024 54.3627 6.61217C54.8584 6.25814 55.5664 5.97492 56.2037 5.97492C57.9738 5.97492 58.8235 7.10782 59.0359 9.72764C59.2483 9.72764 59.4608 9.72764 59.6732 9.72764C60.8769 9.72764 62.1514 9.72764 63.3551 9.72764C64.842 9.72764 65.6917 10.6481 65.6917 12.1351C65.6917 24.1013 65.6917 36.0675 65.6917 48.0337C65.6917 48.6002 65.5501 49.0958 64.9128 49.2374C64.4172 49.3791 64.0631 49.0958 63.8507 48.671C63.7799 48.4586 63.7799 48.2462 63.7799 47.9629C63.7799 43.3605 63.7799 38.8289 63.7799 34.2266C63.7799 29.695 63.7799 25.2342 63.7799 20.7026C63.7799 20.4902 63.7799 20.2778 63.7799 19.9945C63.1427 19.9945 62.5762 19.9945 61.8682 19.9945C61.8682 20.2069 61.8682 20.4902 61.8682 20.7026C61.8682 28.1372 61.8682 35.5011 61.8682 42.9357C61.8682 43.7854 61.5849 44.4934 60.9477 45.0599C58.6111 47.3965 56.2745 49.7331 53.9379 52.0697C53.3714 52.6361 52.6634 52.9194 51.8137 52.9194C36.8736 52.9194 22.0043 52.9194 7.06424 52.9194C5.36489 52.9194 4.44441 51.7157 4.51522 50.2995C4.58603 46.0512 4.51522 41.732 4.51522 37.4836C4.51522 36.9172 4.65683 36.4923 5.22328 36.3507C6.14376 36.2799 6.6394 36.7048 6.6394 37.4836C6.6394 39.3954 6.6394 41.3072 6.6394 43.2189C6.6394 45.6263 6.6394 47.9629 6.6394 50.3703C6.6394 50.7952 6.71021 51.0784 7.27666 51.0784C22.0043 51.0784 36.732 51.0784 51.5305 51.0784C51.6013 51.0784 51.6721 51.0784 51.8137 51.0784C51.8137 50.866 51.8137 50.6536 51.8137 50.4411C51.8137 48.671 51.8137 46.9008 51.8137 45.1307C51.8137 43.6438 52.6634 42.7941 54.1503 42.7941C56.1329 42.7941 58.0446 42.7941 60.098 42.7941C60.098 35.2178 60.098 27.7124 60.098 20.0653C59.8856 20.0653 59.6732 20.0653 59.4608 20.0653C57.3366 20.0653 55.2124 20.0653 53.0882 20.0653C52.805 20.0653 52.4509 20.0653 52.3093 19.9237C52.0261 19.7113 51.6721 19.3573 51.6721 19.074C51.6721 18.7908 52.0261 18.4368 52.3093 18.1536C52.4509 18.012 52.805 18.0828 53.0174 18.0828C56.3453 18.0828 59.6732 18.0828 63.0011 18.0828C63.2843 18.0828 63.4967 18.0828 63.7799 18.0828C63.7799 17.8703 63.8507 17.7287 63.8507 17.5871C63.8507 15.8878 63.8507 14.1884 63.8507 12.4891C63.8507 11.9934 63.7091 11.781 63.1427 11.781C61.7974 11.781 60.3812 11.781 58.9651 11.781C58.9651 13.0555 58.8943 14.1884 57.8322 14.8965C57.3366 15.2505 56.6285 15.5337 55.9912 15.5337C54.2211 15.5337 53.3714 14.4008 53.159 11.8518C51.318 11.8518 49.4771 11.8518 47.5653 11.8518C47.5653 12.9847 47.4945 14.1884 46.5032 14.8965C46.0076 15.2505 45.2995 15.5337 44.6623 15.6045C42.8921 15.6754 42.0424 14.4717 41.7592 11.9226C39.9183 11.9226 38.0773 11.9226 36.1655 11.9226C36.1655 12.2059 36.1655 12.4183 36.1655 12.7015C36.0947 14.4008 34.8202 15.6754 33.2625 15.6754C31.7048 15.6754 30.4303 14.4008 30.4303 12.7015C30.4303 12.4183 30.4303 12.2059 30.4303 11.9226C28.5185 11.9226 26.7483 11.9226 24.8366 11.9226C24.8366 13.1263 24.7658 14.4008 23.5621 15.1089C23.0664 15.3921 22.4292 15.6045 21.7919 15.6754C20.8714 15.6754 20.0218 15.2505 19.5969 14.4717C19.2429 13.7636 19.1013 12.8431 18.8181 11.9934C17.1187 11.9934 15.2777 11.9934 13.4368 11.9934C13.4368 13.1971 13.366 14.4717 12.1623 15.1797C11.6666 15.4629 10.9586 15.7462 10.3921 15.7462C8.62197 15.7462 7.7723 14.5425 7.55988 11.9934C6.99343 11.9934 6.42698 11.9934 5.86054 11.9934C5.01086 11.9934 4.16119 11.9934 3.24071 11.9934C2.95749 11.9934 2.67426 12.0642 2.67426 12.4183C2.67426 14.33 2.67426 16.2418 2.67426 18.2244C2.95749 18.2244 3.24071 18.2244 3.52393 18.2244C18.1808 18.2244 32.8377 18.2244 47.4237 18.2244C47.7069 18.2244 47.9194 18.2244 48.2026 18.2952C48.6982 18.366 48.9815 18.72 48.9815 19.2157C48.9815 19.7113 48.769 19.9945 48.2734 20.1361C48.2026 19.9237 47.8486 19.9237 47.5653 19.9237C34.2538 19.9237 20.9422 19.9237 7.55988 19.9237C7.27666 19.9237 6.99343 19.9237 6.6394 19.9237C6.6394 20.2069 6.6394 20.4194 6.6394 20.6318C6.6394 24.6677 6.6394 28.7745 6.6394 32.8104C6.6394 33.3061 6.42698 33.7309 5.93134 33.8725C5.4357 34.0141 5.01086 33.8725 4.79844 33.3769C4.72764 33.1645 4.72764 32.8812 4.72764 32.6688C4.72764 28.7037 4.72764 24.7385 4.72764 20.7734C4.72764 20.561 4.72764 20.2778 4.72764 20.0653C4.09038 20.0653 3.52393 20.0653 2.81587 20.0653C2.81587 20.2778 2.81587 20.4902 2.81587 20.7026C2.81587 33.0937 2.81587 45.4847 2.81587 57.805C2.81587 58.6547 2.81587 58.6547 3.73635 58.6547C10.6045 58.6547 17.4727 58.6547 24.3409 58.6547C25.3322 58.6547 25.8279 58.9379 25.8279 59.5751C25.8279 60.2832 25.3322 60.5664 24.3409 60.5664C17.5435 60.5664 10.7462 60.5664 3.94877 60.5664C2.60345 60.5664 1.54136 60.2124 0.974915 58.9379C0.974915 43.0773 0.974915 27.2167 0.974915 11.3562ZM58.8943 44.5642C57.2658 44.5642 55.708 44.5642 54.1503 44.5642C53.7255 44.5642 53.7255 44.8475 53.7255 45.2015C53.7255 46.3344 53.7255 47.4673 53.7255 48.5294C53.7255 48.8834 53.7255 49.3083 53.7255 49.7331C55.4956 47.9629 57.1242 46.3344 58.8943 44.5642ZM11.525 10.6481C11.525 10.0109 11.525 9.44442 11.525 8.80716C11.525 8.16991 11.171 7.81588 10.6045 7.88668C10.0381 7.88668 9.75487 8.24072 9.75487 8.80716C9.75487 10.0817 9.75487 11.2854 9.75487 12.5599C9.75487 13.1263 10.1089 13.4804 10.6045 13.4804C11.171 13.4804 11.525 13.1263 11.525 12.5599C11.525 11.9226 11.525 11.2854 11.525 10.6481ZM22.9248 10.7189C22.9248 10.0817 22.9248 9.44442 22.9248 8.80716C22.9248 8.24072 22.5708 7.88668 22.0043 7.88668C21.4379 7.88668 21.0838 8.24072 21.0838 8.80716C21.0838 10.0817 21.0838 11.3562 21.0838 12.6307C21.0838 13.1971 21.4379 13.5512 22.0043 13.5512C22.5708 13.5512 22.9248 13.1971 22.9248 12.6307C22.9248 11.9934 22.9248 11.3562 22.9248 10.7189ZM34.3246 10.7189C34.3246 10.0817 34.3246 9.44442 34.3246 8.80716C34.3246 8.24072 33.9706 7.88668 33.4041 7.88668C32.8377 7.88668 32.4836 8.24072 32.4836 8.80716C32.4836 10.0817 32.4836 11.3562 32.4836 12.6307C32.4836 13.1971 32.8377 13.5512 33.4041 13.5512C33.9706 13.5512 34.3246 13.1971 34.3246 12.6307C34.3246 11.9934 34.3246 11.3562 34.3246 10.7189ZM43.9542 10.6481C43.9542 11.2854 43.9542 11.9226 43.9542 12.5599C43.9542 13.1263 44.3082 13.4804 44.8747 13.4804C45.4411 13.4804 45.7952 13.1971 45.7952 12.5599C45.7952 11.2854 45.7952 10.0109 45.7952 8.73636C45.7952 8.16991 45.4411 7.81588 44.8747 7.81588C44.3082 7.81588 43.9542 8.16991 43.9542 8.80716C43.8834 9.44442 43.8834 10.0817 43.9542 10.6481ZM57.1242 10.7189C57.1242 10.0817 57.1242 9.44442 57.1242 8.80716C57.1242 8.24072 56.7701 7.88668 56.2037 7.88668C55.6372 7.88668 55.2832 8.24072 55.2832 8.80716C55.2832 10.0817 55.2832 11.3562 55.2832 12.6307C55.2832 13.1971 55.6372 13.5512 56.2037 13.5512C56.7701 13.5512 57.1242 13.1971 57.1242 12.6307C57.195 11.9934 57.1242 11.3562 57.1242 10.7189Z" fill="#2EA7E0"/>
<path d="M43.2462 33.0937C42.3965 33.0229 41.5468 32.598 40.9804 31.5359C40.8388 31.2527 40.6971 31.1819 40.3431 31.1819C32.2712 31.1819 24.2701 31.1819 16.1982 31.1819C15.8442 31.1819 15.7026 31.3235 15.561 31.6067C14.9237 32.7396 13.5784 33.3061 12.3747 33.0229C11.1002 32.6688 10.1797 31.5359 10.1797 30.2614C10.1797 28.9869 11.1002 27.854 12.3747 27.5C13.6492 27.146 14.9237 27.7124 15.561 28.9161C15.7026 29.1993 15.915 29.3409 16.1982 29.3409C24.1993 29.3409 32.2712 29.3409 40.2723 29.3409C40.6971 29.3409 40.8388 29.1285 40.9804 28.8453C41.6884 27.6416 43.1754 27.146 44.4499 27.6416C45.7244 28.1372 46.5032 29.4826 46.22 30.8279C46.0784 32.1732 44.9455 33.1645 43.2462 33.0937ZM14.0741 30.2614C14.0741 29.7658 13.6492 29.3409 13.1536 29.3409C12.6579 29.3409 12.2331 29.7658 12.3039 30.3322C12.3039 30.8279 12.7287 31.2527 13.2244 31.2527C13.6492 31.1819 14.0741 30.7571 14.0741 30.2614ZM43.6002 29.3409C43.1046 29.3409 42.6797 29.7658 42.6797 30.2614C42.6797 30.7571 43.1046 31.1819 43.6002 31.2527C44.0958 31.2527 44.5207 30.8279 44.5207 30.3322C44.4499 29.7658 44.0958 29.3409 43.6002 29.3409Z" fill="#2EA7E0"/>
<path d="M46.5032 60.6373C40.9804 60.6373 35.3867 60.6373 29.8638 60.6373C28.8725 60.6373 28.3061 60.2832 28.3769 59.646C28.3769 59.0087 28.8725 58.7255 29.8638 58.7255C40.9096 58.7255 51.9553 58.7255 63.0011 58.7255C63.9923 58.7255 63.9923 58.7255 63.9923 57.7342C63.9923 56.1765 63.9923 54.6187 63.9923 53.061C63.9923 52.2113 64.3464 51.7865 64.9836 51.7865C65.6209 51.7865 65.9041 52.2113 65.9041 53.061C65.9041 54.7604 65.9041 56.4597 65.9041 58.159C65.9041 59.7168 64.9836 60.6373 63.4967 60.6373C61.7974 60.6373 60.098 60.6373 58.3987 60.6373C54.4335 60.6373 50.4684 60.6373 46.5032 60.6373Z" fill="#2EA7E0"/>
<path d="M33.3333 42.6525C34.537 42.6525 35.3867 43.1481 35.8823 44.1394C36.0947 44.4935 36.3071 44.5643 36.6612 44.5643C37.8649 44.5643 39.0686 44.5643 40.2723 44.5643C40.6263 44.5643 40.8387 44.4935 41.0512 44.1394C41.6884 43.0065 43.0337 42.4401 44.2374 42.7233C45.5119 43.0773 46.4324 44.2102 46.4324 45.4847C46.4324 46.7592 45.5827 47.8921 44.2374 48.2462C43.0337 48.6002 41.6884 48.0338 41.0512 46.9009C40.8387 46.476 40.6263 46.4052 40.2015 46.4052C38.9978 46.4052 37.8649 46.4052 36.6612 46.4052C36.3071 46.4052 36.0239 46.476 35.8115 46.8301C35.1742 47.9629 33.8289 48.5294 32.6252 48.1754C31.3507 47.8213 30.4302 46.6884 30.4302 45.4139C30.4302 44.1394 31.2799 43.0065 32.5544 42.6525C32.9085 42.6525 33.1917 42.6525 33.3333 42.6525ZM33.4041 44.5643C32.9085 44.5643 32.4836 44.9891 32.4836 45.4847C32.4836 45.9804 32.9085 46.4052 33.4041 46.4052C33.8997 46.4052 34.3246 45.9804 34.3246 45.4847C34.3246 44.9891 33.8997 44.5643 33.4041 44.5643ZM43.6002 46.4052C44.0958 46.4052 44.5206 45.9804 44.5206 45.4139C44.5206 44.9183 44.0958 44.4935 43.6002 44.4935C43.1045 44.4935 42.6797 44.9183 42.6797 45.4847C42.6797 45.9804 43.1045 46.4052 43.6002 46.4052Z" fill="#2EA7E0"/>
<path d="M53.7255 40.7407C53.2298 40.7407 52.805 40.7407 52.3093 40.7407C51.3889 40.7407 50.8224 40.2451 50.8224 39.3954C50.7516 38.4041 50.7516 37.4128 50.8224 36.4215C50.8224 35.5719 51.3889 35.0762 52.2385 35.0762C53.159 35.0762 54.1503 35.0762 55.0708 35.0762C55.9913 35.0762 56.4869 35.5719 56.5577 36.4924C56.5577 37.4836 56.6285 38.4041 56.5577 39.3954C56.5577 40.3159 55.9913 40.8115 55.0708 40.8115C54.646 40.7407 54.1503 40.7407 53.7255 40.7407ZM54.5751 36.988C53.9379 36.988 53.3714 36.988 52.805 36.988C52.805 37.6253 52.805 38.1917 52.805 38.829C53.3714 38.829 53.9379 38.829 54.5751 38.829C54.5751 38.1917 54.5751 37.6253 54.5751 36.988Z" fill="#2EA7E0"/>
<path d="M13.1536 48.317C12.6579 48.317 12.2331 48.317 11.7375 48.317C10.817 48.317 10.3213 47.8213 10.2505 46.9008C10.1797 45.9096 10.2505 44.9891 10.2505 43.9978C10.2505 43.0773 10.817 42.5817 11.7375 42.5817C12.6579 42.5817 13.6492 42.5817 14.5697 42.5817C15.4194 42.5817 15.9858 43.0773 15.9858 43.927C16.0566 44.9183 16.0566 45.9096 15.9858 46.9008C15.915 47.8213 15.4194 48.2462 14.4989 48.2462C14.0741 48.317 13.5784 48.317 13.1536 48.317ZM12.2331 46.4052C12.8703 46.4052 13.4368 46.4052 14.0032 46.4052C14.0032 45.7679 14.0032 45.2015 14.0032 44.635C13.366 44.635 12.7995 44.635 12.2331 44.635C12.2331 45.2015 12.2331 45.7679 12.2331 46.4052Z" fill="#2EA7E0"/>
<path d="M53.7255 33.0937C53.2298 33.0937 52.805 33.0937 52.3093 33.0937C51.4597 33.0937 50.8932 32.5981 50.8224 31.7484C50.7516 30.7571 50.7516 29.695 50.8224 28.7037C50.8932 27.854 51.3889 27.3584 52.3093 27.3584C53.2298 27.3584 54.2211 27.3584 55.1416 27.3584C55.9913 27.3584 56.5577 27.854 56.5577 28.7037C56.6285 29.695 56.6285 30.6863 56.5577 31.6776C56.4869 32.598 55.9913 33.0229 55.0708 33.0229C54.646 33.1645 54.1503 33.0937 53.7255 33.0937ZM52.805 31.1819C53.4422 31.1819 54.0087 31.1819 54.5751 31.1819C54.5751 30.5447 54.5751 29.9782 54.5751 29.4118C53.9379 29.4118 53.3714 29.4118 52.805 29.4118C52.805 29.9782 52.805 30.5447 52.805 31.1819Z" fill="#2EA7E0"/>
<path d="M23.2788 42.6525C23.7745 42.6525 24.1993 42.6525 24.695 42.6525C25.5446 42.6525 26.1111 43.1481 26.1819 43.9978C26.2527 44.9891 26.2527 46.0512 26.1819 47.0424C26.1111 47.8921 25.6154 48.3878 24.695 48.3878C23.7745 48.3878 22.854 48.3878 21.9335 48.3878C21.013 48.3878 20.4466 47.8921 20.4466 47.0424C20.3758 46.0512 20.3758 45.0599 20.4466 44.0686C20.4466 43.2189 21.013 42.7233 21.8627 42.7233C22.3584 42.6525 22.7832 42.6525 23.2788 42.6525ZM24.1993 44.5642C23.5621 44.5642 22.9956 44.5642 22.4292 44.5642C22.4292 45.2015 22.4292 45.7679 22.4292 46.4052C23.0664 46.4052 23.6329 46.4052 24.1993 46.4052C24.1993 45.7679 24.1993 45.2015 24.1993 44.5642Z" fill="#2EA7E0"/>
<path d="M13.1536 35.0054C13.6492 35.0054 14.074 35.0054 14.5697 35.0054C15.4194 35.0054 15.9858 35.5011 15.9858 36.3508C16.0566 37.342 16.0566 38.3333 15.9858 39.3246C15.915 40.2451 15.4194 40.6699 14.4989 40.6699C13.5784 40.6699 12.6579 40.6699 11.7374 40.6699C10.817 40.6699 10.3213 40.1743 10.2505 39.2538C10.2505 38.2625 10.2505 37.342 10.2505 36.3508C10.2505 35.4303 10.817 35.0054 11.7374 34.9346C12.2331 35.0054 12.7287 35.0054 13.1536 35.0054ZM14.0032 36.988C13.366 36.988 12.7995 36.988 12.2331 36.988C12.2331 37.6253 12.2331 38.1917 12.2331 38.829C12.8703 38.829 13.4368 38.829 14.0032 38.829C14.0032 38.1917 14.0032 37.5545 14.0032 36.988Z" fill="#2EA7E0"/>
<path d="M23.2788 40.7407C22.7832 40.7407 22.3584 40.7407 21.8627 40.7407C21.013 40.7407 20.4466 40.2451 20.4466 39.3954C20.3758 38.4041 20.3758 37.342 20.4466 36.3507C20.5174 35.5011 21.013 35.0762 21.8627 35.0054C22.854 35.0054 23.7745 35.0054 24.7658 35.0054C25.6154 35.0054 26.1819 35.5011 26.1819 36.3507C26.2527 37.342 26.2527 38.2625 26.1819 39.2538C26.1819 40.1743 25.6154 40.6699 24.695 40.6699C24.1993 40.7407 23.7037 40.7407 23.2788 40.7407ZM22.4292 36.988C22.4292 37.6253 22.4292 38.1917 22.4292 38.829C23.0664 38.829 23.6329 38.829 24.1993 38.829C24.1993 38.1917 24.1993 37.6253 24.1993 36.988C23.5621 36.988 22.9956 36.988 22.4292 36.988Z" fill="#2EA7E0"/>
<path d="M33.4041 40.7407C32.9085 40.7407 32.4836 40.7407 31.988 40.7407C31.1383 40.7407 30.5719 40.2451 30.5719 39.4662C30.5011 38.4041 30.5011 37.4128 30.5719 36.3507C30.6427 35.5011 31.1383 35.0762 31.988 35.0054C32.9085 35.0054 33.8998 35.0054 34.8202 35.0054C35.7407 35.0054 36.2364 35.5011 36.3072 36.3507C36.378 37.342 36.378 38.3333 36.3072 39.3246C36.2364 40.1743 35.7407 40.6699 34.891 40.6699C34.3954 40.7407 33.8998 40.7407 33.4041 40.7407ZM32.5544 36.988C32.5544 37.6253 32.5544 38.1917 32.5544 38.829C33.1917 38.829 33.7581 38.829 34.3246 38.829C34.3246 38.1917 34.3246 37.6253 34.3246 36.988C33.6873 36.988 33.1917 36.988 32.5544 36.988Z" fill="#2EA7E0"/>
<path d="M43.5294 40.7407C43.0337 40.7407 42.6089 40.7407 42.1132 40.7407C41.2636 40.7407 40.6971 40.2451 40.6263 39.3954C40.5555 38.4041 40.5555 37.342 40.6263 36.3507C40.6971 35.5011 41.1928 35.0054 42.1132 35.0054C43.0337 35.0054 44.025 35.0054 44.9455 35.0054C45.7952 35.0054 46.3616 35.5011 46.3616 36.3507C46.4324 37.342 46.4324 38.3333 46.3616 39.3246C46.2908 40.2451 45.7952 40.6699 44.8747 40.6699C44.4498 40.7407 44.025 40.7407 43.5294 40.7407ZM42.6797 38.7582C43.3169 38.7582 43.8834 38.7582 44.4498 38.7582C44.4498 38.1209 44.4498 37.5545 44.4498 36.9172C43.8126 36.9172 43.2461 36.9172 42.6797 36.9172C42.6797 37.5545 42.6797 38.1917 42.6797 38.7582Z" fill="#2EA7E0"/>
<path d="M10.817 54.8311C12.3747 54.8311 13.9324 54.8311 15.4902 54.8311C15.7026 54.8311 15.9858 54.7603 16.1274 54.9019C16.4106 55.1144 16.7647 55.4684 16.7647 55.7516C16.7647 56.0348 16.4106 56.3889 16.1274 56.6013C15.915 56.7429 15.6318 56.6721 15.3485 56.6721C12.3039 56.6721 9.25922 56.6721 6.21456 56.6721C5.93133 56.6721 5.71892 56.6721 5.43569 56.6013C4.94005 56.4597 4.72763 56.1056 4.72763 55.61C4.72763 55.1144 5.01085 54.8311 5.5065 54.7603C5.71892 54.6895 5.93133 54.6895 6.14375 54.6895C7.70149 54.8311 9.25922 54.8311 10.817 54.8311Z" fill="#2EA7E0"/>
<path d="M55.9912 54.8311C57.549 54.8311 59.0359 54.8311 60.5936 54.8311C60.8061 54.8311 61.0893 54.7603 61.2309 54.9019C61.5141 55.1143 61.8682 55.4684 61.8682 55.7516C61.8682 56.0348 61.5141 56.3889 61.2309 56.6721C61.0893 56.8137 60.8061 56.7429 60.5936 56.7429C57.4074 56.7429 54.2211 56.7429 51.0348 56.7429C50.8224 56.7429 50.5392 56.7429 50.3976 56.6013C50.1143 56.3181 49.8311 55.964 49.8311 55.6808C49.8311 55.3976 50.1851 55.0435 50.4684 54.8311C50.61 54.6895 50.8932 54.7603 51.1056 54.7603C52.805 54.8311 54.3627 54.8311 55.9912 54.8311Z" fill="#2EA7E0"/>
<path d="M13.1536 23.0392C13.72 23.0392 14.2865 23.0392 14.8529 23.0392C15.4902 23.0392 15.9858 23.464 15.9858 23.9597C15.9858 24.5261 15.561 24.9509 14.9237 24.9509C13.72 24.9509 12.5163 24.9509 11.3126 24.9509C10.6754 24.9509 10.2505 24.4553 10.2505 23.9597C10.2505 23.464 10.6754 23.0392 11.3126 23.0392C11.9499 23.0392 12.5871 23.0392 13.1536 23.0392Z" fill="#2EA7E0"/>
<path d="M23.2788 23.0392C23.8453 23.0392 24.4826 23.0392 25.049 23.0392C25.6863 23.0392 26.1819 23.464 26.1111 24.0305C26.1111 24.5261 25.6863 24.951 25.049 25.0218C23.8453 25.0218 22.6416 25.0218 21.3671 25.0218C20.7298 25.0218 20.305 24.5969 20.305 24.0305C20.305 23.5348 20.7298 23.11 21.3671 23.0392C22.0751 23.0392 22.7124 23.0392 23.2788 23.0392Z" fill="#2EA7E0"/>
<path d="M33.4749 23.0392C34.0414 23.0392 34.6786 23.0392 35.2451 23.0392C35.8823 23.0392 36.3072 23.464 36.3072 24.0305C36.3072 24.5261 35.8823 25.0218 35.3159 25.0218C34.0414 25.0218 32.8377 25.0218 31.5632 25.0218C30.9967 25.0218 30.5719 24.5969 30.5719 24.1013C30.5719 23.6056 30.9967 23.11 31.5632 23.11C32.2004 23.0392 32.8377 23.0392 33.4749 23.0392Z" fill="#2EA7E0"/>
<path d="M43.5294 25.0218C42.9629 25.0218 42.3965 25.0218 41.83 25.0218C41.122 25.0218 40.6971 24.5969 40.6971 24.0305C40.6971 23.464 41.1928 23.11 41.83 23.11C42.9629 23.11 44.1666 23.11 45.2995 23.11C45.9368 23.11 46.4324 23.5348 46.4324 24.0305C46.4324 24.5969 46.0076 25.0218 45.2995 25.0218C44.7331 25.0218 44.0958 25.0218 43.5294 25.0218Z" fill="#2EA7E0"/>
<path d="M53.7254 23.0392C54.2919 23.0392 54.9291 23.0392 55.4956 23.0392C56.1328 23.0392 56.6285 23.464 56.5577 24.0305C56.5577 24.5261 56.1328 24.951 55.4956 25.0218C54.2919 25.0218 53.0882 25.0218 51.8137 25.0218C51.1764 25.0218 50.7516 24.5969 50.7516 24.0305C50.7516 23.5348 51.1764 23.11 51.8137 23.0392C52.5217 23.0392 53.0882 23.0392 53.7254 23.0392Z" fill="#2EA7E0"/>
<path d="M58.8943 44.5643C57.1242 46.3344 55.4248 48.0338 53.6547 49.8039C53.6547 49.3083 53.6547 48.9542 53.6547 48.6002C53.6547 47.4673 53.6547 46.3344 53.6547 45.2723C53.6547 44.9891 53.6547 44.6351 54.0795 44.6351C55.708 44.5643 57.2658 44.5643 58.8943 44.5643Z" fill="white"/>
<path d="M11.525 10.6482C11.525 11.2854 11.525 11.9227 11.525 12.5599C11.525 13.1972 11.171 13.5512 10.6046 13.4804C10.0381 13.4804 9.75488 13.1264 9.75488 12.5599C9.75488 11.2854 9.75488 10.0817 9.75488 8.8072C9.75488 8.24075 10.1089 7.88672 10.6046 7.88672C11.171 7.88672 11.525 8.24075 11.525 8.8072C11.525 9.44445 11.525 10.0817 11.525 10.6482Z" fill="white"/>
<path d="M22.9248 10.719C22.9248 11.3562 22.9248 11.9935 22.9248 12.6307C22.9248 13.1972 22.5708 13.5512 22.0043 13.5512C21.4379 13.5512 21.0838 13.1972 21.0838 12.6307C21.0838 11.3562 21.0838 10.0817 21.0838 8.8072C21.0838 8.24075 21.4379 7.88672 22.0043 7.88672C22.5708 7.88672 22.9248 8.24075 22.9248 8.8072C22.9248 9.44445 22.9248 10.0817 22.9248 10.719Z" fill="white"/>
<path d="M34.3246 10.719C34.3246 11.3562 34.3246 11.9935 34.3246 12.6307C34.3246 13.1972 33.9706 13.5512 33.4041 13.5512C32.8377 13.5512 32.4836 13.1972 32.4836 12.6307C32.4836 11.3562 32.4836 10.0817 32.4836 8.8072C32.4836 8.24075 32.8377 7.88672 33.4041 7.88672C33.9706 7.88672 34.2538 8.24075 34.3246 8.8072C34.3246 9.44445 34.3246 10.0817 34.3246 10.719Z" fill="white"/>
<path d="M43.8834 10.6482C43.8834 10.0109 43.8834 9.44446 43.8834 8.8072C43.8834 8.16995 44.2375 7.81592 44.8039 7.81592C45.3704 7.81592 45.7244 8.16995 45.7244 8.7364C45.7244 10.0109 45.7244 11.2854 45.7244 12.5599C45.7244 13.1264 45.3704 13.4804 44.8039 13.4804C44.2375 13.4804 43.9542 13.1264 43.8834 12.5599C43.8834 11.9227 43.9542 11.2854 43.8834 10.6482Z" fill="white"/>
<path d="M57.1242 10.719C57.1242 11.3562 57.1242 11.9935 57.1242 12.6307C57.1242 13.1972 56.7701 13.5512 56.2037 13.5512C55.6372 13.5512 55.2832 13.1972 55.2832 12.6307C55.2832 11.3562 55.2832 10.0817 55.2832 8.8072C55.2832 8.24075 55.6372 7.88672 56.2037 7.88672C56.7701 7.88672 57.1242 8.24075 57.1242 8.8072C57.195 9.44445 57.1242 10.0817 57.1242 10.719Z" fill="white"/>
<path d="M14.074 30.2614C14.074 30.7571 13.72 31.1819 13.2244 31.2527C12.7287 31.2527 12.3039 30.8279 12.3039 30.3322C12.3039 29.8366 12.6579 29.4117 13.1536 29.3409C13.5784 29.3409 14.074 29.7658 14.074 30.2614Z" fill="white"/>
<path d="M43.6002 29.3409C44.0958 29.3409 44.5207 29.7658 44.5207 30.3322C44.5207 30.8279 44.0958 31.2527 43.6002 31.2527C43.1046 31.2527 42.6797 30.8279 42.6797 30.2614C42.6797 29.7658 43.1046 29.3409 43.6002 29.3409Z" fill="white"/>
<path d="M33.4041 44.5643C33.8998 44.5643 34.3246 44.9891 34.3246 45.4847C34.3246 45.9804 33.8998 46.4052 33.4041 46.4052C32.9085 46.4052 32.4836 45.9804 32.4836 45.4847C32.4836 44.9891 32.9085 44.5643 33.4041 44.5643Z" fill="white"/>
<path d="M43.6002 46.4052C43.1046 46.4052 42.6797 45.9804 42.6797 45.4848C42.6797 44.9891 43.1046 44.5643 43.6002 44.4935C44.0958 44.4935 44.5207 44.9183 44.5207 45.4139C44.4499 45.9804 44.0958 46.4052 43.6002 46.4052Z" fill="white"/>
<path d="M54.5751 36.988C54.5751 37.6253 54.5751 38.1917 54.5751 38.829C54.0087 38.829 53.4422 38.829 52.805 38.829C52.805 38.1917 52.805 37.6253 52.805 36.988C53.3714 36.988 53.9379 36.988 54.5751 36.988Z" fill="white"/>
<path d="M12.2331 46.4052C12.2331 45.768 12.2331 45.2015 12.2331 44.6351C12.7995 44.6351 13.366 44.6351 14.0032 44.6351C14.0032 45.2015 14.0032 45.768 14.0032 46.4052C13.4368 46.4052 12.8703 46.4052 12.2331 46.4052Z" fill="white"/>
<path d="M52.805 31.1819C52.805 30.5446 52.805 29.9782 52.805 29.4117C53.3714 29.4117 53.9379 29.4117 54.5751 29.4117C54.5751 29.9782 54.5751 30.5446 54.5751 31.1819C54.0087 31.1819 53.4422 31.1819 52.805 31.1819Z" fill="white"/>
<path d="M24.1993 44.5643C24.1993 45.1307 24.1993 45.768 24.1993 46.4052C23.6329 46.4052 23.0664 46.4052 22.4292 46.4052C22.4292 45.768 22.4292 45.2015 22.4292 44.5643C22.9956 44.5643 23.5621 44.5643 24.1993 44.5643Z" fill="white"/>
<path d="M14.0032 36.988C14.0032 37.6253 14.0032 38.1917 14.0032 38.829C13.4368 38.829 12.8703 38.829 12.2331 38.829C12.2331 38.2625 12.2331 37.6253 12.2331 36.988C12.8703 36.988 13.4368 36.988 14.0032 36.988Z" fill="white"/>
<path d="M22.4292 36.988C23.0664 36.988 23.5621 36.988 24.1993 36.988C24.1993 37.6253 24.1993 38.1917 24.1993 38.829C23.6329 38.829 23.0664 38.829 22.4292 38.829C22.4292 38.1917 22.4292 37.6253 22.4292 36.988Z" fill="white"/>
<path d="M32.5544 36.988C33.1917 36.988 33.7581 36.988 34.3246 36.988C34.3246 37.6253 34.3246 38.1917 34.3246 38.829C33.7581 38.829 33.1917 38.829 32.5544 38.829C32.5544 38.1917 32.5544 37.6253 32.5544 36.988Z" fill="white"/>
<path d="M42.6797 38.7581C42.6797 38.1209 42.6797 37.5544 42.6797 36.9172C43.2462 36.9172 43.8126 36.9172 44.4499 36.9172C44.4499 37.4836 44.4499 38.1209 44.4499 38.7581C43.8834 38.7581 43.317 38.7581 42.6797 38.7581Z" fill="white"/>
</g>
<defs>
<clipPath id="clip0_228_168">
<rect width="65" height="65" fill="white" transform="translate(0.974915 0.806091)"/>
</clipPath>
</defs>
</svg>
