<svg width="36" height="36" viewBox="0 0 36 36" fill="none" xmlns="http://www.w3.org/2000/svg">
<g clip-path="url(#clip0_185_766)">
<path d="M31.7045 0.154787C31.7045 0.154787 31.8268 0.154787 31.8268 0.277165C33.173 0.644298 34.0296 1.50094 34.2744 2.8471C34.5192 4.19325 34.0296 5.41703 32.9282 6.15129C32.4387 6.51842 32.194 6.88556 32.194 7.49744C32.194 16.3086 32.194 25.1198 32.194 33.8086C32.194 33.931 32.194 34.1758 32.194 34.2981C32.0716 34.7877 31.5821 35.0324 31.0926 35.0324C30.6031 35.0324 30.2359 34.5429 30.2359 34.0534C30.2359 33.931 30.2359 33.8086 30.2359 33.5639C30.2359 24.8751 30.2359 16.0639 30.2359 7.37507C30.2359 6.76318 29.9912 6.27367 29.5017 5.90654C28.4003 5.17227 27.9108 4.07087 28.1555 2.72472C28.4003 1.37856 29.2569 0.399543 30.6031 0.154787C30.6031 0.154787 30.7254 0.154787 30.7254 0.0324097C30.9702 0.154787 31.3373 0.154787 31.7045 0.154787ZM31.215 4.80514C31.4597 4.68276 31.7045 4.438 31.9492 4.31563C32.4387 3.94849 32.5611 3.45898 32.3164 2.96947C32.194 2.47996 31.7045 2.23521 31.215 2.23521C30.7254 2.23521 30.2359 2.60234 30.1136 3.09185C29.9912 3.58136 30.1136 4.07087 30.6031 4.31563C30.7254 4.438 30.9702 4.56038 31.215 4.80514Z" fill="#2EA7E0"/>
<path d="M22.8933 0.154785C23.0157 0.154785 23.138 0.277163 23.2604 0.277163C24.6066 0.644296 25.3408 1.50094 25.5856 2.84709C25.8303 4.19325 25.3408 5.29465 24.2394 6.02891C23.6275 6.39604 23.5052 6.88555 23.5052 7.49744C23.5052 16.1863 23.5052 24.8751 23.5052 33.5639C23.5052 33.6863 23.5052 33.931 23.5052 34.0534C23.5052 34.6653 23.0157 35.0324 22.5262 35.0324C21.9143 35.0324 21.5471 34.6653 21.4248 34.0534C21.4248 33.931 21.4248 33.8086 21.4248 33.6863C21.4248 24.8751 21.4248 16.1863 21.4248 7.37506C21.4248 6.76318 21.18 6.39604 20.6905 6.15129C19.4667 5.41702 18.9772 4.19325 19.222 2.84709C19.4667 1.62332 20.4457 0.644296 21.7919 0.277163H21.9143C22.2814 0.154785 22.5261 0.154785 22.8933 0.154785ZM22.4038 4.80513C22.6485 4.68276 22.8933 4.56038 23.0157 4.31562C23.5052 3.94849 23.6275 3.45898 23.5052 3.09185C23.3828 2.60234 22.8933 2.2352 22.4038 2.2352C21.9143 2.2352 21.4248 2.60234 21.3024 2.96947C21.18 3.45898 21.3024 3.94849 21.7919 4.31562C21.9143 4.438 22.159 4.68276 22.4038 4.80513Z" fill="#2EA7E0"/>
<path d="M5.3933 0.154785C5.63805 0.277163 5.88281 0.277163 6.12756 0.39954C7.22896 0.889051 7.84085 1.74569 7.96322 2.96947C8.0856 4.19325 7.71847 5.29465 6.61707 6.02891C6.12756 6.39604 5.88281 6.88555 5.88281 7.49744C5.88281 16.1863 5.88281 24.8751 5.88281 33.5639C5.88281 33.6863 5.88281 33.8086 5.88281 34.0534C5.88281 34.6653 5.39329 35.0324 4.90378 35.0324C4.2919 35.0324 3.92476 34.6653 3.92476 34.0534C3.92476 33.931 3.92476 33.8086 3.92476 33.6863C3.92476 24.8751 3.92476 16.1863 3.92476 7.37506C3.92476 6.76318 3.68001 6.39604 3.1905 6.02891C2.0891 5.29465 1.47721 4.31562 1.72197 2.96947C1.96672 1.50094 2.82336 0.521918 4.16952 0.277163C4.16952 0.277163 4.2919 0.277163 4.2919 0.154785C4.65903 0.154785 5.02616 0.154785 5.3933 0.154785ZM4.90378 4.80513C5.14854 4.68276 5.39329 4.438 5.51567 4.31562C6.00518 3.94849 6.12756 3.58136 6.00518 3.09185C5.76043 2.47996 5.39329 2.2352 4.90378 2.2352C4.41427 2.2352 3.92476 2.60234 3.80239 2.96947C3.55763 3.45898 3.80239 3.94849 4.16952 4.31562C4.41427 4.438 4.65903 4.56038 4.90378 4.80513Z" fill="#2EA7E0"/>
<path d="M14.0821 0.154785C14.2045 0.154785 14.3269 0.277163 14.5716 0.277163C15.7954 0.644296 16.5297 1.50094 16.7744 2.72471C17.0192 4.07087 16.5297 5.04989 15.5507 5.90653C15.3059 6.02891 15.0611 6.15129 14.9388 6.39604C14.8164 6.6408 14.694 7.00793 14.694 7.25269C14.694 9.33311 14.694 11.2911 14.694 13.3716C14.694 20.2247 14.694 26.9555 14.694 33.8086C14.694 34.0534 14.694 34.2981 14.5716 34.4205C14.4493 34.91 13.9597 35.1548 13.4702 35.0324C12.9807 35.0324 12.6136 34.6653 12.6136 34.1758C12.6136 34.0534 12.6136 33.8086 12.6136 33.6863C12.6136 24.9974 12.6136 16.3086 12.6136 7.49744C12.6136 6.76318 12.3688 6.39604 11.7569 6.02891C10.6555 5.29465 10.2884 4.07087 10.5332 2.84709C10.7779 1.37856 11.5122 0.521918 12.9807 0.277163C12.9807 0.277163 13.1031 0.277163 13.1031 0.154785C13.4702 0.154785 13.8374 0.154785 14.0821 0.154785ZM13.5926 4.80513C13.8374 4.68276 13.9597 4.56038 14.2045 4.31562C14.694 3.94849 14.8164 3.45898 14.694 2.96947C14.5716 2.47996 14.0821 2.2352 13.5926 2.2352C13.1031 2.2352 12.6136 2.60234 12.4912 3.09185C12.3688 3.58136 12.4912 4.07087 12.9807 4.438C13.2255 4.438 13.4702 4.68276 13.5926 4.80513Z" fill="#2EA7E0"/>
</g>
<defs>
<clipPath id="clip0_185_766">
<rect width="35" height="35" fill="white" transform="translate(0.498169 0.154785)"/>
</clipPath>
</defs>
</svg>
