<svg width="36" height="36" viewBox="0 0 36 36" fill="none" xmlns="http://www.w3.org/2000/svg">
<g clip-path="url(#clip0_185_763)">
<path d="M21.7937 0.931763C21.9161 0.931763 22.1608 0.931763 22.2832 0.931763C22.8951 1.17652 23.1399 1.54365 23.0175 2.27792C23.0175 2.52267 23.0175 2.76743 23.0175 3.01218C23.3846 3.01218 23.6294 3.01218 23.8741 3.01218C24.6084 3.01218 25.0979 3.37932 25.0979 4.23596C25.0979 5.0926 25.0979 5.94925 25.0979 6.80589C25.0979 6.92827 25.0979 7.05064 25.0979 7.17302C25.8322 7.17302 26.4441 7.17302 27.056 7.17302C27.056 7.05064 27.056 6.92827 27.056 6.92827C27.056 6.07162 27.056 5.21498 27.056 4.35834C27.056 3.62407 27.4231 3.25694 28.2797 3.25694C28.5245 3.25694 28.8916 3.25694 29.1364 3.25694C29.1364 3.01218 29.1364 2.76743 29.1364 2.52267C29.1364 1.91078 29.3811 1.42127 29.8706 1.17652C29.993 1.17652 30.2378 1.17652 30.3601 1.17652C31.3392 1.54365 31.0944 2.40029 31.0944 3.25694C31.4615 3.25694 31.7063 3.25694 32.0734 3.25694C32.6853 3.25694 33.1748 3.74645 33.1748 4.35834C33.1748 4.84785 33.1748 5.21498 33.1748 5.70449C33.1748 6.31638 33.1748 6.80589 33.1748 7.41778C33.4196 7.41778 33.6643 7.41778 33.9091 7.41778C34.6434 7.2954 35.1329 7.78491 35.1329 8.64155C35.1329 17.4527 35.1329 26.1416 35.1329 34.9527C35.1329 35.687 34.6434 36.1765 33.9091 36.1765C23.1399 36.1765 12.3706 36.1765 1.6014 36.1765C0.989515 36.1765 0.500004 35.9318 0.255249 35.4423C0.255249 26.3863 0.255249 17.208 0.255249 8.15204C0.867137 6.92827 1.72378 7.05064 2.58042 7.05064C2.58042 6.92827 2.58042 6.80589 2.58042 6.68351C2.58042 5.82687 2.58042 4.97022 2.58042 3.9912C2.58042 3.37932 2.94756 3.01218 3.55944 3.01218C3.92658 3.01218 4.17133 3.01218 4.53847 3.01218C4.66084 2.15554 4.41609 1.2989 5.39511 0.931763C5.51749 0.931763 5.76224 0.931763 5.88462 0.931763C6.49651 1.17652 6.74126 1.54365 6.61889 2.27792C6.61889 2.52267 6.61889 2.76743 6.61889 3.01218C6.98602 3.01218 7.23077 3.01218 7.47553 3.01218C8.20979 3.01218 8.6993 3.37932 8.6993 4.23596C8.6993 5.0926 8.6993 5.94925 8.6993 6.80589C8.6993 6.92827 8.6993 7.05064 8.6993 7.17302C9.43357 7.17302 10.0455 7.17302 10.6573 7.17302C10.6573 7.05064 10.6573 6.92827 10.6573 6.92827C10.6573 6.07162 10.6573 5.21498 10.6573 4.35834C10.6573 3.62407 11.0245 3.25694 11.8811 3.25694C12.1259 3.25694 12.493 3.25694 12.7378 3.25694C12.7378 3.01218 12.7378 2.76743 12.7378 2.52267C12.7378 1.91078 12.9825 1.42127 13.472 1.17652C13.5944 1.17652 13.8392 1.17652 13.9615 1.17652C14.9406 1.54365 14.6958 2.40029 14.6958 3.25694C15.0629 3.25694 15.3077 3.25694 15.6748 3.25694C16.4091 3.25694 16.7762 3.62407 16.7762 4.35834C16.7762 5.21498 16.7762 6.07162 16.7762 6.92827C16.7762 7.05064 16.7762 7.17302 16.7762 7.2954C17.5105 7.2954 18.1224 7.2954 18.8566 7.2954C18.8566 7.17302 18.8566 7.05064 18.8566 6.92827C18.8566 6.07162 18.8566 5.21498 18.8566 4.23596C18.8566 3.62407 19.3462 3.13456 19.958 3.13456C20.3252 3.13456 20.5699 3.13456 20.9371 3.13456C21.0594 2.15554 20.8147 1.2989 21.7937 0.931763ZM2.58042 33.729C12.8601 33.729 23.1399 33.729 33.2972 33.729C33.2972 32.9947 33.2972 32.3828 33.2972 31.7709C23.0175 31.7709 12.7378 31.7709 2.58042 31.7709C2.58042 32.3828 2.58042 33.1171 2.58042 33.729ZM8.6993 29.6905C8.6993 27.6101 8.6993 25.652 8.6993 23.5716C6.61889 23.5716 4.66084 23.5716 2.58042 23.5716C2.58042 25.652 2.58042 27.6101 2.58042 29.6905C4.66084 29.6905 6.61889 29.6905 8.6993 29.6905ZM16.8986 29.6905C16.8986 27.6101 16.8986 25.652 16.8986 23.5716C14.8182 23.5716 12.8601 23.5716 10.7797 23.5716C10.7797 25.652 10.7797 27.6101 10.7797 29.6905C12.8601 29.6905 14.8182 29.6905 16.8986 29.6905ZM18.979 23.5716C18.979 25.652 18.979 27.6101 18.979 29.6905C21.0594 29.6905 23.0175 29.6905 25.0979 29.6905C25.0979 27.6101 25.0979 25.652 25.0979 23.5716C23.0175 23.5716 21.0594 23.5716 18.979 23.5716ZM27.1783 23.5716C27.1783 25.652 27.1783 27.6101 27.1783 29.6905C29.2587 29.6905 31.2168 29.6905 33.2972 29.6905C33.2972 27.6101 33.2972 25.652 33.2972 23.5716C31.3392 23.5716 29.2587 23.5716 27.1783 23.5716ZM8.6993 9.13106C6.61889 9.13106 4.66084 9.13106 2.58042 9.13106C2.58042 11.2115 2.58042 13.1695 2.58042 15.2499C4.66084 15.2499 6.61889 15.2499 8.6993 15.2499C8.6993 13.2919 8.6993 11.2115 8.6993 9.13106ZM10.7797 9.13106C10.7797 11.2115 10.7797 13.1695 10.7797 15.2499C12.8601 15.2499 14.8182 15.2499 16.8986 15.2499C16.8986 13.1695 16.8986 11.2115 16.8986 9.13106C14.8182 9.13106 12.8601 9.13106 10.7797 9.13106ZM25.0979 15.2499C25.0979 13.1695 25.0979 11.2115 25.0979 9.13106C23.0175 9.13106 21.0594 9.13106 18.979 9.13106C18.979 11.2115 18.979 13.1695 18.979 15.2499C21.0594 15.2499 23.0175 15.2499 25.0979 15.2499ZM27.1783 15.2499C29.2587 15.2499 31.2168 15.2499 33.2972 15.2499C33.2972 13.1695 33.2972 11.2115 33.2972 9.13106C31.2168 9.13106 29.2587 9.13106 27.1783 9.13106C27.1783 11.2115 27.1783 13.2919 27.1783 15.2499ZM6.61889 17.3304C6.61889 17.6975 6.61889 17.9423 6.61889 18.187C6.61889 18.9213 6.25175 19.4108 5.51749 19.2884C4.9056 19.2884 4.53847 18.7989 4.53847 18.0646C4.53847 17.8199 4.53847 17.4527 4.53847 17.208C3.8042 17.208 3.19231 17.208 2.45805 17.208C2.45805 18.5541 2.45805 19.9003 2.45805 21.2464C4.53847 21.2464 6.49651 21.2464 8.57693 21.2464C8.57693 19.9003 8.57693 18.5541 8.57693 17.208C7.96504 17.3304 7.35315 17.3304 6.61889 17.3304ZM10.7797 17.3304C10.7797 18.6765 10.7797 20.0227 10.7797 21.3688C12.8601 21.3688 14.8182 21.3688 16.8986 21.3688C16.8986 20.0227 16.8986 18.6765 16.8986 17.3304C16.1643 17.3304 15.5525 17.3304 14.8182 17.3304C14.8182 17.6975 14.8182 17.9423 14.8182 18.187C14.8182 18.7989 14.4511 19.2884 13.8392 19.2884C13.2273 19.2884 12.8601 18.7989 12.7378 18.187C12.7378 17.9423 12.7378 17.5751 12.7378 17.3304C12.1259 17.3304 11.514 17.3304 10.7797 17.3304ZM18.979 17.3304C18.979 18.6765 18.979 20.0227 18.979 21.3688C21.0594 21.3688 23.0175 21.3688 25.0979 21.3688C25.0979 20.0227 25.0979 18.6765 25.0979 17.3304C24.3636 17.3304 23.7518 17.3304 23.0175 17.3304C23.0175 17.6975 23.0175 17.9423 23.0175 18.3094C23.0175 18.9213 22.528 19.4108 21.9161 19.4108C21.3042 19.4108 20.9371 18.9213 20.9371 18.3094C20.9371 17.9423 20.9371 17.6975 20.9371 17.3304C20.3252 17.3304 19.7133 17.3304 18.979 17.3304ZM27.1783 17.3304C27.1783 18.6765 27.1783 20.0227 27.1783 21.3688C29.2587 21.3688 31.2168 21.3688 33.2972 21.3688C33.2972 20.0227 33.2972 18.6765 33.2972 17.3304C32.5629 17.3304 31.9511 17.3304 31.2168 17.3304C31.2168 17.6975 31.2168 17.9423 31.2168 18.187C31.2168 18.7989 30.8497 19.2884 30.2378 19.2884C29.6259 19.2884 29.2587 18.7989 29.1364 18.187C29.1364 17.9423 29.1364 17.5751 29.1364 17.3304C28.5245 17.3304 27.9126 17.3304 27.1783 17.3304ZM6.61889 5.0926C5.88462 5.0926 5.27273 5.0926 4.66084 5.0926C4.66084 5.82687 4.66084 6.43876 4.66084 7.05064C5.27273 7.05064 6.007 7.05064 6.61889 7.05064C6.61889 6.43876 6.61889 5.70449 6.61889 5.0926ZM14.8182 5.0926C14.0839 5.0926 13.472 5.0926 12.8601 5.0926C12.8601 5.82687 12.8601 6.43876 12.8601 7.05064C13.5944 7.05064 14.2063 7.05064 14.8182 7.05064C14.8182 6.43876 14.8182 5.70449 14.8182 5.0926ZM21.0594 7.05064C21.7937 7.05064 22.4056 7.05064 23.0175 7.05064C23.0175 6.31638 23.0175 5.70449 23.0175 5.0926C22.2832 5.0926 21.6713 5.0926 21.0594 5.0926C21.0594 5.70449 21.0594 6.31638 21.0594 7.05064ZM29.2587 5.0926C29.2587 5.82687 29.2587 6.43876 29.2587 7.05064C29.993 7.05064 30.6049 7.05064 31.2168 7.05064C31.2168 6.31638 31.2168 5.70449 31.2168 5.0926C30.6049 5.0926 29.993 5.0926 29.2587 5.0926Z" fill="#2EA7E0"/>
</g>
<defs>
<clipPath id="clip0_185_763">
<rect width="35" height="35" fill="white" transform="translate(0.5 0.931763)"/>
</clipPath>
</defs>
</svg>
