<svg width="66" height="66" viewBox="0 0 66 66" fill="none" xmlns="http://www.w3.org/2000/svg">
<g clip-path="url(#clip0_228_225)">
<path d="M65.9749 9.69385C65.9749 28.3979 65.9749 47.102 65.9749 65.8061C44.2861 65.8061 22.6637 65.8061 0.974915 65.8061C0.974915 44.1173 0.974915 22.4949 0.974915 0.806091C22.6637 0.806091 44.2861 0.806091 65.9749 0.806091C65.9749 3.06119 65.9749 5.24997 65.9749 7.50507C65.9086 7.43874 65.8423 7.37242 65.8423 7.30609C64.98 3.06119 61.0668 0.275479 56.8882 1.0714C52.7096 1.86732 50.0565 5.78058 50.7198 10.0918C51.5157 14.9336 57.0872 17.7857 61.531 15.5969C62.128 15.3316 62.3933 14.801 62.1943 14.2704C61.9953 13.7398 61.3984 13.5408 60.7351 13.8061C60.6025 13.8724 60.4698 13.9387 60.3372 14.0051C58.878 14.602 57.3525 14.5357 55.8933 13.8724C53.4392 12.7449 52.179 10.3571 52.577 7.63772C52.9086 5.24997 55.031 3.3265 57.6178 2.99487C60.6688 2.59691 63.6535 5.05099 63.8525 8.16834C63.9188 9.49487 63.6535 10.7551 62.9239 11.8826C62.7249 12.1479 62.5259 12.5459 62.5923 12.8775C62.6586 13.2092 62.9902 13.5408 63.3218 13.6071C63.7198 13.8061 64.1178 13.5408 64.3831 13.1428C65.2453 12.0816 65.6433 10.8877 65.9749 9.69385ZM18.7504 43.1224C18.6178 43.0561 18.4851 43.0561 18.4188 42.9898C15.9647 42.1275 13.577 43.7194 13.5106 46.3061C13.4443 48.0306 13.4443 49.7551 13.5106 51.4132C13.5106 52.6734 13.6433 53.8673 13.7759 55.1275C13.8423 55.7908 14.2402 56.1224 14.8372 56.0561C15.3678 55.9898 15.6994 55.5918 15.6994 54.9285C15.6331 54.1989 15.5004 53.5357 15.5004 52.8061C15.4341 50.6836 15.4341 48.4949 15.5004 46.3724C15.5004 45.3775 16.2963 44.7143 17.1586 44.7143C18.0872 44.7143 18.7504 45.5102 18.7504 46.5051C18.7504 46.903 18.7504 47.3673 18.7504 47.7653C18.8167 48.2959 19.1484 48.6938 19.679 48.6938C20.2096 48.6938 20.5412 48.4285 20.6739 47.8979C20.7402 47.6989 20.7402 47.5 20.7402 47.301C20.7402 46.1734 20.7402 45.0459 20.7402 43.852C20.7402 42.8571 21.4698 42.1275 22.3984 42.1275C23.327 42.1275 23.9902 42.8571 23.9902 43.852C23.9902 44.7143 23.9902 45.5102 23.9902 46.3724C23.9902 47.1683 24.3882 47.6326 25.0514 47.6326C25.6484 47.6326 25.98 47.1683 25.98 46.3724C25.98 45.2449 25.98 44.1836 25.98 43.0561C25.98 42.3265 26.5106 41.6632 27.1739 41.5306C27.9035 41.3316 28.6331 41.5969 28.9647 42.2602C29.1637 42.5918 29.23 43.0561 29.23 43.4541C29.2963 44.7806 29.23 46.1734 29.23 47.5C29.23 48.0969 29.6943 48.4949 30.2249 48.4285C30.6892 48.4285 31.0872 48.0306 31.1535 47.5C31.1535 47.301 31.1535 47.102 31.1535 46.8367C31.1535 43.9183 31.1535 41.0663 31.1535 38.1479C31.1535 36.7551 31.1535 35.3622 31.1535 33.9694C31.1535 33.1071 31.6178 32.4438 32.3474 32.1785C33.4749 31.8469 34.4698 32.6428 34.4698 33.903C34.4698 39.9387 34.4698 45.9081 34.4698 51.9438C34.4698 52.1428 34.4698 52.3418 34.4698 52.6071C34.5361 53.1377 34.8678 53.4694 35.3984 53.4694C35.8627 53.4694 36.2606 53.2041 36.327 52.7398C36.3933 52.4745 36.3933 52.2091 36.3933 51.9438C36.3933 46.1071 36.3933 40.2704 36.3933 34.5C36.3933 34.102 36.3933 33.7704 36.327 33.3724C36.0616 31.4489 34.5361 30.1887 32.5463 30.2551C30.7555 30.3214 29.2963 31.8469 29.23 33.704C29.1637 35.1632 29.23 36.6224 29.23 38.0816C29.23 38.6785 29.23 39.2092 29.23 39.8724C27.3729 39.1428 25.9137 39.5408 24.6535 40.9336C22.0668 39.1428 19.3474 40.5357 18.7504 43.1224ZM28.1688 65.4081C28.1688 65.4745 28.1688 65.4745 28.1688 65.5408C29.429 65.5408 30.6892 65.6071 31.9494 65.5408C33.077 65.4745 34.2045 65.3418 35.2657 65.0102C37.6535 64.2143 39.179 62.4234 40.1739 60.2347C41.4341 57.6479 41.8321 54.9285 41.8984 52.0765C41.9647 50.6836 42.1637 49.3571 42.6943 48.0969C43.2912 46.6377 43.0259 45.2449 41.9647 44.051C40.8372 42.8571 39.4443 42.4592 37.8525 42.9234C37.0565 43.1224 36.7249 43.653 36.8576 44.1836C37.0565 44.7806 37.5208 44.9796 38.3831 44.7806C38.4494 44.7806 38.5157 44.7806 38.5821 44.7143C39.378 44.5816 40.0412 44.7806 40.5055 45.3775C41.0361 45.9745 41.1688 46.7041 40.8372 47.4336C40.0412 49.0255 39.9086 50.8163 39.8423 52.5408C39.7096 54.9285 39.378 57.25 38.3167 59.3724C36.9902 62.0918 34.9341 63.6836 31.8167 63.6173C29.3627 63.551 26.9086 63.6173 24.3882 63.6173C22.3984 63.6173 20.6739 62.9541 19.1484 61.6938C17.8882 60.6326 17.0259 59.2398 16.3627 57.7143C16.031 56.9847 15.5004 56.7194 14.9698 56.9847C14.3729 57.25 14.1739 57.8469 14.6382 58.5102C15.4341 59.8367 16.1637 61.1632 17.0923 62.2908C18.6841 64.1479 20.7402 65.2755 23.1943 65.4081C24.9188 65.4745 26.577 65.4081 28.1688 65.4081ZM33.5412 0.938744C29.3627 0.938744 25.8474 4.38772 25.8474 8.63262C25.8474 12.8112 29.3627 16.3265 33.5412 16.3265C37.7198 16.3265 41.1688 12.8775 41.2351 8.69895C41.3014 4.52038 37.7861 1.00507 33.5412 0.938744ZM16.429 8.63262C16.429 4.45405 12.98 1.00507 8.80145 0.938744C4.55655 0.938744 1.10757 4.45405 1.10757 8.69895C1.10757 12.8775 4.62287 16.3265 8.80145 16.3265C13.0463 16.3265 16.429 12.8775 16.429 8.63262ZM33.5412 26.1428C35.9953 26.1428 38.2504 27.7347 38.9137 30.0561C39.6433 32.3775 39.0463 34.3673 37.3219 36.0255C36.7912 36.5561 36.7249 37.153 37.1229 37.551C37.5208 37.9489 38.0514 37.9489 38.6484 37.4183C41.3014 35.0306 41.8984 31.1836 40.2402 28.0663C38.5157 24.9489 34.9341 23.4234 31.4851 24.2857C26.577 25.6122 24.2555 31.25 26.8423 35.6275C27.1739 36.2245 27.7045 36.4234 28.2351 36.1581C28.7657 35.8928 28.8984 35.3622 28.5667 34.7653C28.5004 34.6326 28.4341 34.5 28.3678 34.3673C26.5106 30.653 29.2963 26.0765 33.5412 26.1428ZM51.9137 15.4643C51.6484 15.1326 51.5157 14.7347 51.2504 14.6683C50.9188 14.5357 50.3882 14.602 50.1892 14.801C49.1943 15.5969 48.2657 16.4592 47.3372 17.3214C44.8167 19.6428 42.2963 21.8979 39.7759 24.2194C39.2453 24.6836 39.179 25.2806 39.577 25.7449C39.9749 26.1428 40.5055 26.2092 41.0361 25.7449C44.4851 22.6275 47.9341 19.5102 51.3167 16.3928C51.5157 16.0612 51.6484 15.7959 51.9137 15.4643ZM26.8423 24.9489C26.7096 24.8163 26.577 24.4183 26.3116 24.2194C23.0616 21.102 19.8116 17.9847 16.5616 14.801C16.429 14.6683 16.2963 14.5357 16.1637 14.4694C15.5668 14.1377 14.7708 14.403 14.7045 15.1326C14.7045 15.5306 14.9698 15.9949 15.2351 16.2602C18.4188 19.3775 21.6688 22.4949 24.9188 25.6122C25.0514 25.7449 25.1841 25.8775 25.3831 25.9438C26.0463 26.3418 26.8423 25.9438 26.8423 24.9489ZM34.5361 20.3061C34.5361 19.7092 34.5361 19.1785 34.5361 18.5816C34.5361 17.9183 34.1382 17.5204 33.5412 17.5204C33.0106 17.5204 32.5463 17.9183 32.5463 18.5816C32.5463 19.7092 32.5463 20.8367 32.5463 21.9643C32.5463 22.6275 32.9443 23.0255 33.5412 23.0255C34.1382 23.0255 34.5361 22.6275 34.5361 21.9643C34.5361 21.4336 34.5361 20.903 34.5361 20.3061Z" fill="white"/>
<path d="M65.9749 9.69382C65.6432 10.954 65.3116 12.1479 64.5157 13.1428C64.2504 13.5408 63.8524 13.7397 63.4545 13.6071C63.1228 13.4744 62.7912 13.1428 62.7249 12.8775C62.6585 12.6122 62.8575 12.2142 63.0565 11.8826C63.7861 10.755 64.0514 9.49484 63.9851 8.16831C63.7861 5.11729 60.8014 2.66321 57.7504 2.99484C55.23 3.32648 53.1075 5.24994 52.7096 7.6377C52.3116 10.2908 53.5718 12.7448 56.0259 13.8724C57.4851 14.5357 58.9442 14.602 60.4698 14.005C60.6024 13.9387 60.7351 13.8724 60.8677 13.8061C61.531 13.5408 62.0616 13.7397 62.3269 14.2704C62.5259 14.801 62.2606 15.3316 61.6636 15.5969C57.2198 17.7857 51.6483 14.9336 50.8524 10.0918C50.0565 5.78056 52.7096 1.86729 56.8881 1.07137C61.0667 0.275455 65.0463 2.99484 65.8422 7.30607C65.8422 7.37239 65.9085 7.43872 65.9749 7.50505C65.9749 8.23464 65.9749 8.96423 65.9749 9.69382Z" fill="#2EA7E0"/>
<path d="M18.7504 43.1224C19.3474 40.602 22.0667 39.1428 24.6535 40.9336C25.8474 39.5408 27.3729 39.1428 29.23 39.8724C29.23 39.2091 29.23 38.6785 29.23 38.0816C29.23 36.6224 29.23 35.1632 29.23 33.704C29.2963 31.8469 30.7555 30.3214 32.5463 30.2551C34.5361 30.1887 36.128 31.4489 36.3269 33.3724C36.3933 33.7704 36.3933 34.102 36.3933 34.5C36.3933 40.3367 36.3933 46.1734 36.3933 51.9438C36.3933 52.2091 36.3933 52.4744 36.3269 52.7398C36.1943 53.2704 35.8627 53.5357 35.3984 53.4693C34.8678 53.4693 34.5361 53.1377 34.4698 52.6071C34.4035 52.4081 34.4698 52.2091 34.4698 51.9438C34.4698 45.9081 34.4698 39.9387 34.4698 33.903C34.4698 32.6428 33.4749 31.8469 32.3474 32.1785C31.6178 32.3775 31.2198 33.0408 31.1535 33.9693C31.1535 35.3622 31.1535 36.7551 31.1535 38.1479C31.1535 41.0663 31.1535 43.9183 31.1535 46.8367C31.1535 47.0357 31.1535 47.2347 31.1535 47.5C31.0872 48.0306 30.7555 48.4285 30.2249 48.4285C29.6943 48.4285 29.23 48.0306 29.23 47.5C29.23 46.1734 29.23 44.7806 29.23 43.454C29.23 43.0561 29.1637 42.5918 28.9647 42.2602C28.6331 41.5969 27.9035 41.3316 27.1739 41.5306C26.5106 41.6632 25.98 42.3265 25.98 43.0561C25.98 44.1836 25.98 45.2449 25.98 46.3724C25.98 47.1683 25.6484 47.6326 25.0514 47.6326C24.3882 47.6326 24.0565 47.2346 23.9902 46.3724C23.9902 45.5102 23.9902 44.7142 23.9902 43.852C23.9902 42.8571 23.3269 42.1938 22.3984 42.1275C21.4698 42.1275 20.7402 42.7908 20.7402 43.852C20.7402 44.9796 20.7402 46.1071 20.7402 47.301C20.7402 47.5 20.7402 47.6989 20.6739 47.8979C20.6076 48.4285 20.2096 48.7602 19.679 48.6938C19.1484 48.6938 18.8167 48.2959 18.7504 47.7653C18.6841 47.3673 18.7504 46.903 18.7504 46.5051C18.7504 45.5102 18.0872 44.7806 17.1586 44.7142C16.2963 44.7142 15.5004 45.3775 15.5004 46.3724C15.5004 48.4949 15.5004 50.6836 15.5004 52.8061C15.5004 53.5357 15.6331 54.1989 15.6994 54.9285C15.7657 55.5918 15.4341 55.9898 14.8372 56.0561C14.2402 56.1224 13.8423 55.7908 13.7759 55.1275C13.6433 53.8673 13.5106 52.6734 13.5106 51.4132C13.4443 49.6887 13.4443 47.9642 13.5106 46.3061C13.5769 43.7193 15.9647 42.1275 18.4188 42.9898C18.4851 42.9898 18.6178 43.0561 18.7504 43.1224Z" fill="#2EA7E0"/>
<path d="M28.1688 65.4081C26.577 65.4081 24.9851 65.4745 23.3933 65.4081C20.9392 65.2091 18.8831 64.0816 17.2913 62.2908C16.2964 61.1632 15.5668 59.7704 14.8372 58.5102C14.4392 57.8469 14.6382 57.25 15.1688 56.9847C15.6994 56.7194 16.23 56.9847 16.5617 57.7143C17.2249 59.2398 18.0872 60.5663 19.3474 61.6938C20.8729 62.954 22.5974 63.6173 24.5872 63.6173C27.0413 63.6173 29.4953 63.551 32.0157 63.6173C35.1331 63.6836 37.2555 62.0918 38.5157 59.3724C39.577 57.1836 39.9749 54.8622 40.0413 52.5408C40.1076 50.8163 40.2402 49.0255 41.0361 47.4336C41.3678 46.704 41.2351 45.9745 40.7045 45.3775C40.1739 44.7806 39.5106 44.5816 38.781 44.7142C38.7147 44.7142 38.6484 44.7143 38.5821 44.7806C37.7198 44.9796 37.1892 44.7806 37.0566 44.1836C36.9239 43.5867 37.2555 43.1224 38.0515 42.9234C39.6433 42.4591 41.0361 42.8571 42.1637 44.051C43.2249 45.2449 43.4902 46.6377 42.8933 48.0969C42.3627 49.3571 42.0974 50.6836 42.0974 52.0765C42.031 54.9285 41.5668 57.6479 40.3729 60.2347C39.3117 62.4234 37.7861 64.2143 35.4647 65.0102C34.4035 65.3418 33.2759 65.4745 32.1484 65.5408C30.8882 65.6071 29.628 65.5408 28.3678 65.5408C28.1688 65.4745 28.1688 65.4081 28.1688 65.4081Z" fill="#2EA7E0"/>
<path d="M33.5412 0.938721C37.7198 0.938721 41.2351 4.52035 41.2351 8.69892C41.1688 12.9438 37.7198 16.3265 33.5412 16.3265C29.3627 16.3265 25.8474 12.8112 25.8474 8.6326C25.8474 4.45403 29.3627 0.938721 33.5412 0.938721ZM39.2453 8.69892C39.2453 5.58158 36.6586 2.99484 33.5412 2.99484C30.4239 2.99484 27.8371 5.51525 27.8371 8.6326C27.8371 11.7499 30.3576 14.3367 33.4749 14.403C36.5922 14.403 39.2453 11.8163 39.2453 8.69892Z" fill="#2EA7E0"/>
<path d="M16.429 8.6326C16.429 12.8775 13.0463 16.3265 8.80142 16.3265C4.62285 16.3265 1.10754 12.8775 1.10754 8.69892C1.10754 4.3877 4.55652 0.938721 8.80142 0.938721C12.98 1.00505 16.429 4.3877 16.429 8.6326ZM8.80142 2.92852C5.68407 2.92852 3.09734 5.51525 3.09734 8.6326C3.09734 11.7499 5.61775 14.2704 8.73509 14.3367C11.8524 14.3367 14.4392 11.8163 14.5055 8.6326C14.5055 5.58158 11.9188 2.92852 8.80142 2.92852Z" fill="#2EA7E0"/>
<path d="M33.5413 26.1428C29.2964 26.1428 26.5106 30.6531 28.4341 34.4337C28.5004 34.5663 28.5668 34.699 28.6331 34.8316C28.8984 35.4286 28.7657 35.9592 28.3015 36.2245C27.7708 36.4898 27.3066 36.2908 26.9086 35.6939C24.3219 31.3826 26.6433 25.6786 31.5515 24.352C34.9341 23.4235 38.5821 25.0153 40.3066 28.1326C42.031 31.25 41.3678 35.0969 38.7147 37.4847C38.1841 38.0153 37.6535 38.0153 37.1892 37.6173C36.7249 37.1531 36.7913 36.6224 37.3882 36.0918C39.1127 34.4337 39.6433 32.3775 38.98 30.1224C38.2504 27.7347 35.9953 26.1428 33.5413 26.1428Z" fill="#2EA7E0"/>
<path d="M51.9137 15.4642C51.6484 15.7959 51.5157 16.1275 51.3167 16.3265C47.8678 19.4438 44.4851 22.5612 41.0361 25.6785C40.5055 26.1428 39.9749 26.1428 39.5769 25.6785C39.179 25.2806 39.2453 24.6836 39.7759 24.153C42.2963 21.8316 44.8167 19.5765 47.3371 17.255C48.2657 16.3928 49.1943 15.5306 50.1892 14.7346C50.4545 14.5357 50.9851 14.5357 51.2504 14.602C51.5157 14.7346 51.6484 15.1326 51.9137 15.4642Z" fill="#2EA7E0"/>
<path d="M26.8423 24.9489C26.8423 25.8775 26.0464 26.3418 25.3831 25.9438C25.2504 25.8775 25.0515 25.7448 24.9188 25.6122C21.6688 22.4948 18.4188 19.3775 15.2351 16.2602C14.9698 15.9948 14.7045 15.5306 14.7045 15.1326C14.7045 14.4693 15.5004 14.1377 16.1637 14.4693C16.2964 14.5357 16.429 14.6683 16.5617 14.801C19.8117 17.9183 23.0617 21.0357 26.3117 24.2193C26.577 24.4846 26.7096 24.8163 26.8423 24.9489Z" fill="#2EA7E0"/>
<path d="M34.5361 20.3061C34.5361 20.9031 34.5361 21.4337 34.5361 22.0306C34.5361 22.6939 34.1382 23.0918 33.5412 23.0918C32.9443 23.0918 32.5463 22.6939 32.5463 22.0306C32.5463 20.9031 32.5463 19.7755 32.5463 18.648C32.5463 17.9847 32.9443 17.5867 33.5412 17.5867C34.0718 17.5867 34.4698 17.9847 34.5361 18.648C34.5361 19.1786 34.5361 19.7755 34.5361 20.3061Z" fill="#2EA7E0"/>
<path d="M39.2453 8.69892C39.2453 11.8163 36.5923 14.403 33.4749 14.403C30.3576 14.403 27.7709 11.7499 27.8372 8.63259C27.8372 5.51525 30.4239 2.99484 33.5413 2.99484C36.6586 2.92851 39.2453 5.51525 39.2453 8.69892Z" fill="white"/>
<path d="M8.80146 2.92853C11.9188 2.92853 14.5055 5.51526 14.5055 8.63261C14.5055 11.75 11.8525 14.3367 8.73513 14.3367C5.61779 14.3367 3.09738 11.75 3.09738 8.63261C3.03105 5.51526 5.61779 2.92853 8.80146 2.92853Z" fill="white"/>
</g>
<defs>
<clipPath id="clip0_228_225">
<rect width="65" height="65" fill="white" transform="translate(0.974915 0.806091)"/>
</clipPath>
</defs>
</svg>
