<svg width="29" height="28" viewBox="0 0 29 28" fill="none" xmlns="http://www.w3.org/2000/svg">
<path opacity="0.2" d="M14.249 27.2489C22.1186 27.2489 28.4981 21.2048 28.4981 13.749C28.4981 6.29316 22.1186 0.249023 14.249 0.249023C6.37952 0.249023 0 6.29316 0 13.749C0 21.2048 6.37952 27.2489 14.249 27.2489Z" fill="white"/>
<path d="M11.1983 19.4371C12.0569 19.931 13.0492 20.2115 14.1075 20.2115C17.3374 20.2115 19.9625 17.5847 19.9625 14.3553C19.9625 11.1258 17.3374 8.49902 14.1075 8.49902H14.105C10.8751 8.49902 8.25 11.1251 8.25 14.3553C8.25 15.494 8.57676 16.5603 9.14318 17.461L8.62468 19.0066L8.15376 20.4103L9.56411 19.9595L11.1983 19.4371Z" stroke="white" stroke-width="1.5"/>
<path d="M16.6504 16.8564L16.6071 16.8997C16.3912 17.1174 16.1017 17.2467 15.7954 17.2623H15.5816C14.4506 17.2623 13.5415 16.8401 12.581 15.8823C11.5608 14.8622 11.1496 13.9016 11.2064 12.6678H11.2064C11.2219 12.3615 11.3512 12.072 11.5689 11.856L11.6122 11.8127C11.8862 11.5377 12.2734 11.4072 12.6579 11.4604C13.0423 11.5136 13.3796 11.7442 13.5686 12.0833L13.6281 12.1915H13.6281C13.7032 12.3285 13.732 12.486 13.71 12.6407C13.6881 12.7953 13.6166 12.9387 13.5063 13.0493L13.1438 13.4119C13.3531 13.8148 13.6273 14.1804 13.9555 14.4942C14.2693 14.8224 14.6349 15.0966 15.0378 15.3059L15.3977 14.9487C15.5109 14.8376 15.6575 14.7667 15.815 14.7471C15.9725 14.7276 16.132 14.7604 16.269 14.8405L16.3772 14.9001C16.7163 15.0891 16.9469 15.4263 17.0001 15.8108C17.0533 16.1953 16.9228 16.5824 16.6478 16.8563L16.6504 16.8564Z" fill="white"/>
</svg>
