<svg width="29" height="28" viewBox="0 0 29 28" fill="none" xmlns="http://www.w3.org/2000/svg">
<path opacity="0.2" d="M14.7471 27.248C22.6166 27.248 28.9962 21.2039 28.9962 13.748C28.9962 6.2922 22.6166 0.248047 14.7471 0.248047C6.87757 0.248047 0.498047 6.2922 0.498047 13.748C0.498047 21.2039 6.87757 27.248 14.7471 27.248Z" fill="white"/>
<path d="M17.2576 19.6326H12.2365C11.2554 19.6316 10.3147 19.2618 9.62099 18.6045C8.92725 17.9472 8.53705 17.056 8.53601 16.1264V11.3693C8.53712 10.4397 8.92735 9.54859 9.62109 8.89132C10.3148 8.23405 11.2554 7.86433 12.2365 7.86328H17.2576C18.2387 7.86426 19.1794 8.23395 19.8732 8.89123C20.567 9.54851 20.9572 10.4397 20.9583 11.3693V16.1264C20.9573 17.056 20.5671 17.9473 19.8733 18.6046C19.1795 19.2619 18.2388 19.6316 17.2576 19.6326ZM12.2365 9.04705C11.5867 9.04777 10.9637 9.29267 10.5042 9.72801C10.0447 10.1634 9.78622 10.7536 9.78546 11.3693V16.1264C9.78622 16.742 10.0447 17.3323 10.5042 17.7676C10.9637 18.2029 11.5867 18.4477 12.2365 18.4484H17.2576C17.9074 18.4477 18.5303 18.2029 18.9898 17.7676C19.4492 17.3322 19.7077 16.742 19.7084 16.1264V11.3693C19.7077 10.7536 19.4493 10.1634 18.9898 9.72802C18.5303 9.29267 17.9074 9.04777 17.2576 9.04705H12.2365ZM14.7464 16.7915C14.111 16.7913 13.49 16.6126 12.9618 16.278C12.4336 15.9434 12.022 15.468 11.779 14.9118C11.536 14.3556 11.4726 13.7436 11.5967 13.1532C11.7208 12.5628 12.0269 12.0206 12.4762 11.595C12.9256 11.1694 13.498 10.8797 14.1212 10.7623C14.7444 10.645 15.3903 10.7054 15.9773 10.9358C16.5643 11.1662 17.0659 11.5564 17.4188 12.057C17.7718 12.5575 17.9601 13.146 17.9601 13.748C17.9592 14.555 17.6205 15.3288 17.0181 15.8994C16.4157 16.4701 15.5982 16.7908 14.7464 16.7915ZM14.7464 11.887C14.3581 11.887 13.9785 11.9961 13.6557 12.2004C13.3329 12.4048 13.0812 12.6953 12.9326 13.0352C12.784 13.375 12.7452 13.749 12.8209 14.1098C12.8967 14.4706 13.0836 14.8021 13.3582 15.0622C13.6328 15.3223 13.9826 15.4995 14.3634 15.5712C14.7442 15.643 15.1389 15.6062 15.4977 15.4654C15.8564 15.3246 16.163 15.0862 16.3787 14.7803C16.5944 14.4744 16.7096 14.1148 16.7096 13.747C16.7088 13.2541 16.5017 12.7817 16.1339 12.4332C15.766 12.0848 15.2674 11.8887 14.7472 11.888L14.7464 11.887ZM17.9653 11.4552C17.813 11.4552 17.6642 11.4123 17.5376 11.3321C17.411 11.2519 17.3123 11.138 17.2541 11.0047C17.1959 10.8714 17.1807 10.7247 17.2105 10.5832C17.2402 10.4417 17.3136 10.3117 17.4213 10.2097C17.529 10.1077 17.6662 10.0383 17.8156 10.0102C17.965 9.98212 18.1198 9.99661 18.2605 10.0519C18.4011 10.1071 18.5213 10.2007 18.6059 10.3207C18.6905 10.4407 18.7356 10.5817 18.7355 10.726C18.7355 10.9194 18.6545 11.105 18.5102 11.2419C18.366 11.3788 18.1703 11.4559 17.9661 11.4562L17.9653 11.4552Z" fill="white"/>
</svg>
