<svg width="14" height="12" viewBox="0 0 14 12" fill="none" xmlns="http://www.w3.org/2000/svg">
<path fill-rule="evenodd" clip-rule="evenodd" d="M12.25 11.249H1.75C0.785167 11.249 0 10.4265 0 9.41569V2.08236C0 1.07158 0.785167 0.249023 1.75 0.249023H12.25C13.2148 0.249023 14 1.07158 14 2.08236V9.41569C14 10.4265 13.2148 11.249 12.25 11.249ZM1.75 10.0268H12.25C12.5714 10.0268 12.8333 9.75302 12.8333 9.41569V2.20641L7.36633 6.83497C7.25958 6.92602 7.13008 6.97125 7 6.97125C6.86992 6.97125 6.74042 6.92602 6.63367 6.83497L1.16667 2.20641V9.41569C1.16667 9.75302 1.42858 10.0268 1.75 10.0268ZM11.8463 1.47125H2.15367L7 5.57425L11.8463 1.47125Z" fill="white"/>
</svg>
