<svg width="15" height="16" viewBox="0 0 15 16" fill="none" xmlns="http://www.w3.org/2000/svg">
<path fill-rule="evenodd" clip-rule="evenodd" d="M2.92698 15.249C2.77566 15.249 2.62879 15.194 2.51435 15.0934L0.453126 13.2821C-0.270401 12.5609 -0.12099 11.3296 0.854945 9.58215C1.6802 8.10277 3.01853 6.4059 4.62199 4.80465C7.38894 2.03715 10.2277 0.249023 11.8541 0.249023C12.4441 0.249023 12.7976 0.478398 12.9896 0.670898L14.8423 2.75027C14.9529 2.87527 15.0095 3.03902 14.9987 3.2059C14.9879 3.37277 14.911 3.52777 14.7844 3.63777L11.6583 6.34652C11.4675 6.51215 11.1941 6.54652 10.9691 6.4334L8.87096 5.38465L5.13189 9.12277L6.18094 11.2196C6.29348 11.4453 6.26042 11.7165 6.09511 11.9078L3.40064 15.0321C3.29129 15.1584 3.13679 15.2359 2.97021 15.2478C2.95559 15.2484 2.94097 15.249 2.92698 15.249ZM11.8541 1.49902C10.7815 1.49902 8.25616 2.93777 5.50574 5.6884C3.98175 7.2109 2.7178 8.81027 1.94659 10.1915C1.10799 11.6934 1.21862 12.2821 1.29491 12.3578L2.86531 13.7378L4.87631 11.4065L3.812 9.27902C3.69183 9.0384 3.73952 8.74777 3.92962 8.55715L8.30575 4.18277C8.49712 3.99152 8.7864 3.94527 9.02737 4.06527L11.1547 5.1284L13.4868 3.10715L12.1192 1.5684C12.0601 1.52152 11.9825 1.49902 11.8541 1.49902Z" fill="white"/>
</svg>
