<svg width="10" height="14" viewBox="0 0 10 14" fill="none" xmlns="http://www.w3.org/2000/svg">
<path fill-rule="evenodd" clip-rule="evenodd" d="M5.36167 13.8594C5.25778 13.9533 5.12889 14 5 14C4.87111 14 4.74222 13.9533 4.63833 13.8594C4.44889 13.6885 0 9.62792 0 5.27508C0 2.36658 2.24278 0 5 0C7.75722 0 10 2.36658 10 5.27508C10 9.62792 5.55111 13.6885 5.36167 13.8594ZM5 1.16667C2.85611 1.16667 1.11111 3.00942 1.11111 5.27508C1.11111 8.42625 3.97111 11.5885 4.99944 12.6233C6.02778 11.5873 8.88889 8.42042 8.88889 5.27508C8.88889 3.00942 7.14389 1.16667 5 1.16667ZM5 7.6265C3.77444 7.6265 2.77778 6.58 2.77778 5.29317C2.77778 4.00633 3.77444 2.95983 5 2.95983C6.22556 2.95983 7.22222 4.00633 7.22222 5.29317C7.22222 6.58 6.22556 7.6265 5 7.6265ZM5 4.1265C4.38778 4.1265 3.88889 4.65033 3.88889 5.29317C3.88889 5.93658 4.38778 6.45983 5 6.45983C5.61222 6.45983 6.11111 5.93658 6.11111 5.29317C6.11111 4.65033 5.61222 4.1265 5 4.1265Z" fill="white"/>
</svg>
