<svg width="41" height="41" viewBox="0 0 41 41" fill="none" xmlns="http://www.w3.org/2000/svg">
<rect x="0.120117" y="0.915527" width="40.1538" height="39.2183" rx="19.6091" fill="#51CB5F"/>
<path d="M16.5791 26.8337C17.7849 27.5114 19.1721 27.8952 20.649 27.8952C25.2482 27.8952 28.9858 24.1551 28.9858 19.5567C28.9858 14.9583 25.2482 11.2181 20.649 11.2181H20.6455C16.0464 11.2181 12.3087 14.9573 12.3087 19.5567C12.3087 21.146 12.7558 22.6365 13.5333 23.903L12.8399 25.9698L12.0661 28.2764L14.3835 27.5356L16.5791 26.8337Z" fill="#51CB5F" stroke="white" stroke-width="2.46469"/>
<path d="M24.188 23.0372L24.1277 23.0975C23.8271 23.4005 23.4242 23.5804 22.998 23.602H22.7005C21.1265 23.602 19.8612 23.0146 18.5246 21.6816C17.1049 20.2619 16.5326 18.9251 16.6117 17.208H16.6116C16.6332 16.7817 16.8131 16.3789 17.1161 16.0783L17.1764 16.018C17.5576 15.6352 18.0965 15.4537 18.6316 15.5277C19.1666 15.6017 19.636 15.9227 19.899 16.3946L19.9819 16.5452H19.9818C20.0864 16.7358 20.1265 16.9551 20.0959 17.1703C20.0654 17.3855 19.9658 17.585 19.8123 17.739L19.3078 18.2435C19.5991 18.8043 19.9807 19.3131 20.4375 19.7498C20.8741 20.2066 21.383 20.5881 21.9437 20.8795L22.4445 20.3824C22.602 20.2276 22.8061 20.129 23.0253 20.1018C23.2445 20.0746 23.4664 20.1202 23.6571 20.2318L23.8077 20.3146C24.2796 20.5776 24.6006 21.0469 24.6745 21.5821C24.7486 22.1172 24.567 22.656 24.1842 23.0371L24.188 23.0372Z" fill="white"/>
</svg>
