<svg width="41" height="40" viewBox="0 0 41 40" fill="none" xmlns="http://www.w3.org/2000/svg">
<rect x="0.120117" y="0.212646" width="40.1538" height="39.2183" rx="19.6091" fill="#181D62"/>
<path d="M28.5307 19.3319C28.522 19.3319 28.5137 19.3319 28.5051 19.3317C28.0189 19.318 27.6358 18.9125 27.6495 18.4263C27.6948 16.8305 27.1226 15.3018 26.0387 14.1224C24.9845 12.9757 23.5273 12.2827 21.9357 12.1717C21.4508 12.1377 21.0846 11.7169 21.1184 11.2317C21.1524 10.7464 21.5753 10.3792 22.0583 10.4144C24.101 10.5572 25.9752 11.4504 27.3353 12.9304C28.7315 14.4498 29.4685 16.4194 29.4099 18.4763C29.397 18.9536 29.0053 19.3318 28.5304 19.3318L28.5307 19.3319ZM25.4006 19.3132C25.3727 19.3132 25.3451 19.312 25.3168 19.3091C24.8327 19.2637 24.4768 18.8341 24.5227 18.3497C24.5979 17.5521 24.3589 16.8827 23.771 16.2429C23.1238 15.5383 22.3506 15.1549 21.6134 15.1734C21.6073 15.1736 21.6013 15.1736 21.5952 15.1736C21.117 15.1736 20.7247 14.7909 20.715 14.3109C20.705 13.8247 21.091 13.4225 21.5776 13.4125C22.8364 13.3858 24.074 13.9691 25.0678 15.0509C25.9914 16.0558 26.3977 17.2214 26.2756 18.5146C26.233 18.9712 25.8497 19.3132 25.4006 19.3132L25.4006 19.3132Z" fill="white"/>
<path d="M23.5385 29.2316C23.3712 29.2316 23.2135 29.2085 23.0698 29.1632C20.5676 28.3764 17.8841 26.6772 15.7095 24.5011C13.5341 22.3266 11.8342 19.6427 11.0464 17.1382C10.8601 16.5491 11.0755 15.7015 11.5266 15.2503L13.4395 13.3371C13.8099 12.966 14.3028 12.7615 14.8277 12.7615C15.3505 12.7615 15.842 12.9646 16.2114 13.334L17.7349 14.858C18.1054 15.2278 18.3085 15.7205 18.3071 16.2454C18.3059 16.7682 18.1015 17.2601 17.7315 17.6301L16.9666 18.395C16.8888 18.473 16.8874 18.5989 16.9639 18.6757L21.5347 23.2466C21.5816 23.2935 21.6356 23.3033 21.6723 23.3033C21.7104 23.3033 21.7657 23.2931 21.8146 23.244L22.5802 22.4789C22.9519 22.1072 23.445 21.9029 23.9695 21.9029C24.4921 21.9029 24.9831 22.1062 25.3526 22.4758L26.8757 23.999C27.6393 24.7626 27.6381 26.0059 26.8731 26.7707L24.9612 28.6828C24.5828 29.062 23.9739 29.2316 23.5385 29.2316Z" fill="white"/>
</svg>
