<svg width="114" height="46" viewBox="0 0 114 46" fill="none" xmlns="http://www.w3.org/2000/svg">
<g clip-path="url(#clip0_173_23)">
<path d="M18.3247 6.71974C17.6254 9.8897 14.4554 12.5003 11.2389 12.5003C8.06889 12.5003 6.06435 9.93632 6.76361 6.71974C7.50948 3.50315 10.6794 0.939209 13.8494 0.939209C17.0194 0.939209 19.0239 3.50315 18.3247 6.71974Z" fill="#181D62"/>
<path d="M11.2389 4.01606C11.099 4.57546 10.5396 5.04163 9.98019 5.04163C9.42078 5.04163 9.09446 4.57546 9.1877 4.01606C9.32755 3.45665 9.88695 2.99048 10.4464 2.99048C11.0058 2.99048 11.3787 3.45665 11.2389 4.01606Z" fill="white"/>
<path d="M14.1757 4.01606C14.0359 4.57546 13.4765 5.04163 12.917 5.04163C12.3576 5.04163 12.0313 4.57546 12.1246 4.01606C12.2644 3.45665 12.8238 2.99048 13.3832 2.99048C13.9426 2.99048 14.2689 3.45665 14.1757 4.01606Z" fill="white"/>
<path d="M17.1126 4.01606C16.9728 4.57546 16.4134 5.04163 15.854 5.04163C15.2945 5.04163 14.9682 4.57546 15.0615 4.01606C15.2013 3.45665 15.7607 2.99048 16.3201 2.99048C16.8795 2.99048 17.2058 3.45665 17.1126 4.01606Z" fill="white"/>
<path d="M10.5862 6.81318C10.4463 7.37258 9.88694 7.83875 9.32753 7.83875C8.76812 7.83875 8.4418 7.37258 8.53504 6.81318C8.67489 6.25377 9.2343 5.7876 9.7937 5.7876C10.3531 5.7876 10.726 6.25377 10.5862 6.81318Z" fill="white"/>
<path d="M13.5231 6.81342C13.3833 7.37283 12.8238 7.839 12.2644 7.839C11.705 7.839 11.3787 7.37283 11.472 6.81342C11.6118 6.25401 12.1712 5.78784 12.7306 5.78784C13.29 5.78784 13.663 6.25401 13.5231 6.81342Z" fill="white"/>
<path d="M16.46 6.81342C16.3201 7.37283 15.7607 7.839 15.2013 7.839C14.6419 7.839 14.3156 7.37283 14.4088 6.81342C14.5487 6.25401 15.1081 5.78784 15.6675 5.78784C16.2269 5.78784 16.5998 6.25401 16.46 6.81342Z" fill="white"/>
<path d="M9.98018 9.61054C9.84033 10.1699 9.28093 10.6361 8.72152 10.6361C8.16211 10.6361 7.83579 10.1699 7.92903 9.61054C8.06888 9.05113 8.62829 8.58496 9.18769 8.58496C9.7471 8.58496 10.0734 9.05113 9.98018 9.61054Z" fill="white"/>
<path d="M12.9171 9.61078C12.7772 10.1702 12.2178 10.6364 11.6584 10.6364C11.099 10.6364 10.7727 10.1702 10.8659 9.61078C11.0058 9.05138 11.5652 8.58521 12.1246 8.58521C12.684 8.58521 13.0103 9.05138 12.9171 9.61078Z" fill="white"/>
<path d="M15.8539 9.61078C15.7141 10.1702 15.1547 10.6364 14.5953 10.6364C14.0359 10.6364 13.7096 10.1702 13.8028 9.61078C13.9426 9.05138 14.502 8.58521 15.0615 8.58521C15.6209 8.58521 15.9472 9.05138 15.8539 9.61078Z" fill="white"/>
<path d="M31.7504 26.1596C32.776 21.5911 36.4122 19.9129 38.7896 19.9129C42.519 19.9129 43.1716 22.8032 42.3792 26.4859L42.2393 27.1386L51.0499 27.0919L51.3763 25.6468C53.2876 17.2557 49.4183 13.4331 43.3581 13.4331C38.5565 13.4331 34.7339 15.9038 32.7294 18.0948H32.5429L33.0557 14.0857H25.4105C24.9443 16.6963 24.4315 19.5866 23.6391 23.0362L22.7067 27.2318H31.5174L31.7504 26.1596Z" fill="#2EA7E0"/>
<path d="M38.4167 43.967H47.2273L50.2108 30.5879H41.4468L38.4167 43.967Z" fill="#2EA7E0"/>
<path d="M18.9307 43.9672H27.6947L30.6316 31.0542H21.821L18.9307 43.9672Z" fill="#2EA7E0"/>
<path d="M68.1584 14.0391H59.3477L56.3176 27.558L65.1283 27.4648L68.1584 14.0391Z" fill="#2EA7E0"/>
<path d="M87.4113 14.0391H78.6006L75.6171 27.3716L84.4278 27.325L87.4113 14.0391Z" fill="#2EA7E0"/>
<path d="M74.6382 31.7533C73.8457 35.3429 70.769 37.6737 67.8787 37.6737C64.4756 37.6737 63.5899 35.0165 64.429 30.7278H55.6184L55.5251 31.1007C53.3808 40.6106 56.7838 44.5265 63.0771 44.5265C68.205 44.5265 71.8412 41.7294 73.6592 39.6783H73.8457L73.3329 43.8738H80.9781C81.4443 41.2166 82.0037 37.9534 82.8894 34.1774L83.6819 30.6812H74.8713L74.6382 31.7533Z" fill="#2EA7E0"/>
<path d="M104.38 25.9267C100.884 24.4816 99.8581 23.5959 100.231 21.9643C100.604 20.3327 102.282 19.1206 104.986 19.1206C107.503 19.1206 109.601 19.9597 110.86 20.659L113.797 15.0649C112.118 14.1326 109.368 13.3867 105.965 13.3867C98.5994 13.3867 92.9121 17.489 91.7001 22.85C91.4204 24.2019 91.467 25.5072 92.073 26.7192L105.965 26.626C105.452 26.3929 104.939 26.1598 104.38 25.9267Z" fill="#2EA7E0"/>
<path d="M98.04 31.5203C98.0866 31.5203 98.0866 31.5669 98.1332 31.5669C101.443 32.9654 102.375 33.9444 101.956 35.7624C101.536 37.5805 99.8115 38.7925 96.6881 38.7925C93.9377 38.7925 90.9076 37.7203 89.4158 36.788L86.4323 42.5219C88.3436 43.6873 91.7001 44.5265 95.3362 44.5265C103.587 44.5265 109.181 40.7505 110.487 35.0632C110.766 33.7579 110.766 32.5925 110.487 31.5203H98.04Z" fill="#2EA7E0"/>
<path d="M0.796601 38.5123C-0.0425075 48.4884 14.5953 44.4793 14.5953 44.4793L16.087 37.7664C9.70048 39.1183 10.9125 34.2702 10.9125 34.2702L11.7516 30.5874H2.56805L0.796601 38.5123Z" fill="#181D62"/>
<path d="M15.3878 14.5977H6.2042L3.26732 27.4174L12.4975 27.3708L15.3878 14.5977Z" fill="#181D62"/>
</g>
<defs>
<clipPath id="clip0_173_23">
<rect width="113" height="44.3329" fill="white" transform="translate(0.75 0.938965)"/>
</clipPath>
</defs>
</svg>
