<svg width="18" height="18" viewBox="0 0 18 18" fill="none" xmlns="http://www.w3.org/2000/svg">
<path d="M14.5663 13.8503L12.3162 12.0797C11.8551 11.7108 11.1911 11.7846 10.8038 12.2272C10.398 12.6883 10.1398 13.0019 10.0476 13.0756C9.36513 13.7581 7.94494 12.7621 6.43253 11.2497C4.92012 9.73727 3.94259 8.33552 4.62502 7.6531C4.69879 7.57932 5.01234 7.30266 5.47344 6.89689C5.9161 6.50957 5.98987 5.84558 5.62099 5.38448L3.85037 3.13431C3.53682 2.74699 3.00194 2.61788 2.55929 2.80232C1.95063 3.06054 0.862436 3.96429 0.567332 4.2594C-1.05574 5.90091 0.9731 9.62661 4.51435 13.1863C8.0556 16.746 11.7997 18.7748 13.4228 17.1333C13.7179 16.8382 14.6217 15.75 14.8799 15.1414C15.0828 14.6803 14.9537 14.1638 14.5663 13.8503Z" fill="#181D62"/>
<path d="M9.03321 5.9377C8.55367 5.82703 8.09257 6.19591 8.12945 6.6939C8.1479 7.00745 8.38767 7.26567 8.68278 7.35789C9.0701 7.45011 9.43898 7.65299 9.73408 7.9481C10.0292 8.2432 10.2321 8.61208 10.3243 8.9994C10.3981 9.31295 10.6563 9.53428 10.9883 9.55273C11.4863 9.58961 11.8551 9.12851 11.7445 8.64897C11.6154 8.02187 11.2834 7.41322 10.7854 6.91523C10.2874 6.41724 9.67875 6.08525 9.03321 5.9377Z" fill="#181D62"/>
<path d="M13.9024 9.77416C14.3451 9.81105 14.714 9.42373 14.6771 8.98107C14.548 7.50555 13.9209 6.04847 12.7958 4.92339C11.6707 3.7983 10.2136 3.17121 8.7381 3.0421C8.29544 3.00521 7.90811 3.37409 7.945 3.81675C7.96345 4.16718 8.24011 4.46229 8.60899 4.49918C9.77096 4.5914 10.896 5.08938 11.7629 5.9747C12.6482 6.86001 13.1278 7.98509 13.2384 9.12862C13.2384 9.47906 13.5335 9.75572 13.9024 9.77416Z" fill="#181D62"/>
<path d="M14.7879 2.91299C13.0357 1.17926 10.7671 0.257057 8.46156 0.18328C8.03735 0.164836 7.68691 0.533717 7.7238 0.957929C7.74224 1.32681 8.05579 1.62191 8.42467 1.64036C10.3613 1.71413 12.2795 2.48878 13.7366 3.9643C15.2121 5.43983 15.9867 7.358 16.0421 9.27618C16.0605 9.64506 16.3372 9.95861 16.7245 9.97705C17.1487 10.0139 17.5176 9.6635 17.4991 9.23929C17.4438 6.93379 16.5216 4.66518 14.7879 2.91299Z" fill="#181D62"/>
</svg>
